<?xml version="1.0" encoding="UTF-8" standalone="no"?>
<svg
   xmlns:dc="http://purl.org/dc/elements/1.1/"
   xmlns:cc="http://creativecommons.org/ns#"
   xmlns:rdf="http://www.w3.org/1999/02/22-rdf-syntax-ns#"
   xmlns:svg="http://www.w3.org/2000/svg"
   xmlns="http://www.w3.org/2000/svg"
   xmlns:sodipodi="http://sodipodi.sourceforge.net/DTD/sodipodi-0.dtd"
   xmlns:inkscape="http://www.inkscape.org/namespaces/inkscape"
   aria-hidden="true"
   focusable="false"
   data-prefix="fas"
   data-icon="tasks"
   class="svg-inline--fa fa-tasks fa-w-16"
   role="img"
   viewBox="0 0 2514.2036 1144.9106"
   version="1.1"
   id="svg12"
   sodipodi:docname="approach-tcs.svg"
   inkscape:version="0.92.3 (2405546, 2018-03-11)"
   width="2514.2036"
   height="1144.9106">
  <metadata
     id="metadata18">
    <rdf:RDF>
      <cc:Work
         rdf:about="">
        <dc:format>image/svg+xml</dc:format>
        <dc:type
           rdf:resource="http://purl.org/dc/dcmitype/StillImage" />
        <dc:title></dc:title>
      </cc:Work>
    </rdf:RDF>
  </metadata>
  <defs
     id="defs16" />
  <sodipodi:namedview
     pagecolor="#ffffff"
     bordercolor="#666666"
     borderopacity="1"
     objecttolerance="10"
     gridtolerance="10"
     guidetolerance="10"
     inkscape:pageopacity="0"
     inkscape:pageshadow="2"
     inkscape:window-width="1920"
     inkscape:window-height="1022"
     id="namedview14"
     showgrid="false"
     inkscape:zoom="0.28691686"
     inkscape:cx="1271.8014"
     inkscape:cy="121.77173"
     inkscape:window-x="0"
     inkscape:window-y="33"
     inkscape:window-maximized="1"
     inkscape:current-layer="g2231"
     showguides="true"
     inkscape:guide-bbox="true"
     fit-margin-top="0"
     fit-margin-left="0"
     fit-margin-right="0"
     fit-margin-bottom="0" />
  <g
     id="g2371"
     transform="translate(-1743.375,-156.08624)">
    <g
       transform="translate(-17.251504,7.3935018)"
       id="g2341">
      <g
         id="g2312">
        <g
           id="g2284">
          <g
             id="g2257">
            <g
               id="g2231">
              <text
                 xml:space="preserve"
                 style="font-style:normal;font-weight:normal;font-size:40px;line-height:1.25;font-family:sans-serif;letter-spacing:0px;word-spacing:0px;fill:#000000;fill-opacity:1;stroke:none"
                 x="491.72916"
                 y="-4127.1738"
                 id="text76"
                 transform="rotate(90)"><tspan
                   sodipodi:role="line"
                   id="tspan74"
                   x="491.72916"
                   y="-4127.1738"
                   style="font-style:normal;font-variant:normal;font-weight:normal;font-stretch:normal;font-size:160px;font-family:'Daniel Black';-inkscape-font-specification:'Daniel Black, '">TODO</tspan></text>
              <text
                 xml:space="preserve"
                 style="font-style:normal;font-weight:normal;font-size:40px;line-height:1.25;font-family:sans-serif;letter-spacing:0px;word-spacing:0px;fill:#000000;fill-opacity:1;stroke:none"
                 x="491.72916"
                 y="-1765.939"
                 id="text76-8"
                 transform="rotate(90)"><tspan
                   sodipodi:role="line"
                   id="tspan74-9"
                   x="491.72916"
                   y="-1765.939"
                   style="font-style:normal;font-variant:normal;font-weight:normal;font-stretch:normal;font-size:160px;font-family:'Daniel Black';-inkscape-font-specification:'Daniel Black, '">TODO</tspan></text>
              <path
                 style="fill:none;stroke:#000000;stroke-width:1px;stroke-linecap:butt;stroke-linejoin:miter;stroke-opacity:1"
                 d="m 2201.7721,149.37579 c 9.858,0 19.716,0 29.574,0 2.4645,0 4.9626,-0.40516 7.3935,0 2.5625,0.42708 4.8311,2.03742 7.3935,2.4645 2.431,0.40516 4.929,0 7.3935,0 2.4645,0 4.929,0 7.3935,0 9.0365,0 18.073,0 27.1095,0 2.1468,0 13.8774,-0.45482 14.787,0 1.0392,0.51956 1.3624,2.09712 2.4645,2.4645 2.0412,0.68039 10.7553,-0.78364 12.3226,0 1.0391,0.51956 1.3623,2.09712 2.4645,2.4645 1.5586,0.51956 3.335,-0.39848 4.929,0 1.782,0.44552 3.1863,1.88361 4.929,2.4645 0.7793,0.25978 1.6675,-0.19924 2.4645,0 2.5202,0.63006 4.8461,1.95503 7.3935,2.4645 1.6111,0.32222 3.3703,-0.51956 4.929,0 1.1021,0.36739 1.4978,1.82007 2.4645,2.4645 1.5284,1.01895 3.1863,1.88362 4.929,2.4645 2.9665,0.98885 1.9624,-0.98884 4.929,0 1.7426,0.58089 3.1863,1.88362 4.929,2.46451 1.5587,0.51956 3.3703,-0.51957 4.929,0 1.7426,0.58088 3.1863,1.88361 4.929,2.4645 1.5587,0.51956 3.3703,-0.51957 4.929,0 1.7426,0.58088 3.4006,1.44555 4.929,2.4645 1.1949,0.79659 11.5259,11.12761 12.3225,12.3225 3.1881,4.78215 2.4645,7.1587 2.4645,12.3225 0,1.98401 0.5156,8.31115 0,9.85801 -0.5809,1.74266 -1.4456,3.40058 -2.4645,4.929 -0.6964,1.04461 -6.3738,6.88366 -7.3935,7.3935 -0.7348,0.36739 -1.7298,-0.36739 -2.4645,0 -1.0392,0.51956 -1.4254,1.94494 -2.4645,2.4645 -0.7348,0.36739 -1.6852,-0.25978 -2.4645,0 -3.4854,1.16178 -6.3727,3.76722 -9.858,4.929 -2.3381,0.77934 -5.0026,-0.59773 -7.3935,0 -1.7821,0.44552 -3.147,2.01898 -4.929,2.4645 -1.594,0.39849 -3.3351,-0.39848 -4.929,0 -1.7821,0.44552 -3.147,2.01898 -4.929,2.4645 -1.594,0.39849 -3.3351,-0.39848 -4.929,0 -1.7821,0.44552 -3.1171,2.16251 -4.929,2.4645 -3.2413,0.54022 -6.572,0 -9.858,0 -3.286,0 -6.572,0 -9.858,0 -8.215,0 -16.4301,0 -24.6451,0 -2.4645,0 -4.929,0 -7.3935,0 -1.643,0 -3.335,-0.39848 -4.929,0 -1.782,0.44552 -3.1469,2.01898 -4.929,2.4645 -1.5939,0.39849 -3.335,-0.39848 -4.929,0 -3.5641,0.89105 -6.2938,4.03796 -9.858,4.92901 -3.1282,0.78204 -11.7675,-0.50325 -14.787,0 -2.5624,0.42707 -4.8732,1.83443 -7.3935,2.4645 -0.7969,0.19924 -1.643,0 -2.4645,0 -4.929,0 -9.858,0 -14.787,0 -8.215,0 -16.43,0 -24.645,0 -16.43,0 -32.86,0 -49.29,0 -6.572,0 -13.144,0 -19.716,0 -1.643,0 -3.3179,0.32221 -4.929,0 -29.2999,-5.85998 19.4995,1.19616 -17.2515,-4.92901 -8.215,-1.36916 -2.0538,2.05375 -12.3225,0 -1.8013,-0.36025 -3.1863,-1.88361 -4.929,-2.4645 -21.4233,-5.35582 -1.5228,0.3767 -14.787,-4.929 -7.2235,-2.88941 -14.957,-4.50408 -22.1805,-7.3935 -1.7056,-0.68222 -3.2235,-1.78228 -4.929,-2.4645 -2.412,-0.9648 -5.07,-1.30272 -7.3935,-2.4645 -1.0391,-0.51956 -1.3374,-2.18273 -2.4645,-2.4645 -13.8279,-3.45697 -1.0114,4.4233 -14.787,-2.4645 -1.0392,-0.51956 -1.4254,-1.94494 -2.4645,-2.4645 -0.7348,-0.36739 -1.643,0 -2.4645,0 -2.9351,0 -8.5797,1.37058 -9.858,-2.4645 -0.5196,-1.55869 0,-3.286 0,-4.929 0,-6.01293 -1.4272,-12.06261 2.4645,-17.25151 1.3941,-1.85884 3.4775,-3.11461 4.929,-4.929 1.3203,-1.65041 4.5028,-7.93086 7.3935,-9.858 12.4502,-8.30012 0.057,-0.019 7.3935,-2.4645 1.7426,-0.58089 3.1277,-2.10425 4.929,-2.4645 2.4166,-0.48333 4.9768,0.48332 7.3935,0 1.8012,-0.36026 3.1469,-2.01898 4.929,-2.46451 3.1879,-0.79697 6.6701,0.79698 9.858,0 1.7821,-0.44552 3.1469,-2.01897 4.929,-2.4645 1.9386,-0.48465 12.2241,0 14.787,0 9.858,0 19.716,0 29.574,0 10.6795,0 21.359,0 32.0385,0 4.1075,0 8.215,0 12.3225,0 1.643,0 3.3179,-0.32221 4.929,0 2.5474,0.50948 4.8461,1.95503 7.3935,2.4645 1.6111,0.32222 3.3351,-0.39848 4.929,0 1.7821,0.44553 3.1278,2.10425 4.929,2.46451 4.0278,0.80554 8.215,0 12.3225,0 1.6958,0 13.352,0.47834 14.787,0 1.7427,-0.58089 3.286,-1.64301 4.929,-2.46451"
                 id="path98"
                 inkscape:connector-curvature="0" />
              <path
                 style="fill:none;stroke:#000000;stroke-width:1px;stroke-linecap:butt;stroke-linejoin:miter;stroke-opacity:1"
                 d="m 2184.5206,356.39385 c 4.1075,0.8215 8.1758,1.8721 12.3225,2.4645 1.6265,0.23235 3.286,0 4.929,0 4.1075,0 8.215,0 12.3225,0 9.858,0 19.716,0 29.574,0 2.9441,0 15.5106,-0.58031 17.2515,0 2.81,0.93665 4.8537,3.40508 7.3935,4.929 1.5752,0.94509 3.286,1.643 4.929,2.4645 1.643,0.8215 3.1278,2.10425 4.929,2.4645 2.4167,0.48333 4.9769,-0.48333 7.3935,0 1.8013,0.36025 3.1864,1.88361 4.929,2.4645 0.7794,0.25978 1.6852,-0.25978 2.4645,0 1.7427,0.58089 3.1864,1.88361 4.929,2.4645 1.5587,0.51956 3.3704,-0.51956 4.929,0 1.7427,0.58089 3.286,1.643 4.929,2.4645 4.9291,2.4645 9.8581,4.929 14.7871,7.3935 3.286,1.643 6.3726,3.76723 9.8579,4.929 0.7794,0.25978 1.6852,-0.25978 2.4645,0 1.7427,0.58089 3.1864,1.88362 4.9291,2.4645 0.7793,0.25979 1.6851,-0.25978 2.4645,0 1.7426,0.58089 3.1863,1.88362 4.929,2.46451 0.7793,0.25978 1.7297,-0.36739 2.4645,0 1.0391,0.51956 1.4978,1.82006 2.4645,2.4645 8.9521,5.96812 1.7428,-0.7217 7.3935,4.929 0.8215,0.8215 1.643,1.643 2.4645,2.4645 0.8215,0.8215 1.9449,1.42537 2.4645,2.4645 0.8166,1.63328 -0.6886,7.79244 0,9.858 2.8319,8.49566 2.4645,1.82561 2.4645,7.3935 0,0.8215 0.3674,1.72973 0,2.4645 -0.5196,1.03913 -1.643,1.643 -2.4645,2.4645 -0.8215,0.8215 -1.643,1.643 -2.4645,2.4645 -2.4645,2.46451 -4.929,4.92901 -7.3935,7.39351 -0.8215,0.8215 -1.4979,1.82006 -2.4645,2.4645 -1.5285,1.01894 -3.4006,1.44555 -4.929,2.4645 -1.9334,1.28887 -2.9957,3.64012 -4.929,4.929 -1.5285,1.01895 -3.4006,1.44555 -4.929,2.4645 -0.9667,0.64444 -1.4254,1.94494 -2.4645,2.4645 -2.3236,1.16178 -5.07,1.30272 -7.3935,2.4645 -1.0392,0.51956 -1.4254,1.94494 -2.4645,2.4645 -10.1317,5.06583 -4.4162,0.73602 -14.7871,2.4645 -5.0143,-0.85597 -7.9845,4.0614 -12.3225,4.929 -2.4166,0.48333 -5.0238,-0.67705 -7.3935,0 -3.5325,1.00929 -6.3726,3.76723 -9.858,4.92901 -1.5586,0.51956 -3.286,0 -4.929,0 -2.4645,0 -4.929,0 -7.3935,0 -1.643,0 -3.335,-0.39849 -4.929,0 -1.782,0.44552 -3.1277,2.10424 -4.929,2.4645 -4.0277,0.80554 -8.215,0 -12.3225,0 -10.6795,0 -21.359,0 -32.0385,0 -18.8945,0 -37.789,0 -56.6835,0 -6.572,0 -13.144,0 -19.716,0 -3.286,0 -6.5921,0.36287 -9.858,0 -7.7211,0.0137 -14.6651,-3.98958 -22.1805,-4.92901 -3.2606,-0.40757 -6.605,0.46472 -9.858,0 -2.5717,-0.36738 -4.8158,-2.14228 -7.3935,-2.4645 -4.0758,-0.50947 -8.2467,0.50948 -12.3225,0 -2.5778,-0.32221 -4.8957,-1.75082 -7.3935,-2.4645 -4.4331,-1.2666 -18.2712,-4.53807 -22.1805,-4.929 -4.0871,-0.40871 -8.3128,0.89104 -12.3225,0 -3.5864,-0.79697 -6.2716,-4.13203 -9.858,-4.929 -4.0097,-0.89104 -8.2401,0.4536 -12.3225,0 -3.3664,-0.37405 -6.5516,-1.72973 -9.858,-2.4645 -4.0891,-0.90869 -8.166,-1.94494 -12.3225,-2.4645 -2.4455,-0.30568 -4.929,0 -7.3935,0 -4.1075,-0.8215 -8.1758,-1.87211 -12.3225,-2.4645 -1.6265,-0.23236 -3.3179,0.32222 -4.929,0 -2.5474,-0.50947 -4.8733,-1.83444 -7.3935,-2.4645 -0.797,-0.19924 -1.6852,0.25978 -2.4645,0 -1.7427,-0.58089 -3.147,-2.01898 -4.929,-2.4645 -1.594,-0.39849 -3.3351,0.39848 -4.929,0 -3.1491,-0.78727 -7.9753,-4.56944 -9.858,-7.3935 -5.3254,-7.9881 -1.9749,-16.87609 2.4645,-24.64501 1.1528,-2.01741 3.4415,-3.144 4.929,-4.929 2.6295,-3.15547 4.7203,-6.73936 7.3935,-9.858 2.2682,-2.64627 4.929,-4.92901 7.3935,-7.39351 3.286,-3.286 6.1403,-7.06974 9.858,-9.858 2.939,-2.20432 6.6682,-3.10626 9.858,-4.929 2.5717,-1.46955 4.929,-3.286 7.3935,-4.929 4.1075,-0.8215 8.5759,-0.59119 12.3225,-2.4645 3.1173,-1.55869 4.2761,-5.83482 7.3935,-7.3935 2.2043,-1.10216 4.948,0.30568 7.3935,0 4.1565,-0.51957 8.2334,-1.55582 12.3225,-2.46451 3.3064,-0.73477 6.497,-2.04437 9.858,-2.4645 3.2606,-0.40757 6.572,0 9.858,0 7.3935,0 14.787,0 22.1805,0 25.4665,0 50.933,0 76.3995,0 8.4526,0 6.6774,-0.77934 14.787,2.4645 5.6335,2.25341 6.5364,3.92184 12.3225,7.39351 1.5752,0.94509 3.1863,3.04539 4.929,2.4645 3.8967,-1.29891 5.7709,-7.80222 9.858,-7.3935 5.8945,0.58945 9.6436,6.91891 14.787,9.858 1.4265,0.81515 3.4595,-0.73477 4.929,0 1.0391,0.51956 1.643,1.643 2.4645,2.4645"
                 id="path100"
                 inkscape:connector-curvature="0" />
              <path
                 style="fill:none;stroke:#000000;stroke-width:1px;stroke-linecap:butt;stroke-linejoin:miter;stroke-opacity:1"
                 d="m 2182.0561,612.70191 c 10.6795,0 21.359,0 32.0385,0 1.643,0 3.3351,-0.39848 4.929,0 1.7821,0.44552 3.1469,2.01898 4.929,2.4645 3.1879,0.79698 6.6358,-0.64443 9.858,0 20.2633,6.75444 -5.1956,-0.86593 14.787,2.4645 2.5625,0.42708 4.929,1.64301 7.3935,2.46451 2.4645,0.8215 4.9815,1.49969 7.3935,2.4645 1.7056,0.68221 3.2235,1.78228 4.929,2.4645 4.6978,1.87911 12.5777,3.99423 17.2515,4.929 0.8056,0.16111 1.6676,-0.19925 2.4645,0 2.5203,0.63006 4.9815,1.4997 7.3935,2.4645 1.7056,0.68222 3.147,2.01898 4.929,2.4645 1.594,0.39849 3.3704,-0.51956 4.929,0 1.1022,0.36739 1.3624,2.09711 2.4645,2.4645 1.5587,0.51956 3.3351,-0.39849 4.9291,0 4.6715,1.16787 6.5846,4.12011 9.858,7.3935 2.4645,2.4645 4.929,4.929 7.3935,7.3935 4.9289,4.92901 9.858,9.85801 14.787,14.78701 1.643,1.643 3.286,3.286 4.929,4.929 0.8215,0.8215 1.9449,1.42537 2.4645,2.4645 0.3673,0.73477 -0.3674,1.72973 0,2.4645 0.5195,1.03913 2.0971,1.36234 2.4645,2.4645 0.5195,1.55869 -0.3223,3.31791 0,4.929 0.5094,2.54737 1.8344,4.87326 2.4645,7.3935 0.5798,2.31953 -0.5799,5.07398 0,7.39351 2.8319,11.32754 2.4645,0.55915 2.4645,7.3935 0,0.8215 0.2597,1.68516 0,2.4645 -1.088,3.264 -4.3956,7.85941 -7.3935,9.858 -1.5285,1.01895 -3.4595,1.36234 -4.929,2.4645 -1.8589,1.39413 -3.286,3.286 -4.929,4.929 -2.812,2.81197 -9.2547,10.0216 -12.3225,12.32251 -1.4696,1.10215 -3.4006,1.44555 -4.929,2.4645 -4.1575,2.77161 -3.8972,5.90329 -9.858,7.3935 -1.594,0.39849 -3.3351,-0.39849 -4.929,0 -1.7821,0.44552 -3.147,2.01898 -4.9291,2.4645 -1.8741,0.46854 -10.2587,0 -12.3225,0 -7.3935,0 -14.787,0 -22.1805,0 -9.0365,0 -18.073,0 -27.1095,0 -3.286,0 -6.5883,0.32697 -9.858,0 -18.8164,-1.88165 -11.1854,-2.37845 -29.574,-7.3935 -4.0412,-1.10216 -8.3103,-1.26085 -12.3225,-2.4645 -4.2373,-1.27121 -8.0545,-3.765 -12.3225,-4.929 -4.8209,-1.3148 -9.887,-1.48451 -14.787,-2.4645 -5.4822,2.29816 -10.168,-3.77427 -14.787,-4.92901 -1.5939,-0.39848 -3.335,0.39849 -4.929,0 -1.7821,-0.44552 -3.1469,-2.01898 -4.929,-2.4645 -1.5939,-0.39848 -3.3703,0.51957 -4.929,0 -1.1022,-0.36738 -1.4254,-1.94493 -2.4645,-2.4645 -0.7348,-0.36738 -1.6675,0.19925 -2.4645,0 -26.8036,-8.93453 6.4945,1.29891 -12.3225,-2.4645 -4.9491,0.56555 -8.0307,-3.85604 -12.3225,-4.929 -1.5939,-0.39849 -3.3351,0.39849 -4.929,0 -1.7821,-0.44552 -3.1469,-2.01898 -4.929,-2.4645 -8.5893,-2.14733 -1.6904,3.91478 -12.3225,-2.4645 -1.9924,-1.19546 -2.9957,-3.64013 -4.929,-4.929 -0.6835,-0.45569 -1.6852,0.25978 -2.4645,0 -1.7427,-0.58089 -3.1863,-1.88361 -4.929,-2.4645 -0.7794,-0.25978 -1.7297,0.36738 -2.4645,0 -1.0391,-0.51956 -1.4254,-1.94494 -2.4645,-2.4645 -0.7348,-0.36739 -1.6852,0.25978 -2.4645,0 -3.8961,-1.2987 -7.5654,-3.95463 -9.858,-7.39351 -0.4557,-0.68352 0.2598,-1.68515 0,-2.4645 -0.5809,-1.74266 -2.019,-3.14691 -2.4645,-4.929 -0.4847,-1.93861 0,-12.22411 0,-14.787 0,-2.01769 -0.5323,-10.72571 0,-12.3225 1.7251,-5.17546 5.6683,-9.61156 7.3935,-14.78701 0.565,-1.69516 -0.7271,-5.9394 0,-7.3935 1.0128,-2.02566 10.4518,-7.01937 12.3225,-7.3935 2.4166,-0.48333 4.9625,0.40516 7.3935,0 2.5625,-0.42708 4.831,-2.03743 7.3935,-2.4645 2.431,-0.40516 4.9625,0.40516 7.3935,0 2.5625,-0.42708 4.831,-2.03743 7.3935,-2.4645 4.8619,-0.81033 9.9251,0.81032 14.787,0 2.5625,-0.42708 4.831,-2.03743 7.3935,-2.4645 2.431,-0.40517 4.929,0 7.3935,0 8.215,0 16.43,0 24.645,0 8.215,0 16.43,0 24.645,0 1.643,0 3.286,0 4.929,0 1.643,0 3.3703,0.51956 4.929,0 1.1022,-0.36739 1.3624,-2.09712 2.4645,-2.4645 1.1282,-0.37606 10.9469,0 12.3225,0 6.572,0 13.144,0 19.716,0"
                 id="path102"
                 inkscape:connector-curvature="0" />
              <path
                 style="fill:none;stroke:#000000;stroke-width:1px;stroke-linecap:butt;stroke-linejoin:miter;stroke-opacity:1"
                 d="m 2142.6241,873.93898 c 7.3935,0 14.787,0 22.1805,0 3.286,0 6.5974,-0.40758 9.858,0 3.361,0.42012 6.5049,1.98549 9.858,2.4645 2.4397,0.34854 4.9626,-0.40516 7.3935,0 2.5625,0.42708 4.8218,2.09712 7.3935,2.4645 3.253,0.46471 6.5974,-0.40757 9.858,0 3.361,0.42013 6.4971,2.04438 9.858,2.4645 3.2607,0.40758 6.6051,-0.46471 9.858,0 2.5717,0.36739 4.8158,2.14229 7.3935,2.46451 4.0758,0.50947 8.2468,-0.50948 12.3225,0 2.5778,0.32221 4.8311,2.03742 7.3935,2.4645 2.431,0.40516 4.9538,-0.34854 7.3935,0 3.3531,0.47901 6.505,1.98548 9.858,2.4645 2.4398,0.34853 4.9538,-0.34854 7.3935,0 6.2964,0.89947 18.4471,4.91432 24.645,7.3935 18.1314,7.25255 -12.1986,-3.24472 12.3226,4.929 2.4645,0.8215 4.8732,1.83444 7.3935,2.4645 8.4016,2.10041 -8.8748,-6.90186 9.858,2.4645 1.0391,0.51956 1.4978,1.82006 2.4645,2.4645 1.5284,1.01895 3.4594,1.36234 4.929,2.4645 2.7882,2.0912 4.929,4.929 7.3935,7.3935 0.8215,0.8215 1.643,1.643 2.4645,2.46451 0.8215,0.8215 2.0971,1.36234 2.4645,2.4645 0.4416,1.32493 0,7.77143 0,9.858 0,0.35177 0.283,11.89796 0,12.3225 -3.2832,4.92478 -6.6186,6.25271 -12.3225,7.3935 -1.6111,0.32222 -3.3351,-0.39848 -4.929,0 -1.7821,0.44552 -3.2235,1.78229 -4.929,2.4645 -4.8241,1.92961 -9.963,2.9994 -14.787,4.92901 -3.4111,1.36443 -6.7077,3.03881 -9.858,4.929 -2.5399,1.52391 -5.024,3.15182 -7.3936,4.929 -0.9294,0.69706 -1.4253,1.94494 -2.4645,2.4645 -2.3235,1.16178 -5.0699,1.30272 -7.3935,2.4645 -2.6492,1.32463 -4.8536,3.40508 -7.3935,4.929 -1.5751,0.94509 -3.3538,1.51941 -4.929,2.4645 -2.5398,1.52392 -4.7442,3.60437 -7.3935,4.929 -4.6471,2.32356 -10.1399,2.60545 -14.787,4.929 -7.8093,3.90468 -6.1145,6.15459 -14.787,7.39351 -3.2529,0.46468 -6.605,-0.46471 -9.858,0 -0.056,0.008 -14.5657,4.86578 -14.787,4.92898 -29.3174,8.3764 5.9483,-1.4021 -17.2515,2.4645 -2.5624,0.4271 -4.8218,2.0971 -7.3935,2.4645 -3.253,0.4647 -6.5974,-0.4076 -9.858,0 -3.361,0.4201 -6.497,2.0444 -9.858,2.4645 -5.7061,0.7133 -11.5588,-0.8132 -17.2515,0 -3.3531,0.479 -6.497,2.0444 -9.858,2.4645 -3.2606,0.4076 -6.572,0 -9.858,0 -11.501,0 -23.002,0 -34.503,0 -4.929,0 -9.858,0 -14.787,0 -4.1075,0 -8.2813,0.7348 -12.3225,0 -5.1118,-0.9294 -9.7745,-3.5619 -14.787,-4.929 -15.0069,-4.0928 -11.3383,-0.3841 -27.1095,-7.3935 -2.7067,-1.2029 -4.5836,-3.99233 -7.3935,-4.92898 -8.3047,-2.76822 -18.7847,-1.80719 -27.1095,-4.92901 -2.7734,-1.04001 -4.6711,-3.76222 -7.3935,-4.929 -3.7596,-1.61123 -13.255,-2.53105 -17.2515,-4.929 -1.9925,-1.19546 -2.9116,-3.77619 -4.929,-4.929 -0.3668,-0.20955 -16.5627,-6.86795 -19.716,-7.3935 -2.431,-0.40516 -4.9626,0.40516 -7.3935,0 -7.0061,-1.16768 -6.5762,-2.63047 -12.3226,-4.929 -3.5502,-1.42008 -9.0198,-2.45199 -12.3225,-4.929 -1.8588,-1.39414 -3.286,-3.28601 -4.929,-4.92901 -1.643,-1.643 -3.8898,-2.85075 -4.929,-4.929 -1.1021,-2.20431 0,-4.929 0,-7.3935 0,-1.48527 -0.2591,-9.51247 0,-9.858 6.1613,-8.215 6.8459,-5.47667 12.3225,-12.3225 7.7545,-9.69304 1.7849,-6.00561 12.3226,-14.78701 6.37,-5.30834 7.3769,-4.92349 14.787,-7.3935 4.929,-1.643 9.858,-3.286 14.787,-4.929 2.4645,-0.8215 4.8218,-2.09712 7.3935,-2.4645 3.2529,-0.46471 6.5883,0.32697 9.858,0 8.4313,2.82822 14.6827,-3.8579 22.1805,-4.929 3.2529,-0.46471 6.5921,0.36287 9.858,0 4.1632,-0.46258 8.1592,-2.00192 12.3225,-2.4645 3.2659,-0.36288 6.572,0 9.858,0 3.286,0 6.572,0 9.858,0 9.858,0 19.716,0 29.574,0 15.6085,0 31.217,0 46.8255,0 3.286,0 6.572,0 9.858,0 4.1075,0 8.3128,-0.89105 12.3225,0 3.5864,0.79697 6.4812,3.48179 9.858,4.929 4.7755,2.04665 10.1399,2.60544 14.787,4.929 1.0391,0.51956 1.4979,1.82006 2.4645,2.4645 1.2411,5.4297 5.07,1.30272 7.3935,2.4645 1.0391,0.51956 1.643,1.643 2.4645,2.4645"
                 id="path104"
                 inkscape:connector-curvature="0" />
              <path
                 style="fill:none;stroke:#000000;stroke-width:1px;stroke-linecap:butt;stroke-linejoin:miter;stroke-opacity:1"
                 d="m 2177.1271,1145.0341 c 5.2098,5.6911 11.5554,1.3252 17.2515,2.4645 2.5474,0.5094 4.8462,1.955 7.3935,2.4645 3.2222,0.6444 6.6701,-0.797 9.858,0 1.7821,0.4455 3.1864,1.8836 4.929,2.4645 1.8196,0.6065 11.4856,-0.1674 12.3225,0 1.8013,0.3602 3.2235,1.7822 4.929,2.4645 2.412,0.9648 4.929,1.643 7.3935,2.4645 2.4645,0.8215 4.8462,1.955 7.3935,2.4645 1.6111,0.3222 3.3703,-0.5196 4.929,0 3.4854,1.1617 6.3727,3.7672 9.858,4.929 1.5587,0.5195 3.3351,-0.3985 4.929,0 1.7821,0.4455 3.2235,1.7822 4.929,2.4645 2.412,0.9648 4.929,1.643 7.3935,2.4645 2.4645,0.8215 4.8733,1.8344 7.3935,2.4645 0.797,0.1992 1.6852,-0.2598 2.4645,0 1.7427,0.5809 3.147,2.0189 4.929,2.4645 1.594,0.3984 3.4595,-0.7348 4.929,0 6.0366,3.0183 4.0412,5.3881 7.3935,9.858 1.3942,1.8588 4.0661,2.7716 4.9291,4.929 0.9152,2.2882 -0.6771,5.0238 0,7.3935 1.0092,3.5325 3.5645,6.4469 4.929,9.858 1.9296,4.824 3.286,9.858 4.929,14.787 5.909,17.7271 -1.2602,-4.4105 4.929,17.2515 0.7136,2.4978 1.955,4.8461 2.4645,7.3935 0.3222,1.6111 -0.7348,3.4594 0,4.929 1.0391,2.0782 3.6401,2.9957 4.9289,4.929 0.4548,0.682 0,13.76 0,14.787 0,1.7141 0.4457,11.4312 0,12.3225 -0.5195,1.0391 -1.643,1.643 -2.4645,2.4645 -0.8215,0.8215 -1.4253,1.9449 -2.4645,2.4645 -0.7347,0.3674 -1.6851,-0.2598 -2.4645,0 -8.0448,2.6816 -2.0658,3.2196 -12.3224,4.929 -2.431,0.4052 -4.9291,0 -7.3936,0 -45.1825,0 -90.365,0 -135.5475,0 -14.787,0 -29.574,0 -44.361,0 -4.929,0 -9.8782,0.4462 -14.787,0 -49.5338,-4.5031 19.1449,-0.3373 -22.1805,-4.929 -15.1474,-1.6831 -9.6858,2.5219 -24.645,-2.4645 -3.4854,-1.1618 -6.2717,-4.132 -9.858,-4.929 -4.0097,-0.8911 -8.3128,0.891 -12.3225,0 -3.5864,-0.797 -6.3727,-3.7672 -9.858,-4.929 -3.9739,-1.3246 -8.2334,-1.5558 -12.3225,-2.4645 -3.3065,-0.7348 -6.5516,-1.7297 -9.858,-2.4645 -4.0891,-0.9087 -8.2334,-1.5558 -12.3225,-2.4645 -3.3065,-0.7348 -6.7628,-1.0889 -9.858,-2.4645 -4.3773,-1.9455 -7.875,-5.6145 -12.3225,-7.3935 -3.8893,-1.5557 -8.2335,-1.5558 -12.3225,-2.4645 -3.3065,-0.7348 -6.5516,-1.7297 -9.8581,-2.4645 -4.0891,-0.9087 -8.3486,-1.1399 -12.3225,-2.4645 -7.1202,-2.3734 -15.8634,-9.164 -22.1805,-12.3225 -2.3235,-1.1618 -5.0057,-1.4412 -7.3935,-2.4645 -3.3768,-1.4472 -6.4812,-3.4818 -9.858,-4.929 -2.3877,-1.0234 -5.1659,-1.128 -7.3935,-2.4645 -1.9924,-1.1955 -3.0701,-3.5349 -4.929,-4.929 -1.4695,-1.1022 -3.4006,-1.4456 -4.929,-2.4645 -0.9666,-0.6445 -1.4978,-1.8201 -2.4645,-2.4645 -1.5284,-1.019 -3.4005,-1.4456 -4.929,-2.4645 -0.9666,-0.6445 -2.984,-1.4254 -2.4645,-2.4645 2.5022,-5.0043 13.7375,-1.4605 17.2515,-2.4645 7.3424,-2.0979 19.4011,-11.7281 24.645,-14.787 28.4836,-16.6154 1.0272,0.8529 29.574,-12.3225 6.0136,-2.7755 11.238,-7.0826 17.2516,-9.858 4.7174,-2.1773 9.9376,-3.0639 14.787,-4.929 5.8393,-2.2459 11.2718,-5.5536 17.2515,-7.3935 4.776,-1.4696 9.858,-1.643 14.787,-2.4645 4.929,-0.8215 9.8481,-1.7047 14.787,-2.4645 5.7413,-0.8833 11.5554,-1.3253 17.2515,-2.4645 6.6427,-1.3286 13.0098,-3.971 19.716,-4.929 17.264,-2.4663 13.8341,3.6036 32.0385,-2.4645 4.5443,-1.5148 7.8208,-5.7566 12.3225,-7.3935 4.6961,-1.7077 9.887,-1.4846 14.787,-2.4645 3.3213,-0.6643 6.497,-2.0444 9.858,-2.4645 6.5213,-0.8152 13.2334,1.0804 19.716,0 1.8119,-0.302 3.1171,-2.1626 4.929,-2.4645 4.8619,-0.8104 9.858,0 14.787,0 11.501,0 23.002,0 34.503,0 6.572,0 13.144,0 19.716,0 3.286,0 6.605,-0.4648 9.858,0 8.6724,1.2389 6.9777,3.4888 14.787,7.3935 2.3236,1.1617 4.9815,1.4997 7.3935,2.4645 4.7999,1.9199 7.0602,4.929 12.3225,4.929"
                 id="path106"
                 inkscape:connector-curvature="0" />
              <path
                 style="fill:none;stroke:#000000;stroke-width:1px;stroke-linecap:butt;stroke-linejoin:miter;stroke-opacity:1"
                 d="m 2684.8143,661.99193 c 10.4245,0.0333 19.3999,6.26304 29.574,7.3935 4.0823,0.4536 8.2353,-0.40871 12.3225,0 4.168,0.4168 8.215,1.643 12.3225,2.4645 4.929,0.8215 9.8105,2.01209 14.787,2.4645 4.0906,0.37188 8.215,0 12.3225,0 4.929,0 9.858,0 14.787,0 14.787,0 29.574,0 44.361,0 9.858,0 19.716,0 29.574,0 4.929,0 9.9251,-0.81032 14.787,0 5.1249,0.85415 9.7913,3.50165 14.787,4.929 6.5136,1.86103 13.217,3.01753 19.716,4.929 7.4768,2.19905 14.7488,5.04666 22.1805,7.3935 8.1786,2.58272 16.5084,4.68131 24.645,7.39351 6.6587,2.21957 12.8477,5.94753 19.716,7.3935 8.8792,1.86929 18.1413,1.08477 27.1095,2.4645 12.4204,1.91083 24.4838,5.95307 36.9675,7.3935 8.977,1.0358 18.073,0 27.1095,0 6.572,0 13.144,0 19.7161,0 26.288,0 52.576,0 78.864,0"
                 id="path108"
                 inkscape:connector-curvature="0" />
              <path
                 style="fill:none;stroke:#000000;stroke-width:1px;stroke-linecap:butt;stroke-linejoin:miter;stroke-opacity:1"
                 d="m 3069.2763,590.52141 c 4.1075,1.643 8.215,3.286 12.3226,4.929 0.8215,0 1.6851,-0.25978 2.4645,0 17.8514,5.95047 -3.8856,-0.71053 7.3935,4.929 2.3235,1.16178 5.0699,1.30272 7.3935,2.4645 1.0391,0.51956 1.4253,1.94494 2.4645,2.4645 0.7347,0.36739 1.7297,-0.36738 2.4645,0 2.6492,1.32463 4.8536,3.40509 7.3935,4.929 1.5751,0.9451 3.4005,1.44556 4.929,2.4645 0.9666,0.64444 1.535,1.76744 2.4645,2.4645 7.0769,5.30771 15.2745,9.26222 22.1805,14.78701 1.8144,1.45151 3.1146,3.47749 4.929,4.929 6.9126,5.5301 15.2679,9.2569 22.1805,14.787 11.608,9.2864 -2.8485,0.75539 12.3225,9.85801 7.6786,4.60717 3.2387,0.12649 12.3225,7.3935 1.8144,1.45151 3.1146,3.47749 4.929,4.929 2.3129,1.85032 5.0239,3.15182 7.3935,4.929 0.9294,0.69707 1.4978,1.82006 2.4645,2.4645 1.5284,1.01895 3.4006,1.44556 4.929,2.4645 1.9333,1.28888 3.0701,3.53487 4.929,4.929 3.5067,2.63002 9.5961,5.76838 12.3225,9.85801 1.0189,1.52841 1.4455,3.40058 2.4645,4.929 1.2889,1.93331 3.8899,2.85075 4.929,4.929 0.3674,0.73477 -0.3674,1.72973 0,2.4645 0.5196,1.03912 1.643,1.643 2.4645,2.4645 1.643,1.643 3.286,3.286 4.929,4.929 0.8215,0.8215 1.9449,1.42538 2.4645,2.4645 0.3674,0.73477 0,1.643 0,2.4645 0,0.8215 0.5809,1.88361 0,2.4645 -8.6667,8.66674 -4.4836,3.36122 -12.3225,4.929 -13.6406,2.72812 -0.9177,2.88728 -17.2515,4.92901 -3.2606,0.40757 -6.605,-0.46472 -9.858,0 -2.5717,0.36738 -4.8957,1.75082 -7.3935,2.4645 -3.2568,0.93051 -6.517,1.90766 -9.858,2.4645 -1.6207,0.2701 -3.3179,-0.32222 -4.929,0 -2.5474,0.50947 -4.929,1.643 -7.3935,2.4645 -2.4645,0.8215 -4.9815,1.49969 -7.3935,2.4645 -1.7056,0.68222 -3.1864,1.88361 -4.929,2.4645 -30.0107,10.00357 2.5314,-0.99919 -14.787,2.4645 -8.1738,1.63474 -5.7505,2.3002 -12.3225,4.929 -2.412,0.9648 -4.929,1.643 -7.3935,2.4645 -2.4645,0.8215 -4.8733,1.83444 -7.3935,2.4645 -0.797,0.19924 -1.6852,-0.25978 -2.4645,0 -5.1755,1.72515 -9.6116,5.66835 -14.787,7.3935 -0.7794,0.25979 -1.6852,-0.25978 -2.4645,0 -1.7427,0.58089 -3.1864,1.88362 -4.929,2.4645 -0.7794,0.25979 -1.7298,-0.36738 -2.4645,0 -2.6493,1.32463 -4.7443,3.60438 -7.3935,4.92901 -0.7348,0.36738 -1.6852,-0.25979 -2.4645,0 -13.9631,6.98154 3.6738,-0.91847 -9.8581,2.4645 -1.782,0.44552 -3.1863,1.88361 -4.929,2.4645 -7.3364,2.44547 5.0567,-5.83562 -7.3935,2.4645 -1.9333,1.28887 -2.8507,3.88987 -4.929,4.929 -7.2525,3.62628 3.2448,-5.70922 -4.929,2.4645"
                 id="path110"
                 inkscape:connector-curvature="0" />
              <path
                 style="fill:none;stroke:#000000;stroke-width:10;stroke-linecap:butt;stroke-linejoin:miter;stroke-opacity:1;stroke-miterlimit:4;stroke-dasharray:none"
                 d="m 3926.9226,164.16279 c -75.578,0 -151.1561,0 -226.7341,0 -16.43,0 -32.86,0 -49.29,0 -3.286,0 -6.572,0 -9.858,0 -3.286,0 -6.605,-0.46471 -9.858,0 -2.5717,0.36739 -4.929,1.643 -7.3935,2.4645 -3.286,0.8215 -6.5049,1.98549 -9.858,2.46451 -4.8795,0.69706 -9.9537,-0.96666 -14.787,0 -1.8013,0.36025 -3.1278,2.10424 -4.929,2.4645 -18.8008,0 1.9441,-1.10216 -12.3225,2.4645 -3.1879,0.79697 -6.807,-1.22039 -9.858,0 -2.7501,1.10004 -4.7443,3.60437 -7.3935,4.929 -2.3236,1.16177 -5.07,1.30272 -7.3935,2.4645 -1.0391,0.51956 -1.3624,2.09711 -2.4645,2.4645 -1.5587,0.51956 -3.3351,-0.39849 -4.929,0 -3.9788,0.99469 -4.8883,2.42379 -7.3935,4.929 -0.8215,0.8215 -2.1828,1.33741 -2.4645,2.4645 -0.5978,2.39092 -0.4834,4.97686 0,7.3935 0.8759,4.37953 4.4894,6.95393 7.3935,9.85801 4.7472,4.74719 8.6036,9.23083 14.787,12.3225 2.3235,1.16178 4.929,1.643 7.3935,2.4645 2.4645,0.8215 4.929,1.643 7.3935,2.4645 2.4645,0.8215 4.831,2.03742 7.3935,2.4645 2.431,0.40516 5.0555,-0.77934 7.3935,0 2.8099,0.93666 4.671,3.76223 7.3935,4.929 3.1133,1.33426 6.6865,1.2752 9.858,2.4645 3.4399,1.28998 6.4181,3.63903 9.858,4.929 3.1715,1.18931 6.572,1.643 9.858,2.46451 3.286,0.8215 6.5049,1.98548 9.858,2.4645 2.4397,0.34853 4.9625,-0.40517 7.3935,0 6.8863,1.14771 15.2942,6.24579 22.1805,7.3935 4.8619,0.81032 9.9251,-0.81033 14.787,0 2.5625,0.42708 4.8218,2.09711 7.3935,2.4645 3.253,0.46471 6.572,0 9.858,0 5.7505,0 11.501,0 17.2515,0 2.4645,0 4.9441,-0.27216 7.3935,0 4.9664,0.55182 9.8206,1.91267 14.787,2.4645 2.4495,0.27216 4.929,0 7.3935,0 6.572,0 13.144,0 19.716,0 22.1805,0 44.361,0 66.5416,0 14.787,0 29.574,0 44.361,0 9.0365,0 18.073,0 27.1095,0 3.286,0 6.6358,0.64444 9.858,0 2.5473,-0.50947 4.8732,-1.83444 7.3935,-2.4645 2.3909,-0.59773 4.9768,0.48333 7.3935,0 2.5473,-0.50947 4.8732,-1.83444 7.3935,-2.4645 3.0825,-0.77063 6.8407,1.00576 9.858,0 0.677,-0.22569 11.9979,-11.99789 12.3225,-12.32251 3.286,-3.286 6.572,-6.572 9.858,-9.858 1.643,-1.643 3.6401,-2.99569 4.929,-4.929 2.8319,-4.24783 2.4645,-3.7253 2.4645,-7.3935 0,-0.8215 -0.1993,-1.66753 0,-2.4645 0.6301,-2.52025 1.8344,-4.87326 2.4645,-7.3935 0.3985,-1.59395 -0.7348,-3.45946 0,-4.92901 0.5196,-1.03912 1.9449,-1.42537 2.4645,-2.4645 0.375,-0.75003 0,-6.28359 0,-7.3935 0,-1.31657 0.3527,-11.61715 0,-12.3225 -0.5196,-1.03913 -1.4254,-1.94494 -2.4645,-2.4645 -0.5524,-0.27619 -9.2724,0 -9.858,0 -7.3935,0 -14.787,0 -22.1805,0 -2.4645,0 -5.0555,0.77934 -7.3935,0 -1.1022,-0.36739 -1.4254,-1.94494 -2.4645,-2.4645 -0.2041,-0.10205 -7.0764,-0.1057 -7.3935,0 -1.7427,0.58089 -3.1864,1.88361 -4.929,2.4645 -1.9837,0.66122 -8.2832,-0.78744 -9.858,0 -1.0392,0.51956 -1.643,1.643 -2.4645,2.4645"
                 id="path112"
                 inkscape:connector-curvature="0" />
              <path
                 style="fill:none;stroke:#000000;stroke-width:10;stroke-linecap:butt;stroke-linejoin:miter;stroke-opacity:1;stroke-miterlimit:4;stroke-dasharray:none"
                 d="m 3665.6855,896.11949 c -6.6821,1.11368 -13.0339,3.81532 -19.716,4.929 -1.6206,0.27011 -3.286,0 -4.929,0 -3.286,0 -6.572,0 -9.858,0 -11.501,0 -23.002,0 -34.503,0 -2.4645,0 -4.929,0 -7.3935,0 -3.286,0 -6.605,-0.46471 -9.858,0 -2.5717,0.36739 -4.831,2.03743 -7.3935,2.4645 -4.0516,0.67527 -8.3377,-0.99621 -12.3225,0 -1.7821,0.44552 -3.286,1.643 -4.929,2.4645 -2.4645,0 -5.0026,-0.59773 -7.3935,0 -1.1271,0.28178 -1.4254,1.94494 -2.4645,2.4645 -0.7348,0.36739 -1.643,0 -2.4645,0 -1.643,0 -3.3703,-0.51956 -4.929,0 -1.1022,0.36739 -1.4979,1.82007 -2.4645,2.4645 -12.4502,8.30012 -0.057,0.019 -7.3935,2.46451 -1.7427,0.58088 -3.1278,2.10424 -4.929,2.4645 -2.4167,0.48332 -4.9769,-0.48333 -7.3935,0 -1.8013,0.36025 -3.286,1.643 -4.929,2.4645 -1.643,0.8215 -3.286,1.643 -4.929,2.4645 -3.286,1.643 -6.8012,2.89111 -9.858,4.929 -1.9333,1.28887 -3.286,3.286 -4.929,4.929 -0.8215,0.8215 -1.945,1.42538 -2.4645,2.4645 -0.3674,0.73477 0,1.643 0,2.4645 0,1.643 0,3.286 0,4.929 0,3.286 0,6.572 0,9.85801 0,6.99997 -1.3712,15.78767 2.4645,22.1805 1.1954,1.99243 3.286,3.286 4.929,4.929 0.8215,0.8215 1.4253,1.94494 2.4645,2.4645 2.3235,1.16178 4.929,1.643 7.3935,2.4645 17.7271,5.90903 -4.4105,-1.26012 17.2515,4.929 2.4978,0.71368 4.8956,1.75083 7.3935,2.46451 10.8757,3.10735 7.797,1.38358 17.2515,4.929 4.1422,1.55334 8.0307,3.85604 12.3225,4.929 4.7818,1.19548 9.9537,-0.96666 14.787,0 1.8012,0.36025 3.1277,2.10428 4.929,2.46448 4.8333,0.9667 9.9537,-0.9666 14.787,0 1.8013,0.3603 3.1277,2.1043 4.929,2.4645 2.4166,0.4833 4.9538,-0.3485 7.3935,0 3.3531,0.479 6.4916,2.0905 9.858,2.4645 4.0824,0.4536 8.215,0 12.3225,0 3.286,0 6.572,0 9.858,0 13.9655,0 27.931,0 41.8965,0 35.3245,0 70.649,0 105.9735,0 5.7505,0 11.501,0 17.2516,0 3.286,0 6.5973,-0.4076 9.858,0 9.2197,1.1525 9.0671,2.8829 17.2515,4.929 0.7969,0.1993 1.643,0 2.4645,0 4.929,0 9.858,0 14.787,0 1.643,0 3.3179,-0.3222 4.929,0 2.5473,0.5095 4.8461,1.955 7.3935,2.4645 1.6111,0.3222 3.286,0 4.929,0 4.929,0 9.858,0 14.787,0 1.643,0 3.286,0 4.929,0 1.643,0 3.335,0.3985 4.929,0 1.7821,-0.4455 3.1863,-1.8836 4.929,-2.4645 0.7793,-0.2598 1.7297,0.3674 2.4645,0 1.0391,-0.5195 1.3623,-2.0971 2.4645,-2.4645 1.5587,-0.5195 3.335,0.3985 4.929,0 1.7821,-0.4455 3.1863,-1.8836 4.929,-2.4645 0.7793,-0.2598 1.6675,0.1993 2.4645,0 2.5202,-0.63 4.8956,-1.7508 7.3935,-2.4645 8.2547,-2.3585 16.6371,-4.1903 24.645,-7.39348 1.7055,-0.68222 3.286,-1.643 4.929,-2.4645 3.286,-1.643 6.6682,-3.10626 9.858,-4.929 2.5717,-1.46955 4.8218,-3.45946 7.3935,-4.92901 3.1898,-1.82274 6.8012,-2.89111 9.858,-4.929 1.9333,-1.28887 3.1146,-3.47749 4.929,-4.929 2.3129,-1.85032 5.0806,-3.07868 7.3935,-4.929 3.4551,-2.76411 6.6827,-6.68269 9.858,-9.858 0.8215,-0.8215 1.643,-1.643 2.4645,-2.4645 0.8215,-0.8215 1.9449,-1.42538 2.4645,-2.4645 0.3674,-0.73478 0,-1.643 0,-2.4645 0,-1.643 -0.5196,-3.37032 0,-4.92901 0.3674,-1.10215 1.9449,-1.42537 2.4645,-2.4645 0.105,-0.21009 0.105,-9.64791 0,-9.858 -0.5196,-1.03912 -1.643,-1.643 -2.4645,-2.4645 -0.8215,-0.8215 -1.4254,-1.94494 -2.4645,-2.4645 -0.7348,-0.36739 -1.6852,0.25978 -2.4645,0 -1.7427,-0.58089 -3.1469,-2.01898 -4.929,-2.4645 -1.5939,-0.39849 -3.3179,0.32222 -4.929,0 -2.5474,-0.50947 -4.8461,-1.95503 -7.3935,-2.4645 -1.6111,-0.32222 -3.3025,0.23235 -4.929,0 -4.1467,-0.59239 -8.166,-1.94494 -12.3225,-2.4645 -2.4455,-0.30569 -4.9538,0.34853 -7.3935,0 -3.3531,-0.47901 -6.572,-1.643 -9.858,-2.4645 -3.286,-0.8215 -6.6012,-1.53399 -9.858,-2.4645 -2.4979,-0.71368 -4.8462,-1.95503 -7.3935,-2.4645 -1.6111,-0.32222 -3.286,0 -4.929,0 -5.7505,0 -11.501,0 -17.2515,0 -4.929,0 -9.858,0 -14.787,0 -1.643,0 -3.3351,-0.39849 -4.929,0 -1.7821,0.44552 -3.2235,1.78228 -4.929,2.4645 -2.412,0.9648 -4.9815,1.49969 -7.3935,2.4645 -1.7056,0.68222 -3.1469,2.01898 -4.929,2.4645 -1.594,0.39848 -3.286,0 -4.929,0 -2.4645,0 -4.9538,-0.34854 -7.3935,0 -3.3531,0.47901 -6.517,1.90766 -9.858,2.4645 -1.6207,0.27011 -3.286,0 -4.929,0 -3.286,0 -6.572,0 -9.858,0 -4.1075,0 -8.2709,0.67527 -12.3225,0 -2.5625,-0.42708 -4.8957,-1.75083 -7.3935,-2.4645 -3.2569,-0.93052 -6.6447,-1.3934 -9.858,-2.4645 -1.7427,-0.58089 -3.2235,-1.78228 -4.929,-2.4645 -4.8241,-1.92961 -9.8581,-3.286 -14.7871,-4.929 -2.4645,-0.8215 -4.8461,-1.95503 -7.3935,-2.46451 -1.6111,-0.32221 -3.286,0 -4.929,0 -1.643,-0.8215 -3.1469,-2.01898 -4.929,-2.4645 -1.5939,-0.39848 -3.335,0.39849 -4.929,0 -1.782,-0.44552 -3.1469,-2.01898 -4.929,-2.4645 -6.1779,-1.54449 -3.68,1.5445 -9.858,0 -1.782,-0.44552 -3.286,-1.643 -4.929,-2.4645 -2.4645,0 -4.9768,0.48333 -7.3935,0 -1.8012,-0.36025 -3.1277,-2.10425 -4.929,-2.4645 -3.9495,-0.7899 -8.373,0.78991 -12.3225,0 -2.5473,-0.50947 -4.929,-1.643 -7.3935,-2.4645 -2.4645,-0.8215 -4.9815,-1.4997 -7.3935,-2.4645 -6.572,-2.6288 -4.1488,-3.29426 -12.3225,-4.929 -1.6111,-0.32222 -3.335,0.39849 -4.929,0 -3.4883,-0.87209 -5.695,-4.546 -9.858,-2.4645 -3.6738,1.83693 -6.572,4.929 -9.858,7.3935 z"
                 id="path114"
                 inkscape:connector-curvature="0" />
              <path
                 style="fill:none;stroke:#000000;stroke-width:1px;stroke-linecap:butt;stroke-linejoin:miter;stroke-opacity:1;opacity:0.502"
                 d="m 3687.866,1108.0665 c -3.286,-0.8215 -6.5169,-1.9076 -9.858,-2.4645 -2.431,-0.4051 -4.929,0 -7.3935,0 -6.572,0 -13.144,0 -19.716,0 -17.2515,0 -34.503,0 -51.7545,0 -9.0365,0 -18.073,0 -27.1095,0 -5.7505,0 -11.5454,-0.7132 -17.2515,0 -8.5085,1.0636 -16.4777,5.06 -24.645,7.3935 -3.2568,0.9306 -6.9172,0.7841 -9.858,2.4645 -3.0261,1.7293 -4.4936,5.4602 -7.3935,7.3935 -2.1615,1.4411 -4.9611,1.5524 -7.3935,2.4645 -4.1423,1.5534 -8.1256,3.5301 -12.3225,4.9291 -3.2134,1.0711 -6.7448,1.1302 -9.858,2.4645 -0.1054,0.045 -14.5263,9.709 -14.787,9.858 -3.1899,1.8227 -6.4812,3.4818 -9.858,4.929 -2.3878,1.0233 -5.07,1.3027 -7.3936,2.4645 -5.5734,2.7867 -6.3921,3.9276 -9.858,7.3935 -0.8215,0.8215 -1.643,1.643 -2.4645,2.4645 -0.8215,0.8215 -1.9449,1.4253 -2.4645,2.4645 -0.4491,0.8982 0,10.9024 0,12.3225 0,1.643 0,3.286 0,4.929 0,2.4645 -0.7793,5.0554 0,7.3935 1.5545,4.6634 6.4929,8.9573 9.858,12.3225 4.0977,4.0976 6.0299,6.2622 12.3226,9.858 2.2555,1.2888 4.929,1.643 7.3935,2.4645 2.4645,0.8215 4.929,1.643 7.3935,2.4645 2.4645,0.8215 4.8461,1.955 7.3935,2.4645 1.6111,0.3222 3.3083,-0.2701 4.929,0 3.341,0.5568 6.572,1.643 9.858,2.4645 3.286,0.8215 6.6012,1.534 9.858,2.4645 2.4978,0.7136 4.8956,1.7508 7.3935,2.4645 6.253,1.7866 11.3424,2.3965 17.2515,4.929 3.3768,1.4472 6.418,3.639 9.858,4.929 6.3429,2.3786 13.2024,3.0679 19.716,4.929 2.4978,0.7137 4.8116,2.1776 7.3935,2.4645 4.8988,0.5443 9.8881,-0.5443 14.787,0 2.5819,0.2869 4.8218,2.0971 7.3935,2.4645 3.253,0.4647 6.5974,-0.4076 9.858,0 3.361,0.4201 6.5049,1.9855 9.858,2.4645 4.8795,0.697 9.9075,-0.6971 14.787,0 3.3531,0.479 6.497,2.0444 9.858,2.4645 3.2606,0.4076 6.572,0 9.858,0 3.286,0 6.572,0 9.858,0 10.6795,0 21.359,0 32.0385,0 9.858,0 19.716,0 29.574,0 4.1075,0 8.215,0 12.3225,0 3.286,0 6.5921,-0.3629 9.858,0 7.7211,-0.014 14.6652,3.9896 22.1805,4.929 3.2607,0.4076 6.572,0 9.858,0 7.3935,0 14.787,0 22.1805,0 5.7505,0 11.501,0 17.2515,0 2.4645,0 4.9769,0.4833 7.3935,0 2.5474,-0.5095 4.8733,-1.8345 7.3935,-2.4645 0.797,-0.1993 1.6676,0.1992 2.4645,0 2.5203,-0.6301 4.8086,-2.206 7.3936,-2.4645 61.5713,-6.1572 -36.7594,9.3569 39.432,-4.929 5.7094,-1.0705 11.501,-1.643 17.2515,-2.4645 5.7505,-0.8215 11.4597,-2.019 17.2515,-2.4645 4.9145,-0.3781 9.8824,0.4904 14.787,0 0.034,0 19.5327,-4.8883 19.716,-4.929 2.8062,-0.6236 15.8302,-2.5975 19.716,-4.929 1.9924,-1.1955 2.8507,-3.8899 4.929,-4.929 1.4695,-0.7348 3.3703,0.5195 4.929,0 2.2043,-0.7348 2.8507,-3.8899 4.929,-4.929 0.7348,-0.3674 1.7297,0.3674 2.4645,0 2.0782,-1.0392 2.9957,-3.6402 4.929,-4.929 1.5284,-1.019 3.4006,-1.4456 4.929,-2.4645 1.2035,-0.8024 9.0556,-8.6545 9.858,-9.858 5.4297,-1.2411 1.3027,-5.07 2.4645,-7.3935 0.5196,-1.0392 1.8201,-1.4979 2.4645,-2.4645 1.0189,-1.5285 1.643,-3.286 2.4645,-4.929 2.9877,-5.9755 5.635,-11.9728 9.858,-17.2515 1.4515,-1.8144 3.5349,-3.0702 4.929,-4.929 1.1022,-1.4696 1.317,-3.4946 2.4645,-4.929 2.903,-3.6288 6.572,-6.572 9.858,-9.858 1.643,-1.643 3.286,-3.286 4.929,-4.929 0.8215,-0.8215 1.4254,-1.945 2.4645,-2.4645 2.3236,-1.1618 4.9815,-1.4997 7.3935,-2.4645 1.7056,-0.6823 4.929,-0.6276 4.929,-2.4645 0,-1.643 -3.286,0 -4.929,0 -0.8215,0 -1.643,0 -2.4645,0 -12.3225,0 -24.645,0 -36.9675,0 -4.1075,0 -8.2401,0.4536 -12.3225,0 -10.9327,-1.2148 -8.2661,-3.383 -22.1805,-4.929 -3.2659,-0.3629 -6.572,0 -9.858,0 -3.286,-0.8215 -6.517,-1.9077 -9.858,-2.4645 -1.6207,-0.2702 -3.286,0 -4.929,0 -2.4645,0 -4.929,0 -7.3935,0 -8.215,0 -16.43,0 -24.645,0 -4.1075,0 -8.2948,0.8055 -12.3225,0 -1.8013,-0.3603 -3.2235,-1.7823 -4.929,-2.4645 -2.412,-0.9649 -4.929,-1.6431 -7.3935,-2.4646 -26.8036,-8.9345 6.4945,1.299 -12.3225,-2.4645 -5.0948,-1.0189 -9.7465,-3.6688 -14.787,-4.929 -0.797,-0.1992 -1.6852,0.2598 -2.4645,0 -1.7427,-0.5808 -3.1278,-2.1042 -4.929,-2.4645 -2.4167,-0.4833 -4.929,0 -7.3935,0 -6.8344,0 3.934,0.3674 -7.3935,-2.4645 -1.9387,-0.4846 -12.2242,0 -14.7871,0 -5.7505,0 -11.501,0 -17.2515,0 -3.286,0 -6.6358,0.6445 -9.858,0 -2.5473,-0.5094 -4.8461,-1.955 -7.3935,-2.4645 -1.6111,-0.3222 -3.3703,0.5196 -4.929,0 -1.1021,-0.3673 -1.643,-1.643 -2.4645,-2.4645 -2.4645,-0.8215 -4.8732,-1.8344 -7.3935,-2.4645 -0.7969,-0.1992 -1.643,0 -2.4645,0 -1.643,0 -3.286,0 -4.929,0 -4.929,0 -9.858,0 -14.787,0 -18.8945,0 -37.789,0 -56.6835,0"
                 id="path116"
                 inkscape:connector-curvature="0" />
              <text
                 xml:space="preserve"
                 style="font-style:normal;font-weight:normal;font-size:40px;line-height:1.25;font-family:sans-serif;letter-spacing:0px;word-spacing:0px;fill:#000000;fill-opacity:1;stroke:none"
                 x="2147.5532"
                 y="201.13031"
                 id="text124"><tspan
                   sodipodi:role="line"
                   id="tspan122"
                   x="2147.5532"
                   y="237.16049"></tspan></text>
              <text
                 xml:space="preserve"
                 style="font-style:normal;font-weight:normal;font-size:40px;line-height:1.25;font-family:sans-serif;letter-spacing:0px;word-spacing:0px;fill:#000000;fill-opacity:1;stroke:none"
                 x="2160.7861"
                 y="216.52202"
                 id="text214"><tspan
                   sodipodi:role="line"
                   id="tspan212"
                   x="2160.7861"
                   y="216.52202">Test 1</tspan></text>
              <text
                 xml:space="preserve"
                 style="font-style:normal;font-weight:normal;font-size:40px;line-height:1.25;font-family:sans-serif;letter-spacing:0px;word-spacing:0px;fill:#000000;fill-opacity:1;stroke:none"
                 x="2045.0099"
                 y="439.8598"
                 id="text214-6"><tspan
                   sodipodi:role="line"
                   id="tspan212-3"
                   x="2045.0099"
                   y="439.8598">Test 2</tspan></text>
              <text
                 xml:space="preserve"
                 style="font-style:normal;font-weight:normal;font-size:40px;line-height:1.25;font-family:sans-serif;letter-spacing:0px;word-spacing:0px;fill:#000000;fill-opacity:1;stroke:none"
                 x="2143.1416"
                 y="675.49646"
                 id="text236"><tspan
                   sodipodi:role="line"
                   id="tspan234"
                   x="2143.1416"
                   y="675.49646">Test 3</tspan></text>
              <text
                 xml:space="preserve"
                 style="font-style:normal;font-weight:normal;font-size:40px;line-height:1.25;font-family:sans-serif;letter-spacing:0px;word-spacing:0px;fill:#000000;fill-opacity:1;stroke:none"
                 x="2053.3943"
                 y="961.29358"
                 id="text240"><tspan
                   sodipodi:role="line"
                   id="tspan238"
                   x="2053.3943"
                   y="961.29358">Test 4</tspan></text>
              <text
                 xml:space="preserve"
                 style="font-style:normal;font-weight:normal;font-size:40px;line-height:1.25;font-family:sans-serif;letter-spacing:0px;word-spacing:0px;fill:#000000;fill-opacity:1;stroke:none"
                 x="2064.7217"
                 y="1220.9507"
                 id="text244"><tspan
                   sodipodi:role="line"
                   id="tspan242"
                   x="2064.7217"
                   y="1220.9507">Test 5</tspan></text>
              <text
                 xml:space="preserve"
                 style="font-style:normal;font-weight:normal;font-size:40px;line-height:1.25;font-family:sans-serif;letter-spacing:0px;word-spacing:0px;fill:#000000;fill-opacity:1;stroke:none"
                 x="3682.937"
                 y="210.98831"
                 id="text248"><tspan
                   sodipodi:role="line"
                   id="tspan246"
                   x="3682.937"
                   y="210.98831">Test 1</tspan></text>
              <text
                 xml:space="preserve"
                 style="font-style:normal;font-weight:normal;font-size:40px;line-height:1.25;font-family:sans-serif;letter-spacing:0px;word-spacing:0px;fill:#000000;fill-opacity:1;stroke:none"
                 x="3584.3569"
                 y="974.98352"
                 id="text252"><tspan
                   sodipodi:role="line"
                   id="tspan250"
                   x="3584.3569"
                   y="974.98352">Test 4</tspan></text>
              <text
                 xml:space="preserve"
                 style="font-style:normal;font-weight:normal;font-size:40px;line-height:1.25;font-family:sans-serif;letter-spacing:0px;word-spacing:0px;fill:#000000;fill-opacity:1;stroke:none;opacity:0.502;"
                 x="3581.8926"
                 y="1199.2532"
                 id="text256"><tspan
                   sodipodi:role="line"
                   id="tspan254"
                   x="3581.8926"
                   y="1199.2532">Test 5</tspan></text>
              <path
                 style="fill:none;stroke:#000000;stroke-width:10;stroke-linecap:butt;stroke-linejoin:miter;stroke-opacity:1;stroke-miterlimit:4;stroke-dasharray:none"
                 d="m 3722.8674,420.52816 c 10.5146,2.10291 5.9034,0.80601 13.9414,3.48533 1.7426,0.58089 3.416,1.44067 5.2279,1.74266 1.719,0.28649 3.5192,-0.34176 5.228,0 1.2737,0.25474 2.2117,1.48793 3.4854,1.74267 1.7088,0.34176 3.5191,-0.34177 5.228,0 2.5473,0.50947 4.4504,2.85527 6.9706,3.48533 1.1562,0.28905 8.9776,0 10.456,0 1.1618,0 2.3583,-0.28177 3.4854,0 1.2601,0.31503 2.2252,1.42763 3.4853,1.74266 1.1271,0.28177 2.3461,-0.22784 3.4853,0 1.8013,0.36025 3.4853,1.16178 5.228,1.74267 1.7427,0.58089 3.4853,1.16177 5.228,1.74266 1.7427,0.58089 3.4161,1.44068 5.228,1.74267 1.719,0.28649 3.5748,-0.55108 5.228,0 1.9869,0.66231 3.2834,2.70748 5.228,3.48533 1.6651,0.66604 8.3377,-0.52957 10.456,0 1.2601,0.31503 2.2252,1.42763 3.4853,1.74266 1.1271,0.28178 2.3832,-0.36738 3.4853,0 0.7794,0.25978 0.9457,1.54343 1.7427,1.74267 1.6906,0.42266 3.5374,-0.42266 5.228,0 0.797,0.19924 1.1618,1.16178 1.7427,1.74266 1.7426,0.58089 3.4267,1.38242 5.228,1.74267 1.1392,0.22784 2.3582,-0.28177 3.4853,0 1.2601,0.31503 2.2793,1.26026 3.4853,1.74266 1.7056,0.68222 3.5225,1.06045 5.228,1.74267 2.412,0.9648 4.4504,2.85527 6.9707,3.48533 11.5594,0 -2.4645,-0.8215 5.228,1.74266 1.1021,0.36739 2.3831,-0.36738 3.4853,0 0.7793,0.25979 0.9633,1.48289 1.7427,1.74267 1.1021,0.36739 2.3831,-0.36739 3.4853,0 0.7793,0.25978 0.9633,1.48288 1.7427,1.74266 1.1021,0.36739 2.3582,-0.28177 3.4853,0 1.1304,0.2826 9.3454,4.48763 10.456,5.228 1.367,0.91137 2.1709,2.49953 3.4853,3.48533 17.2811,12.96082 -3.4501,-2.88094 8.7133,5.228 0.6836,0.45568 1.0855,1.24976 1.7427,1.74266 1.6755,1.25665 3.5525,2.22868 5.228,3.48533 3.7994,2.84952 -0.7918,1.07741 5.228,3.48533 1.7055,0.68222 3.585,0.92117 5.228,1.74267 0.7348,0.36738 1.1618,1.16177 1.7427,1.74266 1.1617,0.58089 2.2793,1.26026 3.4853,1.74267 3.5424,1.41698 5.6482,1.4419 8.7133,3.48533 0.6835,0.45568 1.1618,1.16177 1.7427,1.74266 1.7426,1.74267 3.4853,3.48533 5.228,5.228 0.5809,0.58089 1.0079,1.37528 1.7426,1.74266 2.4038,1.20188 1.5588,-2.11046 3.4854,1.74267 0.2597,0.51956 0,1.16177 0,1.74266 0.5809,1.16178 1.0221,2.40458 1.7426,3.48533 2.1534,3.23013 1.7427,0.15982 1.7427,3.48533 0,0.58089 0.1837,1.19159 0,1.74267 -1.5843,4.75278 -3.9142,5.77089 -8.7133,6.97066 -0.5636,0.14088 -1.1916,-0.18369 -1.7427,0 -1.2322,0.41075 -2.2531,1.33191 -3.4853,1.74266 -0.5511,0.1837 -1.1916,-0.18369 -1.7427,0 -1.4896,0.49656 -5.481,2.98878 -6.9706,3.48533 -0.5511,0.1837 -1.1916,-0.18369 -1.7427,0 -1.2323,0.41075 -2.2531,1.33192 -3.4853,1.74267 -0.5511,0.18369 -1.1618,0 -1.7427,0 -1.1618,0.58089 -2.2531,1.33191 -3.4853,1.74266 -1.5684,0.5228 -3.6596,-0.5228 -5.228,0 -0.7794,0.25979 -1.0079,1.37528 -1.7427,1.74267 -1.0391,0.51956 -2.3832,-0.36739 -3.4853,0 -1.2323,0.41075 -2.2531,1.33191 -3.4854,1.74266 -1.1021,0.36739 -2.3831,-0.36738 -3.4853,0 -1.2322,0.41075 -2.2531,1.33192 -3.4853,1.74267 -0.5511,0.18369 -1.1916,-0.18369 -1.7427,0 -1.2322,0.41075 -2.2531,1.33191 -3.4853,1.74266 -0.5511,0.1837 -1.1916,-0.18369 -1.7427,0 -1.2322,0.41075 -2.2531,1.33192 -3.4853,1.74267 -1.1022,0.36739 -2.3832,-0.36739 -3.4853,0 -9.8734,4.9367 2.5978,-0.64945 -6.9707,1.74267 -1.2601,0.31503 -2.2252,1.42763 -3.4853,1.74266 -2.2542,0.56354 -4.6923,-0.45569 -6.9707,0 -1.8013,0.36025 -3.4853,1.16178 -5.228,1.74267 -2.3235,0 -4.6704,-0.3286 -6.9706,0 -1.8185,0.25978 -3.4096,1.48288 -5.228,1.74266 -2.3002,0.3286 -4.6705,-0.3286 -6.9707,0 -1.8185,0.25978 -3.4095,1.48288 -5.228,1.74267 -2.9698,0.42426 -9.2288,-0.42427 -12.1987,0 -4.7419,0.67742 -9.1993,2.8079 -13.9413,3.48533 -1.7251,0.24645 -3.5028,-0.24645 -5.228,0 -2.371,0.33871 -4.5941,1.44559 -6.9706,1.74266 -2.3056,0.2882 -4.6471,0 -6.9707,0 -6.9707,0 -13.9413,0 -20.912,0 -18.5884,0 -37.1768,0 -55.7653,0 -12.1986,0 -24.3973,0 -36.5959,0 -3.4854,0 -6.9707,0 -10.456,0 -3.4853,0 -6.985,0.31555 -10.456,0 -19.8996,-1.80905 2.6112,-1.22042 -17.4267,-5.22799 -2.848,-0.56961 -5.8233,0.289 -8.7133,0 -5.4703,0.0998 -10.3612,-2.89392 -15.684,-3.48533 -2.8866,-0.32075 -5.8233,0.289 -8.7133,0 -27.6856,-2.76856 7.6023,-0.57456 -15.684,-3.48533 -2.3056,-0.28821 -4.795,0.81585 -6.9706,0 -2.7196,-1.01982 -4.3011,-4.08388 -6.9707,-5.228 -1.6018,-0.68647 -3.5268,0.37804 -5.228,0 -15.1562,-3.36805 -5.9439,-2.02902 -13.9413,-5.228 -1.7056,-0.68221 -3.5225,-1.06044 -5.228,-1.74266 -2.7148,-1.08592 -6.6676,-3.59144 -8.7133,-5.228 -2.566,-2.05274 -4.6471,-4.6471 -6.9707,-6.97066 -1.1618,-1.16177 -2.3236,-2.32355 -3.4853,-3.48533 -0.5809,-0.58089 -1.4829,-0.96332 -1.7427,-1.74266 -0.2505,-0.75162 0,-11.51726 0,-12.19866 0,-3.48533 0,-6.97066 0,-10.45599 0,-1.74266 0,-3.48533 0,-5.22799 0,-1.16178 -0.4315,-2.40665 0,-3.48533 0.7779,-1.94463 2.823,-3.24106 3.4853,-5.228 0.5511,-1.65324 -0.3417,-3.51917 0,-5.228 0.2548,-1.27368 1.2603,-2.27932 1.7427,-3.48533 0.6822,-1.70554 1.1618,-3.48533 1.7427,-5.22799 1.1617,-1.74267 2.5486,-3.35469 3.4853,-5.228 0.2598,-0.51956 -0.1837,-1.19158 0,-1.74266 4.2076,-12.62285 -0.5024,2.7475 3.4853,-5.228 0.2598,-0.51956 -0.2598,-1.2231 0,-1.74266 0.2314,-0.4627 4.7653,-4.99665 5.228,-5.228 0.5196,-0.25978 1.1916,0.1837 1.7427,0 1.2322,-0.41075 2.2252,-1.42763 3.4853,-1.74266 1.1271,-0.28177 2.3832,0.36738 3.4853,0 0.7794,-0.25978 0.9634,-1.48289 1.7427,-1.74267 1.1022,-0.36738 2.3583,0.28177 3.4853,0 1.2602,-0.31503 2.2531,-1.33191 3.4854,-1.74266 0.551,-0.1837 1.1916,0.18369 1.7426,0 1.2323,-0.41075 2.2252,-1.42764 3.4854,-1.74267 2.8177,-0.70443 5.8653,0.56961 8.7133,0 1.2737,-0.25473 2.2116,-1.48793 3.4853,-1.74266 1.7088,-0.34177 3.4854,0 5.228,0 1.7427,0 3.4853,0 5.228,0 6.3898,0 12.7796,0 19.1693,0 1.7427,0 3.4854,0 5.228,0 1.1618,0 2.3461,0.22784 3.4854,0 9.6453,-1.92907 0.6489,-2.04162 12.1986,-3.48533 4.0348,-0.50436 8.1324,0 12.1987,0 2.3235,0 4.6471,0 6.9706,0 2.3236,0 4.6651,-0.2882 6.9707,0 2.3766,0.29707 4.6471,1.16177 6.9706,1.74266 2.3236,0.58089 4.6472,1.16178 6.9707,1.74267 4.6471,1.16177 9.2164,2.69784 13.9413,3.48533 1.146,0.19099 2.3461,-0.22785 3.4854,0 1.8012,0.36025 3.4459,1.29714 5.228,1.74266 1.4441,0.36104 6.8782,0 8.7133,0 0.5809,0 1.1618,0 1.7426,0 0.5809,0 1.2231,-0.25978 1.7427,0 4.3068,2.15342 -0.6015,1.74267 3.4853,1.74267"
                 id="path288"
                 inkscape:connector-curvature="0" />
              <text
                 xml:space="preserve"
                 style="font-style:normal;font-weight:normal;font-size:40px;line-height:1.25;font-family:sans-serif;letter-spacing:0px;word-spacing:0px;fill:#000000;fill-opacity:1;stroke:none"
                 x="3639.2195"
                 y="495.46277"
                 id="text292"><tspan
                   sodipodi:role="line"
                   id="tspan290"
                   x="3639.2195"
                   y="495.46277">Test 2</tspan></text>
              <path
                 style="fill:none;stroke:#000000;stroke-width:1px;stroke-linecap:butt;stroke-linejoin:miter;stroke-opacity:1;opacity:0.502"
                 d="m 3728.0954,673.2146 c 1.6779,-5.19562 6.1155,1.29891 8.7134,0 0.7347,-0.36739 1.0078,-1.37528 1.7426,-1.74267 1.0391,-0.51956 2.4462,0.51957 3.4853,0 0.7348,-0.36738 1.0079,-1.37527 1.7427,-1.74266 1.3941,-0.69707 3.8339,0.69707 5.228,0 0.7348,-0.36739 1.0079,-1.37528 1.7427,-1.74267 0.9004,-0.45021 9.5681,0.14798 10.456,0 1.8119,-0.30199 3.4095,-1.48288 5.228,-1.74266 2.3002,-0.3286 4.6471,0 6.9706,0 4.6471,0 9.2942,0 13.9413,0 10.456,0 20.912,0 31.368,0 13.9413,0 27.8827,0 41.824,0 5.228,0 10.456,0 15.684,0 1.7426,0 3.5191,-0.34177 5.228,0 1.2736,0.25474 2.2793,1.26026 3.4853,1.74266 1.7055,0.68222 3.5224,1.06045 5.228,1.74267 1.206,0.4824 2.2252,1.42763 3.4853,1.74266 1.1271,0.28178 2.3461,-0.22784 3.4853,0 1.8013,0.36026 3.4854,1.16178 5.228,1.74267 1.7427,0.58089 3.5225,1.06045 5.228,1.74266 1.206,0.48241 2.2531,1.33192 3.4854,1.74267 2.0596,5.74548 5.9033,0.80601 8.7133,1.74267 1.2322,0.41075 2.2793,1.26026 3.4853,1.74266 1.7056,0.68222 3.5225,1.06045 5.228,1.74267 2.412,0.9648 4.6471,2.32355 6.9707,3.48533 1.1618,0.58088 2.4462,0.96332 3.4853,1.74266 1.3144,0.9858 2.3236,2.32355 3.4853,3.48533 1.1618,1.16178 2.574,2.11827 3.4854,3.48533 2.0024,3.00367 1.7426,2.63419 1.7426,5.228 0,0.58089 -0.1837,1.19158 0,1.74266 0.8215,2.4645 2.6639,4.50616 3.4854,6.97066 0.3673,1.10216 -0.5196,2.44621 0,3.48533 0.3673,0.73477 1.3752,1.0079 1.7426,1.74267 0.2652,0.53035 0,4.44317 0,5.22799 0,1.64131 0.3305,7.72199 0,8.71333 -0.2598,0.77934 -1.3753,1.00789 -1.7426,1.74266 -0.2598,0.51957 0,1.16178 0,1.74267 -0.5809,0.58089 -1.3753,1.00789 -1.7427,1.74266 -0.5497,1.0994 0.5497,7.61394 0,8.71333 -5.7797,5.77969 0.8215,-1.643 -1.7427,3.48533 -1.0456,2.0912 -4.1824,3.1368 -5.228,5.228 -1.2018,2.40375 2.1105,1.55876 -1.7426,3.48533 -0.5196,0.25978 -1.2231,-0.25979 -1.7427,0 -0.7348,0.36738 -1.0079,1.37527 -1.7427,1.74266 -0.5195,0.25978 -1.3319,-0.41075 -1.7426,0 -3.4584,3.45841 8.2528,0.5508 -3.4854,3.48533 -1.127,0.28177 -2.3582,-0.28177 -3.4853,0 -1.2601,0.31503 -2.2252,1.42764 -3.4853,1.74267 -1.1271,0.28177 -2.3583,-0.28178 -3.4853,0 -8.0905,4.0452 1.003,0.14792 -6.9707,1.74266 -9.0657,1.81314 -1.7427,1.16178 -8.7133,3.48533 -0.5511,0.18369 -1.1792,-0.14088 -1.7427,0 -14.5051,3.62628 2.1036,-0.1203 -8.7133,3.48533 -0.5511,0.18369 -1.1618,0 -1.7427,0 -3.4853,0 -6.9706,0 -10.456,0 -0.5809,0 -1.1791,-0.14088 -1.7426,0 -1.7821,0.44552 -3.4268,1.38242 -5.228,1.74267 -2.2785,0.45568 -4.7664,-0.73478 -6.9707,0 -0.7793,0.25978 -0.9633,1.48288 -1.7427,1.74266 -0.8466,0.28221 -10.4194,0 -12.1986,0 -8.1325,0 -16.2649,0 -24.3973,0 -29.0444,0 -58.0889,0 -87.1333,0 -22.0737,0 -44.1475,0 -66.2213,0 -9.8751,0 -19.7502,0 -29.6253,0 -4.0662,0 -8.1324,0 -12.1986,0 -1.1618,0 -2.3583,0.28177 -3.4854,0 -1.2601,-0.31503 -2.2252,-1.42763 -3.4853,-1.74266 -1.1271,-0.28178 -2.3832,0.36738 -3.4853,0 -0.7794,-0.25978 -1.0592,-1.28698 -1.7427,-1.74267 -1.0807,-0.7205 -2.3235,-1.16178 -3.4853,-1.74266 -1.1618,-0.58089 -2.2531,-1.33192 -3.4853,-1.74267 -0.5511,-0.18369 -1.1916,0.18369 -1.7427,0 -1.2323,-0.41075 -2.3236,-1.16178 -3.4853,-1.74266 -1.1618,-0.58089 -2.4046,-1.02217 -3.4854,-1.74267 -0.6835,-0.45569 -1.0591,-1.28698 -1.7426,-1.74266 -1.0808,-0.72051 -2.4046,-1.02217 -3.4854,-1.74267 -2.0506,-1.36706 -3.2564,-3.74929 -5.228,-5.22799 -1.0391,-0.77935 -2.4462,-0.96333 -3.4853,-1.74267 -1.9716,-1.4787 -3.4853,-3.48533 -5.228,-5.22799 -1.7426,-1.74267 -3.4853,-3.48534 -5.228,-5.228 -0.5809,-0.58089 -1.287,-1.05914 -1.7426,-1.74267 -0.7205,-1.08075 -0.9634,-2.4462 -1.7427,-3.48533 -0.9858,-1.3144 -2.4995,-2.17093 -3.4853,-3.48533 -0.7794,-1.03912 -1.0744,-2.37152 -1.7427,-3.48533 -1.0776,-1.79595 -2.2287,-3.55245 -3.4853,-5.22799 -0.4929,-0.6572 -1.4829,-0.96332 -1.7427,-1.74267 -0.3674,-1.10215 0.3674,-2.38317 0,-3.48533 -0.5196,-1.55868 -2.9658,-1.92664 -3.4853,-3.48533 -0.5228,-1.5684 0.5228,-3.65959 0,-5.22799 -0.4108,-1.23225 -1.3319,-2.25308 -1.7427,-3.48533 -0.3277,-0.98321 0,-4.08288 0,-5.228 0,-1.1157 -0.1974,-10.15994 0,-10.45599 0.9114,-1.36706 2.0158,-2.75056 3.4853,-3.48533 1.0392,-0.51956 2.3583,0.28177 3.4854,0 1.2601,-0.31503 2.3235,-1.16178 3.4853,-1.74266 1.7427,-0.58089 3.4267,-1.38242 5.228,-1.74267 1.1392,-0.22784 2.3461,0.22784 3.4853,0 3.4995,0.39991 5.6786,-2.72663 8.7133,-3.48533 1.1271,-0.28177 2.3462,0.22784 3.4854,0 14.3283,-4.77611 -3.6739,0.61231 10.456,-1.74266 17.3616,-2.89361 -9.4119,-0.78402 12.1986,-3.48534 21.3426,0 -5.1434,0.73478 12.1987,-1.74266 2.3002,-0.3286 4.6704,0.3286 6.9706,0 1.8185,-0.25978 3.4096,-1.48288 5.228,-1.74267 4.0254,-0.57505 8.1878,0.66849 12.1987,0 1.8119,-0.30198 3.4161,-1.44067 5.228,-1.74266 1.7189,-0.28649 3.4853,0 5.228,0 2.3235,0 4.6471,0 6.9706,0 7.5516,0 15.1031,0 22.6547,0 5.8089,0 11.6178,0 17.4266,0 1.1618,0 2.3236,0 3.4854,0 1.1617,0 2.3682,-0.31917 3.4853,0 3.0078,0.85938 5.5851,3.48533 8.7133,3.48533 4.7902,0 9.2442,-2.54591 13.9413,-3.48533 1.1393,-0.22784 2.3236,0 3.4854,0 1.1618,0 2.3582,-0.28177 3.4853,0 1.2601,0.31503 2.2252,1.42763 3.4853,1.74266 1.1271,0.28178 2.3832,-0.36738 3.4854,0 0.7793,0.25979 1.0079,1.37528 1.7426,1.74267 0.5196,0.25978 1.1916,-0.18369 1.7427,0 1.2322,0.41075 2.2531,1.33191 3.4853,1.74266 3.0581,1.01936 1.6547,-1.83061 5.228,1.74267"
                 id="path294"
                 inkscape:connector-curvature="0" />
              <text
                 xml:space="preserve"
                 style="font-style:normal;font-weight:normal;font-size:40px;line-height:1.25;font-family:sans-serif;letter-spacing:0px;word-spacing:0px;fill:#000000;fill-opacity:1;stroke:none;opacity:0.502;"
                 x="3677.5581"
                 y="737.69324"
                 id="text298"><tspan
                   sodipodi:role="line"
                   id="tspan296"
                   x="3677.5581"
                   y="737.69324">Test 3</tspan></text>
            </g>
          </g>
        </g>
      </g>
    </g>
  </g>
</svg>
