<?xml version="1.0" encoding="UTF-8" standalone="no"?>
<svg
   xmlns:dc="http://purl.org/dc/elements/1.1/"
   xmlns:cc="http://creativecommons.org/ns#"
   xmlns:rdf="http://www.w3.org/1999/02/22-rdf-syntax-ns#"
   xmlns:svg="http://www.w3.org/2000/svg"
   xmlns="http://www.w3.org/2000/svg"
   xmlns:sodipodi="http://sodipodi.sourceforge.net/DTD/sodipodi-0.dtd"
   xmlns:inkscape="http://www.inkscape.org/namespaces/inkscape"
   width="384.8515"
   height="48"
   viewBox="0 0 384.8515 48"
   version="1.1"
   id="svg1477"
   sodipodi:docname="github-actions.svg"
   style="fill:none"
   inkscape:version="0.92.3 (2405546, 2018-03-11)">
  <metadata
     id="metadata1483">
    <rdf:RDF>
      <cc:Work
         rdf:about="">
        <dc:format>image/svg+xml</dc:format>
        <dc:type
           rdf:resource="http://purl.org/dc/dcmitype/StillImage" />
        <dc:title></dc:title>
      </cc:Work>
    </rdf:RDF>
  </metadata>
  <defs
     id="defs1481" />
  <sodipodi:namedview
     pagecolor="#ffffff"
     bordercolor="#666666"
     borderopacity="1"
     objecttolerance="10"
     gridtolerance="10"
     guidetolerance="10"
     inkscape:pageopacity="0"
     inkscape:pageshadow="2"
     inkscape:window-width="1920"
     inkscape:window-height="1022"
     id="namedview1479"
     showgrid="false"
     showguides="true"
     inkscape:guide-bbox="true"
     fit-margin-top="0"
     fit-margin-left="0"
     fit-margin-right="0"
     fit-margin-bottom="0"
     inkscape:zoom="2.8284271"
     inkscape:cx="160.12893"
     inkscape:cy="15.703583"
     inkscape:window-x="0"
     inkscape:window-y="30"
     inkscape:window-maximized="1"
     inkscape:current-layer="svg1477">
    <sodipodi:guide
       position="43.525424,30.000001"
       orientation="0,1"
       id="guide2310"
       inkscape:locked="false" />
  </sodipodi:namedview>
  <g
     id="g2308">
    <path
       id="path1449"
       d="m 10,1 c 4.9707,0 9,4.02932 9,9 0,4.9707 -4.0293,9 -9,9 C 5.02932,19 1,14.9707 1,10 1,5.02932 5.02932,1 10,1 Z"
       inkscape:connector-curvature="0"
       style="clip-rule:evenodd;fill-rule:evenodd;stroke:#2088ff;stroke-width:2;stroke-linecap:round;stroke-linejoin:round" />
    <path
       id="path1451"
       d="m 23,19 c 3.3137,0 6,2.6863 6,6 0,3.3137 -2.6863,6 -6,6 -3.3137,0 -6,-2.6863 -6,-6 0,-3.3137 2.6863,-6 6,-6 z"
       inkscape:connector-curvature="0"
       style="clip-rule:evenodd;fill-rule:evenodd;stroke:#2088ff;stroke-width:2;stroke-linecap:round;stroke-linejoin:round" />
    <path
       id="path1453"
       d="m 23,35 c 3.3137,0 6,2.6863 6,6 0,3.3137 -2.6863,6 -6,6 -3.3137,0 -6,-2.6863 -6,-6 0,-3.3137 2.6863,-6 6,-6 z"
       inkscape:connector-curvature="0"
       style="clip-rule:evenodd;fill-rule:evenodd;stroke:#2088ff;stroke-width:2;stroke-linecap:round;stroke-linejoin:round" />
    <path
       id="path1455"
       d="m 41,35 c 3.3137,0 6,2.6863 6,6 0,3.3137 -2.6863,6 -6,6 -3.3137,0 -6,-2.6863 -6,-6 0,-3.3137 2.6863,-6 6,-6 z"
       inkscape:connector-curvature="0"
       style="clip-rule:evenodd;fill-rule:evenodd;stroke:#79b8ff;stroke-width:2;stroke-linecap:round;stroke-linejoin:round" />
    <path
       id="path1457"
       d="M 25.0365,23.6069 21.9673,26.672 20.4766,25.1866"
       inkscape:connector-curvature="0"
       style="stroke:#2088ff;stroke-width:2;stroke-linecap:round;stroke-linejoin:round" />
    <path
       id="path1459"
       d="m 41,19 c 3.3137,0 6,2.6863 6,6 0,3.3137 -2.6863,6 -6,6 -3.3137,0 -6,-2.6863 -6,-6 0,-3.3137 2.6863,-6 6,-6 z"
       inkscape:connector-curvature="0"
       style="clip-rule:evenodd;fill-rule:evenodd;stroke:#2088ff;stroke-width:2;stroke-linecap:round;stroke-linejoin:round" />
    <path
       id="path1461"
       d="M 43.0365,23.6069 39.9673,26.672 38.4766,25.1866"
       inkscape:connector-curvature="0"
       style="stroke:#2088ff;stroke-width:2;stroke-linecap:round;stroke-linejoin:round" />
    <path
       id="path1463"
       d="M 7,6.81201 C 7,6.02498 7.86709,5.54641 8.533,5.9659 l 5.1132,3.22102 c 0.6253,0.3939 0.622,1.30658 -0.006,1.69598 L 8.52697,14.0534 C 7.8608,14.4664 7,13.9873 7,13.2035 Z"
       inkscape:connector-curvature="0"
       style="stroke:#2088ff;stroke-width:2;stroke-linecap:round;stroke-linejoin:round" />
    <path
       id="path1465"
       d="m 9,19 v 15 c 0,3.866 3.1772,7 7,7 h 1"
       inkscape:connector-curvature="0"
       style="stroke:#2088ff;stroke-width:2;stroke-linecap:round;stroke-linejoin:round" />
    <path
       id="path1467"
       d="m 16.949,26 c 0.5523,0 1,-0.4477 1,-1 0,-0.5523 -0.4477,-1 -1,-1 z M 8,19.0352 C 8,22.8817 11.1183,26 14.9648,26 V 24 C 12.2228,24 10,21.7772 10,19.0352 Z M 14.9648,26 h 1.9842 v -2 h -1.9842 z"
       inkscape:connector-curvature="0"
       style="fill:#2088ff" />
    <path
       id="path1469"
       d="m 29.0547,25 h 5.9446"
       inkscape:connector-curvature="0"
       style="stroke:#2088ff;stroke-width:2;stroke-linecap:round;stroke-linejoin:round" />
    <path
       id="path1471"
       d="m 21,40 c 0.5518,0 1,0.4482 1,1 0,0.5526 -0.4482,1 -1,1 -0.5518,0 -1,-0.4474 -1,-1 0,-0.5518 0.4482,-1 1,-1 z"
       inkscape:connector-curvature="0"
       style="clip-rule:evenodd;fill:#79b8ff;fill-rule:evenodd" />
    <path
       id="path1473"
       d="m 25,40 c 0.5518,0 1,0.4482 1,1 0,0.5526 -0.4482,1 -1,1 -0.5518,0 -1,-0.4474 -1,-1 0,-0.5518 0.4482,-1 1,-1 z"
       inkscape:connector-curvature="0"
       style="clip-rule:evenodd;fill:#79b8ff;fill-rule:evenodd" />
    <path
       id="path1475"
       d="m 34.0048,41.0069 -1.0126,0.033"
       inkscape:connector-curvature="0"
       style="stroke:#79b8ff;stroke-width:2;stroke-linecap:round" />
  </g>
  <text
     xml:space="preserve"
     style="font-style:normal;font-weight:normal;font-size:36.29879379px;line-height:1.25;font-family:sans-serif;letter-spacing:0px;word-spacing:0px;fill:#000000;fill-opacity:1;stroke:none;stroke-width:0.90746987"
     x="73.919014"
     y="47.468281"
     id="text1487"><tspan
       sodipodi:role="line"
       id="tspan1485"
       x="73.919014"
       y="47.468281"
       style="font-style:normal;font-variant:normal;font-weight:normal;font-stretch:normal;font-family:'SF Mono';-inkscape-font-specification:'SF Mono 400';fill:#6a737d;fill-opacity:1;stroke-width:0.90746987">GitHub Actions</tspan></text>
</svg>
