<?xml version="1.0" encoding="UTF-8" standalone="no"?>
<svg
   xmlns:dc="http://purl.org/dc/elements/1.1/"
   xmlns:cc="http://creativecommons.org/ns#"
   xmlns:rdf="http://www.w3.org/1999/02/22-rdf-syntax-ns#"
   xmlns:svg="http://www.w3.org/2000/svg"
   xmlns="http://www.w3.org/2000/svg"
   xmlns:sodipodi="http://sodipodi.sourceforge.net/DTD/sodipodi-0.dtd"
   xmlns:inkscape="http://www.inkscape.org/namespaces/inkscape"
   id="Layer_1"
   data-name="Layer 1"
   viewBox="0 0 231.27234 64.033051"
   version="1.1"
   sodipodi:docname="gradle.svg"
   width="231.27234"
   height="64.033051"
   inkscape:version="0.92.3 (2405546, 2018-03-11)">
  <metadata
     id="metadata1242">
    <rdf:RDF>
      <cc:Work
         rdf:about="">
        <dc:format>image/svg+xml</dc:format>
        <dc:type
           rdf:resource="http://purl.org/dc/dcmitype/StillImage" />
        <dc:title>gradle-dark-green-primary</dc:title>
      </cc:Work>
    </rdf:RDF>
  </metadata>
  <sodipodi:namedview
     pagecolor="#ffffff"
     bordercolor="#666666"
     borderopacity="1"
     objecttolerance="10"
     gridtolerance="10"
     guidetolerance="10"
     inkscape:pageopacity="0"
     inkscape:pageshadow="2"
     inkscape:window-width="640"
     inkscape:window-height="480"
     id="namedview1240"
     showgrid="false"
     fit-margin-top="0"
     fit-margin-left="0"
     fit-margin-right="0"
     fit-margin-bottom="0"
     inkscape:zoom="1.1780822"
     inkscape:cx="115.62974"
     inkscape:cy="23.01073"
     inkscape:window-x="0"
     inkscape:window-y="30"
     inkscape:window-maximized="0"
     inkscape:current-layer="Layer_1" />
  <defs
     id="defs1233">
    <style
       id="style1231">.cls-1{fill:#02303a;}</style>
  </defs>
  <title
     id="title1235">gradle-dark-green-primary</title>
  <path
     class="cls-1"
     d="m 124.62974,46.342319 v 13.95 a 18.32,18.32 0 0 1 -5.59,2.83 21.82,21.82 0 0 1 -6.36,0.89 21.08,21.08 0 0 1 -7.64,-1.31 17.12,17.12 0 0 1 -5.819997,-3.68 16.14,16.14 0 0 1 -3.73,-5.58 18.78,18.78 0 0 1 -1.31,-7.08 19.58,19.58 0 0 1 1.26,-7.14 15.68,15.68 0 0 1 9.189997,-9.2 20.39,20.39 0 0 1 7.45,-1.29 22,22 0 0 1 3.92,0.33 20.43,20.43 0 0 1 3.39,0.92 15.16,15.16 0 0 1 2.85,1.42 17.3,17.3 0 0 1 2.39,1.87 l -1.84,2.91 a 1.72,1.72 0 0 1 -1.12,0.84 2,2 0 0 1 -1.5,-0.34 l -1.54,-0.91 a 10.49,10.49 0 0 0 -1.75,-0.79 14.33,14.33 0 0 0 -2.17,-0.54 15.29,15.29 0 0 0 -2.78,-0.22 11.91,11.91 0 0 0 -4.61,0.86 9.66,9.66 0 0 0 -3.52,2.46 10.9,10.9 0 0 0 -2.24,3.84 14.88,14.88 0 0 0 -0.79,5 15.23,15.23 0 0 0 0.85,5.28 11.06,11.06 0 0 0 2.38,3.94 10.15,10.15 0 0 0 3.68,2.42 14.28,14.28 0 0 0 8.25,0.44 17.1,17.1 0 0 0 2.94,-1.09 v -6.21 h -4.35 a 1.3,1.3 0 0 1 -1,-0.35 1.15,1.15 0 0 1 -0.35,-0.85 v -3.62 z m 10.47,-2.93 a 10.53,10.53 0 0 1 2.72,-3.45 5.77,5.77 0 0 1 3.72,-1.25 4.5,4.5 0 0 1 2.72,0.74 l -0.38,4.41 a 1.18,1.18 0 0 1 -0.34,0.61 1,1 0 0 1 -0.61,0.18 6.76,6.76 0 0 1 -1.06,-0.12 8.22,8.22 0 0 0 -1.38,-0.12 5,5 0 0 0 -1.74,0.28 4.37,4.37 0 0 0 -1.37,0.83 5.55,5.55 0 0 0 -1.07,1.3 12.26,12.26 0 0 0 -0.87,1.74 v 15.07 h -5.81 v -24.47 h 3.45 a 1.94,1.94 0 0 1 1.27,0.32 1.9,1.9 0 0 1 0.48,1.16 z m 11.36,-0.84 a 14.49,14.49 0 0 1 10.17,-3.86 9.92,9.92 0 0 1 3.84,0.7 8.06,8.06 0 0 1 2.86,2 8.38,8.38 0 0 1 1.78,3 11.64,11.64 0 0 1 0.61,3.82 v 15.4 h -2.68 a 2.64,2.64 0 0 1 -1.28,-0.25 1.72,1.72 0 0 1 -0.72,-1 l -0.52,-1.77 a 20.25,20.25 0 0 1 -1.82,1.47 10.86,10.86 0 0 1 -1.83,1.06 10.36,10.36 0 0 1 -2,0.66 12,12 0 0 1 -2.4,0.22 9.64,9.64 0 0 1 -2.86,-0.41 6.28,6.28 0 0 1 -2.27,-1.26 5.6,5.6 0 0 1 -1.48,-2.07 7.38,7.38 0 0 1 -0.52,-2.89 5.7,5.7 0 0 1 0.31,-1.85 5.3,5.3 0 0 1 1,-1.75 8.25,8.25 0 0 1 1.83,-1.57 11.17,11.17 0 0 1 2.75,-1.29 23.28,23.28 0 0 1 3.81,-0.9 36.77,36.77 0 0 1 5,-0.41 v -1.44 a 5.35,5.35 0 0 0 -1.05,-3.64 3.83,3.83 0 0 0 -3,-1.18 7.3,7.3 0 0 0 -2.38,0.33 9.39,9.39 0 0 0 -1.65,0.75 l -1.3,0.75 a 2.52,2.52 0 0 1 -1.3,0.34 1.7,1.7 0 0 1 -1.05,-0.32 2.61,2.61 0 0 1 -0.69,-0.76 z m 13.5,10.61 a 31.66,31.66 0 0 0 -4.3,0.45 11,11 0 0 0 -2.79,0.82 3.57,3.57 0 0 0 -1.5,1.17 2.89,2.89 0 0 0 0.47,3.67 3.93,3.93 0 0 0 2.39,0.67 7,7 0 0 0 3.14,-0.66 9.52,9.52 0 0 0 2.59,-2 z m 32.53,-25 v 35.45 h -3.6 a 1.39,1.39 0 0 1 -1.48,-1.07 l -0.5,-2.36 a 12.4,12.4 0 0 1 -3.4,2.74 9.17,9.17 0 0 1 -4.47,1 7.95,7.95 0 0 1 -6.55,-3.26 11.61,11.61 0 0 1 -1.86,-3.87 19.71,19.71 0 0 1 -0.66,-5.34 16.77,16.77 0 0 1 0.74,-5.06 12.21,12.21 0 0 1 2.13,-4 9.88,9.88 0 0 1 3.31,-2.69 9.64,9.64 0 0 1 4.34,-1 8.63,8.63 0 0 1 3.51,0.64 9,9 0 0 1 2.6,1.74 v -12.91 z m -5.86,17.23 a 5.94,5.94 0 0 0 -2.18,-1.72 6.54,6.54 0 0 0 -2.54,-0.5 5.68,5.68 0 0 0 -2.41,0.5 4.87,4.87 0 0 0 -1.87,1.52 7.19,7.19 0 0 0 -1.17,2.57 14.83,14.83 0 0 0 -0.4,3.69 16.34,16.34 0 0 0 0.34,3.63 7.14,7.14 0 0 0 1,2.44 3.79,3.79 0 0 0 1.58,1.36 5,5 0 0 0 2.07,0.41 6,6 0 0 0 3.13,-0.76 9.19,9.19 0 0 0 2.45,-2.17 z m 17.67,-17.22 v 35.44 h -5.89 v -35.44 z m 10.43,23.94 a 11.37,11.37 0 0 0 0.67,3.26 6.54,6.54 0 0 0 1.38,2.27 5.39,5.39 0 0 0 2,1.33 7.26,7.26 0 0 0 2.61,0.44 8.21,8.21 0 0 0 2.47,-0.33 11.51,11.51 0 0 0 1.81,-0.74 c 0.52,-0.27 1,-0.52 1.36,-0.74 a 2.31,2.31 0 0 1 1.13,-0.33 1.21,1.21 0 0 1 1.1,0.55 l 1.73,2.18 a 9.45,9.45 0 0 1 -2.19,1.92 12.18,12.18 0 0 1 -2.54,1.24 14,14 0 0 1 -2.7,0.66 18.78,18.78 0 0 1 -2.65,0.19 12.93,12.93 0 0 1 -4.75,-0.85 10.65,10.65 0 0 1 -3.82,-2.5 11.8,11.8 0 0 1 -2.55,-4.1 15.9,15.9 0 0 1 -0.93,-5.67 13.55,13.55 0 0 1 0.81,-4.71 11.34,11.34 0 0 1 2.33,-3.84 11,11 0 0 1 3.69,-2.59 12.31,12.31 0 0 1 4.93,-1 11.86,11.86 0 0 1 4.27,0.74 9.25,9.25 0 0 1 3.36,2.16 9.84,9.84 0 0 1 2.21,3.48 13,13 0 0 1 0.8,4.71 3.82,3.82 0 0 1 -0.29,1.8 1.19,1.19 0 0 1 -1.1,0.46 z m 11.23,-3.55 a 7.28,7.28 0 0 0 -0.33,-2.16 5.16,5.16 0 0 0 -1,-1.77 4.44,4.44 0 0 0 -1.63,-1.21 5.68,5.68 0 0 0 -2.3,-0.44 5.46,5.46 0 0 0 -4,1.45 7.13,7.13 0 0 0 -1.87,4.13 z M 81.889743,4.0223194 a 13.72,13.72 0 0 0 -19.08,-0.32 1.27,1.27 0 0 0 -0.41,0.93 1.31,1.31 0 0 0 0.38,0.95 l 1.73,1.73 a 1.31,1.31 0 0 0 1.71,0.12 7.78,7.78 0 0 1 4.71,-1.57 7.87,7.87 0 0 1 5.57,13.4299996 c -10.87,10.93 -25.46,-19.60999959 -58.47,-3.9 a 4.48,4.48 0 0 0 -2,6.29 l 5.66,9.79 a 4.49,4.49 0 0 0 6.07,1.67 l 0.14,-0.08 -0.11,0.08 2.51,-1.41 a 57.72,57.72 0 0 0 7.91,-5.89 1.37,1.37 0 0 1 1.8,-0.06 v 0 a 1.29,1.29 0 0 1 0,2 59.79,59.79 0 0 1 -8.27,6.24 l -0.09,0.05 -2.51,1.4 a 7,7 0 0 1 -3.47,0.91 7.19,7.19 0 0 1 -6.23,-3.57 l -5.36,-9.24 c -10.2799996,7.26 -16.5199996,21.25 -13.16999962,38.95 a 1.31,1.31 0 0 0 1.29000002,1.06 h 6.09 a 1.3,1.3 0 0 0 1.34,-1.14 8.94,8.94 0 0 1 17.7299996,0 1.3,1.3 0 0 0 1.27,1.14 h 5.94 a 1.31,1.31 0 0 0 1.3,-1.14 8.93,8.93 0 0 1 17.72,0 1.3,1.3 0 0 0 1.29,1.14 h 5.87 a 1.3,1.3 0 0 0 1.3,-1.28 c 0.14,-8.28 2.37,-17.79 8.74,-22.55 21.99,-16.48 16.2,-30.6099996 11.1,-35.7299996 z m -22.47,24.9199996 -4.2,-2.11 v 0 a 2.64,2.64 0 1 1 4.2,2.12 z"
     id="path1237"
     inkscape:connector-curvature="0"
     style="fill:#02303a" />
</svg>
