<?xml version="1.0" encoding="UTF-8" standalone="no"?>
<svg
   xmlns:dc="http://purl.org/dc/elements/1.1/"
   xmlns:cc="http://creativecommons.org/ns#"
   xmlns:rdf="http://www.w3.org/1999/02/22-rdf-syntax-ns#"
   xmlns:svg="http://www.w3.org/2000/svg"
   xmlns="http://www.w3.org/2000/svg"
   xmlns:xlink="http://www.w3.org/1999/xlink"
   xmlns:sodipodi="http://sodipodi.sourceforge.net/DTD/sodipodi-0.dtd"
   xmlns:inkscape="http://www.inkscape.org/namespaces/inkscape"
   width="112.61301"
   height="38.466011"
   version="1.1"
   id="svg60"
   sodipodi:docname="travis-ci.svg"
   inkscape:version="0.92.3 (2405546, 2018-03-11)">
  <metadata
     id="metadata64">
    <rdf:RDF>
      <cc:Work
         rdf:about="">
        <dc:format>image/svg+xml</dc:format>
        <dc:type
           rdf:resource="http://purl.org/dc/dcmitype/StillImage" />
        <dc:title></dc:title>
      </cc:Work>
    </rdf:RDF>
  </metadata>
  <sodipodi:namedview
     pagecolor="#ffffff"
     bordercolor="#666666"
     borderopacity="1"
     objecttolerance="10"
     gridtolerance="10"
     guidetolerance="10"
     inkscape:pageopacity="0"
     inkscape:pageshadow="2"
     inkscape:window-width="1920"
     inkscape:window-height="1022"
     id="namedview62"
     showgrid="false"
     fit-margin-top="0"
     fit-margin-left="0"
     fit-margin-right="0"
     fit-margin-bottom="0"
     inkscape:zoom="2.8666667"
     inkscape:cx="57.586012"
     inkscape:cy="18.945155"
     inkscape:window-x="0"
     inkscape:window-y="30"
     inkscape:window-maximized="1"
     inkscape:current-layer="svg60" />
  <path
     d="m 47.161012,15.598858 h -4 v -2.07 h 10.435 v 2.07 h -3.984 v 11.776 h -2.452 v -11.784 z m 6.206,1.38 h 2.023 l 0.17,1.84 h 0.077 c 0.743,-1.356 1.84,-2.092 2.95,-2.092 0.536,0 0.866,0.06 1.188,0.215 l -0.43,2.115 a 3.35,3.35 0 0 0 -1.073,-0.169 c -0.827,0 -1.823,0.567 -2.452,2.145 v 6.336 h -2.454 v -10.398 z m 13.048,3.754 c -0.023,-1.11 -0.5,-2.038 -1.885,-2.038 -1.034,0 -2.007,0.46 -2.91,1.01 l -0.896,-1.632 c 1.15,-0.72 2.605,-1.356 4.252,-1.356 2.605,0 3.87,1.586 3.87,4.482 v 6.16 h -1.992 l -0.184,-1.15 h -0.077 c -0.92,0.78 -1.992,1.394 -3.218,1.394 -1.816,0 -3.088,-1.226 -3.088,-3.05 0,-2.222 1.862,-3.386 6.114,-3.854 z m -2.275,4.972 c 0.858,0 1.51,-0.414 2.275,-1.134 v -2.33 c -2.82,0.368 -3.754,1.11 -3.754,2.145 0,0.92 0.613,1.333 1.486,1.333 z m 5.4,-8.734 h 2.475 l 1.655,5.394 0.866,3.14 h 0.077 l 0.896,-3.14 1.655,-5.386 h 2.352 l -3.524,10.39 h -2.836 z m 10.88,-3.195 c 0,-0.827 0.636,-1.394 1.51,-1.394 0.866,0 1.502,0.567 1.502,1.394 0,0.797 -0.636,1.38 -1.502,1.38 -0.866,0 -1.51,-0.582 -1.51,-1.38 z m 0.276,3.195 h 2.452 v 10.404 h -2.452 z m 4.98,7.64 c 0.935,0.72 1.823,1.165 2.88,1.165 1.12,0 1.647,-0.536 1.647,-1.25 0,-0.873 -1.11,-1.256 -2.222,-1.686 -1.364,-0.498 -2.91,-1.28 -2.91,-3.02 0,-1.823 1.456,-3.11 3.792,-3.11 1.433,0 2.605,0.6 3.448,1.25 l -1.126,1.48 c -0.72,-0.536 -1.456,-0.89 -2.298,-0.89 -1.034,0 -1.517,0.5 -1.517,1.15 0,0.797 1.034,1.15 2.145,1.532 1.425,0.536 2.988,1.226 2.988,3.164 0,1.762 -1.425,3.218 -4.045,3.218 -1.417,0 -2.91,-0.613 -3.938,-1.456 l 1.15,-1.563 z m 18.769998,-11.34 c 1.686,0 3.065,0.82 3.938,1.762 l -1.356,1.51 c -0.72,-0.7 -1.502,-1.15 -2.56,-1.15 -2.268,0 -3.892,1.915 -3.892,5.018 0,3.14 1.502,5.057 3.808,5.057 1.226,0 2.145,-0.513 2.927,-1.38 l 1.356,1.502 c -1.11,1.287 -2.55,2.007 -4.306,2.007 -3.51,0 -6.281998,-2.544 -6.281998,-7.125 0,-4.536 2.834998,-7.225 6.399998,-7.225 z m 5.715,0.253 h 2.452 v 13.852 h -2.452 v -13.855 z"
     id="path2"
     inkscape:connector-curvature="0"
     style="fill:#353635" />
  <g
     transform="scale(0.193922)"
     id="g54">
    <path
       d="m 47.78,86.572 c 0,0 -31.118,21.903 -32.335,30.247 l 2.335,-0.48 c 0,0 37.264,-24.7 66.803,-27.7 l 0.67,-3.75 -37.472,1.693 z m 48.85,-3.13 -24.5,17.385 1.325,1.063 c 1,-0.806 43.54,-13.798 43.54,-13.798 l 8.97,-5.623 c -6.018,0.75 -29.322,0.973 -29.322,0.973 z m 21.302,21.028 c 17.405,0 43.495,-17.046 43.495,-17.046 l -8.434,-1.605 c -0.417,0.417 -13.6,-0.462 -13.6,-0.462 l -6.258,-1.738 -14.95,17.036 -1.217,2.956 c 1.075,-0.437 0.965,0.86 0.965,0.86 z m 56.796,54.362 -5.377,1.514 -24.843,-0.537 -15.54,-12.085 -18.784,4.7 -21.726,-1.88 -12.166,13.294 -22.828,6.82 -11.398,-3.534 -0.574,-0.494 5.116,12.527 c 0,0 11.588,12.424 18.06,13.885 6.472,1.461 18.165,-0.105 26.935,-1.463 8.77,-1.358 15.764,-4.5 18.582,-9.603 2.818,-5.103 3.236,-6.578 3.236,-6.578 0,0 8.353,11.797 15.556,13.155 7.203,1.358 28.605,-5.952 28.605,-5.952 0,0 13.05,-3.55 15.346,-8.038 2.296,-4.488 8.353,-19.2 8.353,-19.2 l -6.553,3.48 z m -130.272,10.206 -0.36,-0.166 -2.013,-1.736 2.374,1.902 z"
       id="path4"
       inkscape:connector-curvature="0"
       style="fill:#cb3349" />
    <path
       d="m 195.832,70.085 -0.2,-2.01 -0.215,-1.424 c -1.793,-1.51 -3.83,-2.85 -5.952,-4.07 -2.3,-1.343 -4.704,-2.546 -7.16,-3.663 l -7.46,-3.207 -3.798,-1.477 -3.835,-1.424 8.015,1.74 5.14,1.477 C 168.255,24.372 139.297,3.757 107.68,3.757 c -31.617,0 -60.577,20.615 -72.686,52.27 1.703,-0.532 3.417,-1.03 5.137,-1.477 2.653,-0.682 5.323,-1.294 8.018,-1.74 l -3.84,1.424 -3.809,1.476 c -2.52,1.016 -5.016,2.057 -7.46,3.207 -2.45,1.117 -4.857,2.32 -7.156,3.663 -2.12,1.22 -4.157,2.562 -5.957,4.07 -0.075,0.457 -0.15,0.95 -0.2,1.424 -0.08,0.667 -0.155,1.338 -0.2,2.01 -0.118,1.35 -0.166,2.703 -0.177,4.06 -0.027,2.713 0.156,5.426 0.5,8.1 0.37,2.692 0.864,5.366 1.595,7.95 0.36,1.295 0.768,2.572 1.24,3.808 0.237,0.617 0.495,1.225 0.764,1.816 a 27.84,27.84 0 0 0 0.413,0.864 l 0.172,0.328 0.607,0.3 1.204,0.575 2.368,1.1 a 1.69,1.69 0 0 0 0.123,-0.114 l -2.235,-8.513 c 0.474,-0.13 4.718,-1.225 12.032,-2.617 -0.6,-0.112 -1.186,-0.24 -1.772,-0.38 -1.665,-0.414 -3.31,-0.92 -4.9,-1.564 -0.8,-0.333 -1.568,-0.697 -2.31,-1.115 -0.742,-0.426 -1.472,-0.908 -2.037,-1.548 8.036,2.622 24.64,1.434 39.4,-0.09 13.5,-1.39 27.03,-2.293 40.63,-2.32 13.602,0.027 27.137,0.93 40.63,2.32 14.766,1.525 31.37,2.713 39.405,0.09 -0.564,0.64 -1.293,1.123 -2.035,1.548 a 22.5,22.5 0 0 1 -2.308,1.115 c -1.592,0.645 -3.234,1.15 -4.9,1.564 -0.247,0.06 -0.496,0.113 -0.743,0.166 8.02,1.488 12.69,2.697 13.188,2.83 l -2.138,8.1 1.3,-0.574 1.202,-0.575 0.607,-0.3 0.166,-0.328 a 16.85,16.85 0 0 0 0.419,-0.864 c 0.27,-0.59 0.528,-1.2 0.764,-1.816 0.473,-1.236 0.882,-2.513 1.24,-3.808 0.73,-2.585 1.225,-5.26 1.595,-7.95 0.345,-2.685 0.526,-5.398 0.5,-8.1 -0.01,-1.356 -0.06,-2.7 -0.18,-4.06 z"
       id="path6"
       inkscape:connector-curvature="0"
       style="fill:#f4edae" />
    <path
       d="m 116.787,182.66 -3.186,0.375 -2.06,0.102 -0.242,0.005 1.92,-4.34 3.568,3.857 z m 2.313,2.358 c 3.304,3.272 7.398,5.146 11.904,5.48 -7.57,3.074 -14.702,4.26 -20.197,4.63 -5.478,0.367 -11.032,-0.28 -16.474,-1.77 a 22.39,22.39 0 0 1 1.193,-0.19 c 0.447,-0.054 10.206,-1.327 14.605,-7.868 h 0.413 1.08 c 0.73,0 1.395,-0.06 2.094,-0.087 a 43.69,43.69 0 0 0 4.878,-0.703 l 0.504,0.5 z"
       id="path8"
       inkscape:connector-curvature="0"
       style="fill:#e6ccad" />
    <path
       d="m 128.464,87.07 -1.048,1.343 c -1.933,2.444 -4.614,5.57 -7.794,8.627 l -11.404,-0.177 c -6.46,0 -12.655,0.17 -18.537,0.457 8.3,-3.45 18.296,-6.818 29.1,-8.842 3.158,-0.598 6.4,-1.076 9.674,-1.408 z M 79.82,90.792 c -2.966,2.084 -6.317,4.744 -9.566,7.97 -8.32,0.833 -15.578,1.842 -21.567,2.8 C 57.894,97.33 68.4,93.435 79.82,90.782 Z m 101.66,17.178 -3.384,23.68 -16.212,11.355 -42.283,-4.807 -6.365,-20.96 c -0.15,-0.5 -0.58,-0.885 -1.108,-0.97 -1.567,-0.253 -2.953,-0.382 -4.108,-0.382 -1.155,0 -2.54,0.13 -4.115,0.382 -0.522,0.086 -0.95,0.46 -1.106,0.97 l -6.2,20.45 -42.047,9.357 -16.672,-11.675 -3.283,-26.572 2.176,-1.2 3.475,-0.704 3.094,25.073 a 1.39,1.39 0 0 0 0.586,0.967 l 11.462,8.032 c 0.236,0.16 0.516,0.246 0.795,0.246 0.1,0 0.2,-0.01 0.306,-0.033 l 34.57,-7.692 a 1.47,1.47 0 0 0 0.344,-0.124 1.39,1.39 0 0 0 0.682,-0.827 l 6.225,-20.498 c 1.67,-0.43 5.947,-1.43 9.706,-1.43 3.75,0 8.03,1 9.7,1.43 l 6.225,20.498 c 0.16,0.532 0.624,0.912 1.176,0.977 l 34.57,3.927 c 0.335,0.037 0.677,-0.05 0.952,-0.242 l 11.47,-8.025 a 1.44,1.44 0 0 0 0.573,-0.946 l 3.062,-21.42 5.733,1.172 z m 4.27,-14.85 -2.976,11.3 c -6.086,-1.342 -19.456,-3.975 -37.654,-5.747 5.946,-2.535 12,-5.715 17.53,-9.7 10.83,1.53 18.78,3.17 23.1,4.147 z"
       id="path10"
       inkscape:connector-curvature="0"
       style="fill:#656c67" />
    <g
       id="g16"
       style="fill:#e5caa3">
      <use
         xlink:href="#B"
         id="use12"
         x="0"
         y="0"
         width="100%"
         height="100%" />
      <use
         xlink:href="#C"
         id="use14"
         x="0"
         y="0"
         width="100%"
         height="100%" />
    </g>
    <g
       id="g22"
       style="fill:#c7b39a">
      <use
         xlink:href="#B"
         id="use18"
         x="0"
         y="0"
         width="100%"
         height="100%" />
      <use
         xlink:href="#C"
         id="use20"
         x="0"
         y="0"
         width="100%"
         height="100%" />
    </g>
    <path
       d="m 187.48,115.502 c 0.508,0.42 0.9,1.504 0.456,6.558 -0.56,6.188 -3.16,17.05 -4.77,18.8 -1.778,0.344 -5.505,-0.064 -7.778,-0.595 0.393,-1.56 0.505,-2.306 0.822,-3.9 l 3.975,-2.78 a 1.39,1.39 0 0 0 0.58,-0.941 l 2.778,-19.466 c 1.686,0.912 3.42,1.9 3.938,2.325 z m -146.543,25.406 0.624,2.1 c -2.14,0.628 -6.495,1.23 -8.465,0.886 -1.633,-1.645 -4.68,-12.966 -5.345,-18.978 -0.543,-4.87 -0.162,-5.924 0.333,-6.334 0.575,-0.483 2.728,-1.708 4.593,-2.707 l 2.52,20.45 c 0.048,0.393 0.257,0.74 0.586,0.967 l 5.155,3.617 z m 80.4,0.286 -0.15,1.305 c 0,0 -4.58,4.248 -11.956,5.2 -7.376,0.952 -13.17,-3.582 -13.17,-3.582 0.242,0.788 0.586,2.567 2.256,4.086 -1.965,-0.235 -4.087,-0.393 -6.313,-0.393 a 49.99,49.99 0 0 0 -2.401,0.061 c -4.54,0.237 -10.924,7.1 -15.414,14.014 l -17.06,5.237 c -7.44,-10.3 -11.098,-20.842 -11.47,-21.932 l 0.005,-0.006 -0.44,-1.268 1.913,1.338 v 0.005 l 4.726,3.3 1.58,1.1 c 0.236,0.167 0.515,0.253 0.794,0.253 a 1.57,1.57 0 0 0 0.305,-0.031 l 43.435,-9.67 c 0.487,-0.107 0.88,-0.473 1.025,-0.95 l 6.194,-20.4 c 1.07,-0.145 2.008,-0.22 2.814,-0.22 0.806,0 1.746,0.075 2.815,0.22 l 6.374,20.997 c 0.162,0.532 0.624,0.92 1.17,0.977 l 2.97,0.34 z m 49.59,-1.128 1.402,-0.984 -0.747,2.896 c -1.95,6.248 -4.25,11.774 -6.805,16.656 a 26.05,26.05 0 0 1 -1.8,0.061 c -1.972,0 -3.986,-0.167 -6.215,-0.37 l -11.946,-1.283 -12.14,-9.615 -0.505,-0.42 c -0.837,-0.708 -1.8,-1.513 -3.717,-1.513 -1.75,0 -4.308,0.638 -10.5,2.508 3.212,-2.4 3.233,-5.5 3.233,-5.5 l 0.15,-1.305 40.748,4.63 a 1.41,1.41 0 0 0 0.955,-0.241 l 7.875,-5.518 z"
       id="path24"
       inkscape:connector-curvature="0"
       style="fill:#e6ccad" />
    <path
       d="m 140.937,54.337 c 0.124,3.625 0.033,10.194 -1.655,16.345 -0.068,0.237 -0.058,0.48 0,0.704 l -6.446,-0.6 c 2.412,-5.054 2.938,-10.436 3.052,-12.332 1.852,-1.317 3.696,-2.896 5.05,-4.126 z m -61.48,4.125 c 0.112,1.896 0.638,7.267 3.046,12.317 l -6.44,0.596 c 0.058,-0.22 0.065,-0.457 0,-0.694 -1.686,-6.14 -1.772,-12.714 -1.654,-16.345 1.353,1.23 3.2,2.8 5.05,4.126 z"
       id="path26"
       inkscape:connector-curvature="0"
       style="fill:#ebd599" />
    <path
       d="m 151.835,125.675 c -2.9,-1.396 -6.06,0.377 -11.828,0.484 -4.292,0.15 -7.896,0.198 -8.132,-6.543 -0.237,-6.747 2.513,-12.326 6.805,-12.478 4.292,-0.152 8.207,5.2 8.735,11.93 0.145,1.854 -0.06,3.207 -0.52,4.2 3.996,-0.477 4.9,2.235 4.94,2.396 z m -13.488,-9.878 c 1.21,-0.027 2.175,-1.026 2.154,-2.235 -0.021,-1.209 -1.02,-2.18 -2.235,-2.153 a 2.19,2.19 0 0 0 -2.152,2.234 c 0.02,1.208 1.02,2.176 2.233,2.154 z"
       id="path28"
       inkscape:connector-curvature="0"
       style="fill:#2d3136" />
    <circle
       transform="matrix(0.9998,-0.0183,0.0183,0.9998,-2.0526,2.5461)"
       cx="138.30701"
       cy="113.602"
       r="2.194"
       id="circle30"
       style="fill:#edf6fa" />
    <path
       d="m 83.484,120.953 c 0.063,6.747 -3.51,6.34 -7.806,6.38 l -1.258,0.022 a 29.44,29.44 0 0 1 -1.39,0.005 c -4.168,-0.005 -6.833,-0.194 -9.2,1.08 0.058,-0.145 1.1,-2.46 4.835,-3.4 -0.414,-0.914 -0.673,-2.18 -0.742,-3.937 -0.257,-6.74 3.9,-12.27 8.197,-12.306 4.297,-0.036 7.29,5.41 7.354,12.156 z m -6.634,-3.53 c 1.21,-0.03 2.165,-1.043 2.133,-2.25 -0.033,-1.214 -1.04,-2.17 -2.25,-2.137 -1.215,0.03 -2.172,1.04 -2.14,2.25 0.032,1.215 1.042,2.17 2.256,2.138 z"
       id="path32"
       inkscape:connector-curvature="0"
       style="fill:#2d3136" />
    <circle
       transform="matrix(0.9997,-0.0257,0.0257,0.9997,-2.9357,2.0113)"
       cx="76.790001"
       cy="115.23"
       r="2.1949999"
       id="circle34"
       style="fill:#edf6fa" />
    <path
       d="m 50.7,75.155 c 0,0 0.667,-8.692 2.03,-12.023 0.702,-1.717 4.996,-2.8 8.276,-3.6 3.28,-0.8 8.508,-2.342 9.524,2.264 1.016,4.606 2.653,7.963 3.746,9.446 L 72.872,52.272 50.3,57.745 48.817,74.53 l 0.703,1.327 1.17,-0.703 m 114.165,0.001 c 0,0 -0.666,-8.692 -2.03,-12.023 -0.703,-1.717 -4.997,-2.8 -8.275,-3.6 -3.278,-0.8 -8.5,-2.342 -9.526,2.264 -1.026,4.606 -2.654,7.963 -3.748,9.446 l 1.407,-18.97 22.562,5.464 1.483,16.786 -0.703,1.327 -1.17,-0.703"
       id="path36"
       inkscape:connector-curvature="0"
       style="opacity:0.8;fill:#ebd599" />
    <path
       d="m 132.965,18.378 c 0,0 -0.598,45.5 -11.224,45.5 H 94.114 c -10.626,0 -11.484,-45.47 -11.484,-45.47 l -5.23,15.428 0.085,21.183 3.707,2.947 1.685,9.096 2.357,5.307 45.482,0.084 2.105,-3.8 1.77,-6.4 0.254,-4.043 5.023,-14.34 -6.912,-25.5 z m 33.465,42.416 c 0,0 2.187,15.692 7.974,18.522 5.787,2.83 0,0 0,0 l -8.103,-2.444 0.13,-16.078 z m -117.522,0 c 0,0 -2.187,15.692 -7.975,18.522 -5.788,2.83 0,0 0,0 l 8.104,-2.444 -0.13,-16.078 z"
       id="path38"
       inkscape:connector-curvature="0"
       style="opacity:0.75;fill:#ebd599" />
    <path
       d="m 167.987,76.8 c 2.755,0.902 5.526,1.858 8.036,3.325 -1.343,-0.532 -2.73,-0.913 -4.126,-1.257 l -4.2,-0.924 -8.498,-1.327 -8.546,-0.924 -8.573,-0.65 c -11.446,-0.704 -22.924,-0.88 -34.4,-0.892 -11.483,0.006 -22.962,0.22 -34.4,0.897 -2.862,0.166 -5.715,0.4 -8.572,0.65 a 181.92,181.92 0 0 0 -8.546,0.923 c -2.847,0.345 -5.678,0.796 -8.498,1.327 a 72.37,72.37 0 0 0 -4.206,0.919 c -1.4,0.344 -2.783,0.725 -4.126,1.257 2.5,-1.466 5.28,-2.427 8.04,-3.33 0.232,-0.075 0.467,-0.14 0.703,-0.214 -0.015,-0.06 -0.032,-0.113 -0.043,-0.177 -0.048,-0.317 -1.07,-7.86 0.7,-18.645 0.086,-0.516 0.456,-0.935 0.962,-1.075 l 2.917,-0.83 c 0.634,-22.625 9.952,-33.266 10.243,-33.594 -8.326,13.397 -8.25,29.286 -8.106,32.986 l 18.128,-5.152 c 0.016,-0.005 0.026,-0.005 0.042,-0.01 0.076,-0.016 0.15,-0.027 0.226,-0.032 0.02,0 0.05,-0.006 0.075,-0.006 a 1.19,1.19 0 0 1 0.297,0.027 c 0.015,0 0.03,0.01 0.053,0.016 0.075,0.016 0.145,0.042 0.224,0.075 0.033,0.016 0.054,0.033 0.086,0.05 a 1.8,1.8 0 0 1 0.177,0.112 c 0.016,0.01 0.034,0.016 0.05,0.033 0.01,0.01 0.02,0.022 0.032,0.032 0.016,0.016 0.037,0.027 0.054,0.044 a 56.74,56.74 0 0 0 1.262,1.21 c -0.182,-5.973 0.102,-23.108 8.262,-37.3 -0.172,0.498 -6.646,19.428 -4.415,40.645 a 33.9,33.9 0 0 0 2.229,1.649 1.35,1.35 0 0 1 0.585,1.09 c 0.006,0.07 0.16,6.833 3.148,12.586 0.042,0.086 0.074,0.177 0.102,0.268 7.43,-0.505 14.878,-0.7 22.312,-0.714 7.436,0.005 14.88,0.22 22.307,0.73 a 1.34,1.34 0 0 1 0.11,-0.285 c 2.986,-5.753 3.142,-12.516 3.142,-12.586 0.01,-0.436 0.23,-0.843 0.6,-1.1 a 36.73,36.73 0 0 0 2.224,-1.65 c 2.234,-21.217 -4.24,-40.147 -4.4,-40.645 8.153,14.2 8.444,31.336 8.262,37.3 l 1.26,-1.2 c 0.016,-0.016 0.04,-0.027 0.053,-0.044 0.012,-0.01 0.018,-0.02 0.033,-0.032 0.015,-0.012 0.033,-0.022 0.05,-0.033 0.06,-0.042 0.12,-0.08 0.177,-0.118 0.028,-0.01 0.054,-0.027 0.08,-0.043 a 1.64,1.64 0 0 1 0.236,-0.08 c 0.016,0 0.033,-0.01 0.05,-0.01 a 1.14,1.14 0 0 1 0.296,-0.027 c 0.027,0 0.05,0.006 0.07,0.006 a 1.63,1.63 0 0 1 0.23,0.032 c 0.012,0.006 0.028,0.006 0.042,0.01 l 18.13,5.152 c 0.146,-3.7 0.22,-19.6 -8.104,-32.986 0.3,0.328 9.6,10.97 10.237,33.594 l 2.922,0.83 a 1.35,1.35 0 0 1 0.962,1.075 c 1.777,10.786 0.752,18.328 0.708,18.645 a 1.57,1.57 0 0 1 -0.042,0.182 l 0.707,0.215 z m -3.297,-0.968 c 0.14,-1.207 0.8,-7.8 -0.6,-16.8 L 143.58,53.2 c 0.184,3.475 0.265,11.012 -1.707,18.2 a 1.62,1.62 0 0 1 -0.101,0.258 c 0.203,0.02 0.408,0.037 0.606,0.064 5.77,0.66 11.5,1.584 17.2,2.83 1.712,0.398 3.426,0.823 5.124,1.283 z m -25.4,-5.15 c 1.688,-6.15 1.78,-12.72 1.655,-16.345 -1.353,1.23 -3.197,2.8 -5.05,4.125 -0.114,1.896 -0.64,7.278 -3.052,12.332 l 6.446,0.6 a 1.33,1.33 0 0 1 0,-0.703 z M 82.51,70.78 c -2.408,-5.05 -2.934,-10.422 -3.046,-12.317 -1.858,-1.316 -3.696,-2.895 -5.05,-4.125 -0.12,3.63 -0.032,10.206 1.654,16.345 0.065,0.237 0.058,0.473 0,0.694 l 6.44,-0.597 z m -8.933,0.864 a 1.65,1.65 0 0 1 -0.098,-0.247 c -1.975,-7.187 -1.9,-14.723 -1.712,-18.2 L 51.244,59.03 c -1.38,8.982 -0.736,15.583 -0.597,16.797 1.703,-0.462 3.4,-0.887 5.13,-1.284 2.835,-0.628 5.693,-1.154 8.556,-1.638 2.87,-0.478 5.747,-0.843 8.626,-1.192 0.205,-0.027 0.404,-0.042 0.608,-0.07 z m 55.726,-52.67 v 17.025 h -12.068 v -4.974 h -2.72 v 22.98 h 4.1 v 12.85 h -21.1 v -12.85 h 4.092 v -22.98 h -2.7 V 36 H 86.847 V 18.973 h 42.467 z m -3.626,13.408 v -9.8 H 90.443 v 9.8 h 4.816 v -4.974 h 9.964 v 30.225 h -4.1 v 5.606 h 13.865 v -5.606 h -4.1 V 27.407 h 9.964 v 4.974 h 4.815 z"
       id="path40"
       inkscape:connector-curvature="0"
       style="fill:#2d3136" />
    <path
       d="m 101.123,63.238 v -5.606 h 4.1 V 27.407 H 95.26 v 4.974 h -4.816 v -9.8 h 35.224 v 9.8 h -4.816 v -4.974 h -9.964 v 30.225 h 4.1 v 5.606 z"
       id="path42"
       inkscape:connector-curvature="0"
       style="fill:#cb3349" />
    <path
       d="m 30.694,93.12 7.05,-1.47 -6.222,4.597 -0.83,-3.127 z"
       id="path44"
       inkscape:connector-curvature="0"
       style="fill:#656c67" />
    <g
       id="g50"
       style="fill:#c7b39a">
      <path
         d="m 95.1,139.78 c 0,0 0.492,3.165 -3.938,4.52 -4.43,1.355 -32.482,9.716 -35.682,9.263 -3.2,-0.453 -11.32,-5.874 -11.32,-5.874 l -1.97,-7.004 12.016,7.492 40.892,-8.396 z m 25.132,-0.613 c 0,0 -0.354,3.182 4.13,4.345 4.484,1.163 32.875,8.295 36.05,7.704 3.175,-0.591 11.053,-6.36 11.053,-6.36 l 1.663,-7.084 -11.045,6.588 -41.852,-5.192 z"
         id="path46"
         inkscape:connector-curvature="0" />
      <path
         d="m 28.412,133.956 c 0,0 3.887,7.775 10.166,5.083 l 4.485,1.645 -0.448,3.3 -9.42,1.195 -2.54,-1.494 -2.243,-9.72 z m 159.138,-2.134 c 0,0 -6.353,8.115 -12.632,5.424 l -2.02,1.302 0.448,3.3 9.42,1.196 2.54,-1.495 2.244,-9.716 z m -98.27,61.082 c 0,0 23.03,11.6 49.106,-4.188 l -8.374,-0.57 c 0,0 -18.272,7.232 -32.738,3.235 l -7.994,1.524 z"
         id="path48"
         inkscape:connector-curvature="0" />
    </g>
    <path
       d="m 112.626,171.51 1.594,1.9 c 0.036,0.046 3.577,4.26 7.906,8.552 2.88,2.853 6.357,4.297 10.343,4.297 1.36,0 2.79,-0.175 4.235,-0.523 l 4.287,-1.03 14.438,-3.577 c 0.585,-0.166 1.238,-0.315 1.925,-0.472 3.935,-0.91 9.33,-2.163 12.187,-7.89 l 7.197,-13.96 c -1.863,0.86 -3.816,1.8 -5.203,2.52 -2.138,1.123 -4.938,1.667 -8.558,1.667 -2.152,0 -4.266,-0.18 -6.605,-0.39 -4.675,-0.43 -12.586,-1.36 -12.667,-1.372 l -0.606,-0.067 -0.478,-0.383 c -0.07,-0.052 -7.003,-5.575 -12.606,-9.98 l -0.62,-0.513 c -0.6,-0.503 -0.6,-0.503 -0.942,-0.503 -1.797,0 -7.02,1.62 -18.462,5.167 l -0.703,0.223 -0.69,-0.26 c -0.078,-0.026 -7.585,-2.8 -16.58,-2.8 a 42.44,42.44 0 0 0 -2.185,0.056 c -0.9,0.046 -5.958,2.448 -12.425,12.68 l -0.42,0.657 -0.74,0.238 c -0.107,0.037 -11.238,3.63 -23.042,7.005 l -0.766,0.218 -0.725,-0.337 c -0.077,-0.03 -4.696,-2.174 -9.09,-4.194 2.397,3.54 5.462,7.958 8.16,11.422 4.71,6.067 10.65,11.674 22.034,11.674 a 40.13,40.13 0 0 0 4.503,-0.265 c 11.58,-1.31 14.563,-1.837 16.168,-2.117 0.543,-0.092 0.973,-0.17 1.522,-0.238 0.088,-0.01 9.57,-1.237 12.232,-7.206 l 3.32,-7.65 0.968,-2.583 c 0,0 0.12,-0.67 0.317,-0.877 l 0.024,0.02 c 0.305,0.22 0.757,0.902 0.757,0.902 z M 40.5,55.7 c -2.516,1.014 -5.016,2.06 -7.46,3.21 -2.45,1.12 -4.856,2.32 -7.155,3.66 -2.12,1.222 -4.157,2.563 -5.954,4.076 -0.077,0.455 -0.15,0.952 -0.21,1.423 l -0.208,2.01 c -0.12,1.346 -0.166,2.703 -0.18,4.06 -0.026,2.713 0.16,5.426 0.502,8.112 0.372,2.692 0.864,5.37 1.594,7.952 0.363,1.295 0.767,2.573 1.243,3.804 0.233,0.623 0.492,1.228 0.762,1.818 a 27.84,27.84 0 0 0 0.413,0.864 l 0.172,0.326 a 19.91,19.91 0 0 0 0.605,0.3 l 1.206,0.574 2.366,1.093 c 0.046,-0.037 0.088,-0.078 0.124,-0.114 l -2.23,-8.51 c 0.47,-0.13 4.717,-1.227 12.032,-2.62 -0.6,-0.11 -1.19,-0.238 -1.775,-0.38 -1.662,-0.413 -3.31,-0.92 -4.898,-1.563 -0.787,-0.336 -1.57,-0.7 -2.31,-1.12 -0.74,-0.42 -1.47,-0.905 -2.035,-1.547 8.033,2.632 24.636,1.442 39.396,-0.078 13.5,-1.393 27.028,-2.293 40.628,-2.325 13.6,0.03 27.138,0.93 40.63,2.325 14.77,1.522 31.374,2.713 39.406,0.088 -0.564,0.642 -1.293,1.122 -2.034,1.547 -0.741,0.425 -1.522,0.782 -2.31,1.12 -1.595,0.642 -3.236,1.15 -4.903,1.563 l -0.74,0.166 c 8.02,1.486 12.69,2.697 13.186,2.832 l -2.138,8.107 1.288,-0.574 1.207,-0.574 0.606,-0.3 0.166,-0.326 a 20.99,20.99 0 0 0 0.419,-0.864 c 0.27,-0.59 0.528,-1.196 0.767,-1.818 a 41.72,41.72 0 0 0 1.236,-3.804 c 0.73,-2.583 1.228,-5.26 1.595,-7.952 0.346,-2.686 0.528,-5.4 0.502,-8.112 -0.01,-1.356 -0.062,-2.713 -0.176,-4.06 -0.057,-0.673 -0.13,-1.34 -0.213,-2.01 a 29.83,29.83 0 0 0 -0.213,-1.423 c -1.797,-1.513 -3.83,-2.853 -5.954,-4.076 -2.3,-1.34 -4.704,-2.54 -7.16,-3.66 -2.438,-1.15 -4.943,-2.195 -7.46,-3.21 l -3.8,-1.476 -3.835,-1.423 c 2.696,0.445 5.37,1.06 8.013,1.74 a 104.78,104.78 0 0 1 5.141,1.481 C 168.254,24.374 139.284,3.76 107.669,3.76 c -31.622,0 -60.576,20.614 -72.684,52.272 1.702,-0.533 3.416,-1.035 5.135,-1.48 2.65,-0.678 5.322,-1.294 8.02,-1.74 l -3.842,1.423 a 150.15,150.15 0 0 0 -3.799,1.475 z m 159.43,18.316 c 0.146,2.914 0.068,5.833 -0.258,8.733 -0.305,2.894 -0.854,5.762 -1.62,8.605 a 45.03,45.03 0 0 1 -1.404,4.198 c -0.275,0.693 -0.57,1.383 -0.9,2.07 a 17.74,17.74 0 0 1 -0.523,1.025 l -0.284,0.512 c -0.104,0.186 -0.187,0.326 -0.348,0.574 l -0.294,0.457 -0.46,0.237 a 34.23,34.23 0 0 1 -1.342,0.653 l -1.298,0.585 a 88.22,88.22 0 0 1 -2.62,1.065 l -1.662,0.674 -1.444,5.487 -1.283,-0.315 -0.078,0.574 c 1.594,0.833 4.726,2.522 5.793,3.403 2.148,1.775 2.3,4.587 1.823,9.84 -0.244,2.697 -1.14,7.946 -2.38,12.767 -2.144,8.298 -3.283,9.273 -4.753,9.65 a 12.89,12.89 0 0 1 -3.008,0.383 c -2.266,0 -5.353,0.063 -7.43,-0.44 -0.533,1.888 -2.055,6.812 -5.068,12.962 0.15,-0.073 0.3,-0.135 0.435,-0.207 3.717,-1.952 10.86,-5.064 11.162,-5.2 l 5.643,-2.452 -2.9,5.435 c -0.067,0.118 -6.264,11.773 -10.06,19.383 -3.77,7.538 -10.835,9.18 -15.065,10.15 l -1.733,0.425 c -3.035,0.854 -9.18,2.32 -14.6,3.623 -0.064,0.016 -0.13,0.033 -0.197,0.042 -3.335,2.06 -6.974,3.9 -10.955,5.41 -14.568,5.518 -29.923,5.208 -43.844,0.092 l -9.193,1.097 a 45.12,45.12 0 0 1 -4.985,0.291 c -13.264,0 -20.294,-6.736 -25.425,-13.33 C 41.879,175.412 35.16,164.928 34.875,164.489 L 31,158.426 l 6.585,2.96 15.205,7 0.642,-0.186 c -4.457,-6.357 -8.112,-13.605 -10.695,-21.634 -2.195,0.662 -5.576,1.175 -8.206,1.175 -0.96,0 -1.822,-0.072 -2.484,-0.228 -1.47,-0.336 -3.148,-1.754 -5.43,-9.795 -1.325,-4.668 -2.314,-9.764 -2.603,-12.387 -0.57,-5.12 -0.466,-7.864 1.662,-9.636 1.283,-1.07 5.61,-3.344 6.507,-3.81 l -0.192,-1.58 c -13.75,8.08 -21.99,15.22 -22.157,15.366 L 0,134.302 7.005,123.255 c 5.544,-8.755 11.948,-15.832 17.84,-21.284 l -0.7,-0.294 -1.3,-0.585 c -0.445,-0.208 -0.85,-0.4 -1.34,-0.653 l -0.46,-0.237 -0.295,-0.457 c -0.166,-0.25 -0.238,-0.388 -0.347,-0.574 l -0.3,-0.512 -0.518,-1.025 a 30.88,30.88 0 0 1 -0.89,-2.071 44.74,44.74 0 0 1 -1.404,-4.198 c -0.77,-2.843 -1.315,-5.7 -1.62,-8.605 -0.32,-2.9 -0.404,-5.82 -0.26,-8.733 a 51.71,51.71 0 0 1 0.419,-4.354 c 0.104,-0.725 0.213,-1.45 0.358,-2.17 a 31.83,31.83 0 0 1 0.518,-2.221 l 0.155,-0.564 0.404,-0.317 c 2.294,-1.802 4.768,-3.163 7.284,-4.37 A 78.87,78.87 0 0 1 30.86,57.415 C 36.803,40.922 47.022,26.297 60.45,16.105 74.337,5.57 90.664,0 107.67,0 c 17.006,0 33.334,5.57 47.218,16.106 13.43,10.193 23.65,24.82 29.588,41.307 2.133,0.787 4.24,1.64 6.316,2.62 2.515,1.206 5,2.567 7.283,4.37 l 0.404,0.317 0.156,0.564 a 26.98,26.98 0 0 1 0.517,2.221 32.8,32.8 0 0 1 0.357,2.17 48.1,48.1 0 0 1 0.419,4.352 z m -11.995,48.03 c 0.456,-5.052 0.058,-6.14 -0.455,-6.554 -0.513,-0.43 -2.247,-1.412 -3.935,-2.33 l -2.78,19.464 a 1.39,1.39 0 0 1 -0.58,0.942 l -3.977,2.78 c -0.315,1.593 -0.43,2.345 -0.817,3.903 2.273,0.528 6,0.938 7.775,0.595 1.612,-1.748 4.214,-12.6 4.768,-18.802 z m -5.16,-17.648 2.977,-11.3 c -4.318,-0.978 -12.27,-2.615 -23.1,-4.148 -5.53,3.976 -11.582,7.155 -17.53,9.69 18.2,1.77 31.57,4.406 37.653,5.747 z m -4.68,27.237 3.385,-23.676 -5.73,-1.17 -3.06,21.422 c -0.057,0.378 -0.265,0.725 -0.575,0.943 l -11.472,8.023 a 1.39,1.39 0 0 1 -0.947,0.243 l -34.572,-3.93 a 1.39,1.39 0 0 1 -1.176,-0.973 l -6.227,-20.5 c -1.668,-0.43 -5.95,-1.43 -9.696,-1.43 -3.764,0 -8.04,1 -9.708,1.43 l -6.228,20.5 a 1.39,1.39 0 0 1 -0.682,0.822 c -0.104,0.057 -0.223,0.098 -0.343,0.125 L 56.5,141.17 c -0.11,0.022 -0.202,0.033 -0.306,0.033 a 1.36,1.36 0 0 1 -0.792,-0.25 l -11.467,-8.03 c -0.32,-0.223 -0.534,-0.575 -0.585,-0.968 l -3.09,-25.072 -3.48,0.703 -2.174,1.213 3.28,26.568 16.666,11.675 42.047,-9.354 6.207,-20.45 a 1.39,1.39 0 0 1 1.108,-0.975 c 1.574,-0.253 2.95,-0.382 4.116,-0.382 1.153,0 2.536,0.13 4.105,0.382 0.528,0.083 0.957,0.46 1.108,0.975 l 6.366,20.956 42.282,4.808 16.21,-11.357 z m -8.07,-4.41 2.992,-20.948 c -8.44,-1.536 -20.78,-3.394 -35.897,-4.554 -13.647,4.707 -25.077,6.108 -25.766,6.155 l -0.797,0.057 c 4.353,0.374 8.454,1.544 8.66,1.605 0.452,0.135 0.804,0.48 0.944,0.933 l 6.186,20.366 33.138,3.764 z m 2.303,11.845 -1.404,0.983 -7.874,5.52 c -0.28,0.192 -0.62,0.28 -0.954,0.243 l -43.712,-4.97 a 1.39,1.39 0 0 1 -1.171,-0.977 l -6.377,-20.998 c -1.066,-0.145 -2.014,-0.22 -2.8,-0.22 -0.81,0 -1.75,0.073 -2.817,0.22 l -6.192,20.392 c -0.145,0.476 -0.538,0.84 -1.025,0.946 L 54.555,149.9 a 1.61,1.61 0 0 1 -0.305,0.03 c -0.28,0 -0.56,-0.083 -0.798,-0.253 l -1.578,-1.098 -4.726,-3.307 v -0.01 l -1.9,-1.335 c 0.135,0.43 0.29,0.85 0.44,1.268 l -0.006,0.006 c 0.368,1.092 4.028,11.622 11.467,21.93 l 17.057,-5.234 c 4.488,-6.917 10.877,-13.777 15.418,-14.014 a 51.12,51.12 0 0 1 2.402,-0.061 53.64,53.64 0 0 1 6.31,0.393 c -1.67,-1.517 -2.013,-3.298 -2.256,-4.085 0,0 5.793,4.53 13.17,3.584 7.378,-0.953 11.96,-5.204 11.96,-5.204 0,0 -0.02,3.102 -3.236,5.503 6.182,-1.87 8.74,-2.51 10.49,-2.51 1.93,0 2.883,0.808 3.717,1.52 0.16,0.13 0.322,0.268 0.507,0.42 l 12.14,9.614 11.943,1.283 c 2.23,0.2 4.245,0.372 6.217,0.372 0.637,0 1.233,-0.026 1.797,-0.063 2.558,-4.88 4.857,-10.41 6.808,-16.653 a 82.67,82.67 0 0 0 0.743,-2.901 z M 157.294,87.477 c -0.01,-0.006 -0.02,-0.012 -0.03,-0.012 l -9.826,-0.65 -13.667,-0.668 a 72.95,72.95 0 0 1 -1.574,2.225 c -2.48,3.355 -7.398,9.5 -13.704,14.73 8.926,-1.6 24.41,-5.56 37.803,-14.905 l 1,-0.718 z m -29.876,0.926 1.044,-1.34 a 112.16,112.16 0 0 0 -9.67,1.408 c -10.814,2.024 -20.8,5.39 -29.1,8.837 a 383.26,383.26 0 0 1 18.54,-0.455 c 3.908,0 7.708,0.067 11.404,0.176 3.18,-3.056 5.86,-6.182 7.792,-8.626 z m 3.587,102.085 c -4.503,-0.332 -8.598,-2.205 -11.903,-5.477 l -0.502,-0.512 a 44.25,44.25 0 0 1 -4.881,0.704 c -0.698,0.026 -1.36,0.087 -2.09,0.087 l -1.083,0.01 -0.413,-0.01 c -4.396,6.54 -14.16,7.813 -14.605,7.87 -0.403,0.046 -0.734,0.103 -1.19,0.186 5.442,1.49 10.996,2.138 16.474,1.77 5.492,-0.367 12.627,-1.558 20.195,-4.628 z m -17.4,-7.46 c 1.056,-0.083 2.117,-0.218 3.184,-0.378 a 138.96,138.96 0 0 1 -3.568,-3.857 l -1.92,4.34 h 0.243 c 0.658,10e-4 1.378,-0.07 2.06,-0.104 z m -3.354,-78.632 c 1.827,-1.103 3.582,-2.366 5.25,-3.712 l -7.278,-0.072 a 376.29,376.29 0 0 0 -28.189,1.061 c -8.6,4.21 -13.875,7.672 -13.998,7.76 l -8.268,5.514 5.68,-8.15 c 0.937,-1.353 1.93,-2.636 2.956,-3.857 -9.536,1.066 -17.477,2.33 -23.4,3.422 l 3.038,24.632 10.453,7.32 33.184,-7.378 6.212,-20.464 c 0.104,-0.337 0.33,-0.62 0.627,-0.793 a 1.13,1.13 0 0 1 0.315,-0.14 c 0.192,-0.052 3.5,-1 7.336,-1.465 l 6.094,-3.68 z m 3.816,-18.788 -6.938,-0.062 -10.19,0.11 -6.27,2.97 c -0.005,0.005 -0.04,0.02 -0.088,0.048 -0.942,0.46 -9.174,4.613 -16.92,12.02 6.943,-3.65 17.146,-8.418 29.153,-12.115 3.597,-1.102 7.366,-2.118 11.25,-2.972 z M 70.25,98.76 c 3.25,-3.225 6.605,-5.886 9.567,-7.967 -11.415,2.65 -21.923,6.543 -31.128,10.778 5.99,-0.968 13.242,-1.977 21.56,-2.81 z m 2.16,-9.95 c 3.825,-1.072 7.77,-2.01 11.813,-2.796 l -17.393,0.808 -10.065,0.667 -5.007,0.445 c -0.476,0.046 -0.942,0.098 -1.418,0.16 -4.37,2.614 -21.127,13.134 -32.63,26.89 11.18,-7.77 30.654,-19.443 54.7,-26.173 z m -30.85,54.2 a 68.86,68.86 0 0 1 -0.621,-2.102 l -5.162,-3.612 a 1.39,1.39 0 0 1 -0.586,-0.969 l -2.516,-20.45 c -1.864,1 -4.017,2.225 -4.592,2.707 -0.497,0.41 -0.875,1.46 -0.336,6.332 0.668,6 3.712,17.333 5.348,18.98 1.968,0.347 6.327,-0.258 8.465,-0.886 z m -3.815,-51.36 -7.05,1.47 0.83,3.127 a 103.93,103.93 0 0 1 6.222,-4.597 z"
       id="path52"
       inkscape:connector-curvature="0"
       style="fill:#2d3136" />
  </g>
  <defs
     id="defs58">
    <path
       id="B"
       d="m 63.84,128.44 c 2.357,-1.274 5.02,-1.085 9.2,-1.08 l 1.4,-0.005 1.258,-0.022 c 4.296,-0.042 7.87,0.366 7.806,-6.38 -0.064,-6.746 -3.062,-12.198 -7.354,-12.155 -4.297,0.037 -8.454,5.564 -8.197,12.306 0.07,1.756 0.328,3.023 0.742,3.937 -3.745,0.938 -4.777,3.254 -4.835,3.4 z m 51.657,-27.75 c -1.665,1.35 -3.42,2.6 -5.25,3.712 l -6.097,3.68 c -3.824,0.466 -7.143,1.412 -7.33,1.467 -0.112,0.03 -0.22,0.08 -0.317,0.14 -0.296,0.17 -0.52,0.455 -0.63,0.794 l -6.21,20.46 -33.185,7.38 -10.452,-7.32 -3.04,-24.634 c 5.936,-1.1 13.874,-2.352 23.4,-3.42 -1.022,1.225 -2.014,2.508 -2.955,3.855 l -5.677,8.15 8.266,-5.51 c 0.123,-0.086 5.387,-3.55 13.998,-7.76 8.582,-0.644 18.053,-1.06 28.188,-1.06 l 7.28,0.07 z"
       inkscape:connector-curvature="0" />
    <path
       id="C"
       d="m 151.835,125.675 c -0.042,-0.16 -0.945,-2.873 -4.942,-2.397 0.46,-1.003 0.666,-2.356 0.52,-4.2 -0.528,-6.73 -4.443,-12.08 -8.735,-11.93 -4.292,0.15 -7.042,5.73 -6.805,12.478 0.236,6.74 3.84,6.694 8.132,6.543 5.77,-0.107 8.94,-1.88 11.83,-0.483 z m 21.18,-19.385 -2.992,20.944 -10.54,7.38 -33.14,-3.766 -6.183,-20.363 a 1.41,1.41 0 0 0 -0.945,-0.934 c -0.205,-0.06 -4.308,-1.23 -8.66,-1.607 l 0.795,-0.053 c 0.687,-0.05 12.118,-1.45 25.767,-6.157 15.115,1.16 27.458,3.02 35.897,4.557 z"
       inkscape:connector-curvature="0" />
  </defs>
</svg>
