<?xml version="1.0" encoding="UTF-8" standalone="no"?>
<!-- Created with Inkscape (http://www.inkscape.org/) -->

<svg
   xmlns:dc="http://purl.org/dc/elements/1.1/"
   xmlns:cc="http://creativecommons.org/ns#"
   xmlns:rdf="http://www.w3.org/1999/02/22-rdf-syntax-ns#"
   xmlns:svg="http://www.w3.org/2000/svg"
   xmlns="http://www.w3.org/2000/svg"
   xmlns:sodipodi="http://sodipodi.sourceforge.net/DTD/sodipodi-0.dtd"
   xmlns:inkscape="http://www.inkscape.org/namespaces/inkscape"
   version="1.1"
   id="svg75"
   width="1196.0701"
   height="265.97452"
   viewBox="0 0 1196.0701 265.97452"
   sodipodi:docname="clover.svg"
   inkscape:version="0.92.3 (2405546, 2018-03-11)">
  <metadata
     id="metadata81">
    <rdf:RDF>
      <cc:Work
         rdf:about="">
        <dc:format>image/svg+xml</dc:format>
        <dc:type
           rdf:resource="http://purl.org/dc/dcmitype/StillImage" />
        <dc:title></dc:title>
      </cc:Work>
    </rdf:RDF>
  </metadata>
  <defs
     id="defs79" />
  <sodipodi:namedview
     pagecolor="#ffffff"
     bordercolor="#666666"
     borderopacity="1"
     objecttolerance="10"
     gridtolerance="10"
     guidetolerance="10"
     inkscape:pageopacity="0"
     inkscape:pageshadow="2"
     inkscape:window-width="1920"
     inkscape:window-height="1022"
     id="namedview77"
     showgrid="false"
     fit-margin-top="0"
     fit-margin-left="0"
     fit-margin-right="0"
     fit-margin-bottom="0"
     inkscape:zoom="0.7691533"
     inkscape:cx="546.26788"
     inkscape:cy="140.62211"
     inkscape:window-x="0"
     inkscape:window-y="33"
     inkscape:window-maximized="1"
     inkscape:current-layer="svg75" />
  <path
     style="fill:#1a5182;fill-opacity:1"
     d="M 85.841682,263.65535 C 69.347066,258.03395 56.118316,243.66654 50.08004,224.81554 l -2.14114,-6.68445 -6.68446,-2.14114 C 21.955741,209.80826 7.097916,195.77927 1.970102,178.89706 -1.095022,168.80581 -0.50872503,152.74916 3.207828,145 c 1.450812,-3.025 3.955798,-6.89993 5.566634,-8.61096 l 2.928794,-3.11096 -3.764722,-4.69232 C 2.107237,121.31767 0.06998697,114.7108 0.06998697,103.06782 0.06998697,91.00716 2.361285,82.78671 8.131457,74.14581 15.555298,63.02852 27.277,54.48725 41.25444,50.01005 l 6.68446,-2.14114 2.14114,-6.68445 C 54.557236,27.20701 63.098496,15.48531 74.215792,8.06147 82.856692,2.2913 91.077142,0 103.1378,0 c 11.56536,0 18.21471,2.02895 25.68427,7.83717 l 4.74791,3.69191 3,-2.79898 c 1.65,-1.53945 5.475,-4.02099 8.5,-5.51455 4.74636,-2.34345 6.97673,-2.76203 16.27702,-3.05474 8.70778,-0.27407 12.07585,0.0553 17.54153,1.71546 17.26468,5.24398 32.10683,21.13538 37.64225,40.30332 l 1.64018,5.6796 6.69951,2.15543 c 10.74088,3.45565 18.18464,7.91476 25.79958,15.45498 18.42883,18.24798 21.58373,45.6219 7.3319,63.61629 L 254.90192,133 l 3.10003,3.91411 c 18.38748,23.21609 6.9512,60.5531 -22.93197,74.86799 -4.675,2.23946 -10.38333,4.56412 -12.68517,5.16591 -3.98633,1.04218 -4.26378,1.36635 -5.83969,6.82308 -5.55054,19.21919 -20.37305,35.10293 -37.65659,40.35264 -5.46568,1.66015 -8.83375,1.98953 -17.54153,1.71546 -9.30029,-0.29271 -11.53066,-0.71129 -16.27702,-3.05474 -3.025,-1.49356 -6.85,-3.9751 -8.5,-5.51455 l -3,-2.79898 -4.74791,3.69191 c -7.56876,5.88536 -14.08988,7.84156 -26.0396,7.81135 -7.975308,-0.0202 -11.686408,-0.52813 -16.940788,-2.31883 z M 111.1477,248.85857 c 5.32077,-1.59414 10.56317,-6.21639 13.40022,-11.81503 4.70182,-9.2786 12.05645,-9.07408 17.45142,0.48528 5.31734,9.42182 12.67936,13.1294 24.15949,12.16695 9.23574,-0.77429 16.26739,-4.29164 23.28256,-11.64631 5.11248,-5.3599 10.5934,-14.54713 10.61882,-17.79946 0.006,-0.77743 -1.40795,-1.25449 -3.74023,-1.26187 -9.14432,-0.0289 -24.69228,-6.54771 -34.02059,-14.26375 -10.10693,-8.36009 -20.18665,-22.08372 -25.32072,-34.47438 -2.97459,-7.17893 -4.74999,-6.88813 -8.34635,1.36708 -6.02932,13.8399 -17.77377,28.63172 -28.658348,36.09441 C 90.238232,214.38651 77.855632,219 69.675646,219 c -1.98312,0 -3.60566,0.47787 -3.60566,1.06193 0,2.80521 5.67634,12.51692 10.224706,17.49356 9.408,10.29385 23.24442,14.7811 34.853008,11.30308 z M 79.657682,199.8813 c 15.39565,-5.76025 29.329538,-21.82139 36.083988,-41.59282 3.56705,-10.44137 2.94126,-11.4674 -5.40848,-8.8676 -9.72611,3.02835 -22.682248,10.31182 -29.569928,16.62313 -10.248236,9.39065 -15.732186,19.36842 -17.223706,31.33767 l -0.73292,5.88167 5.8641,-0.73267 c 3.22525,-0.40297 8.169376,-1.59519 10.986946,-2.64938 z m 123.412298,0.66792 c 0,-5.17054 -2.35773,-13.31524 -5.72903,-19.79074 -6.53117,-12.54489 -22.01928,-24.63509 -38.98249,-30.43017 -6.41088,-2.19013 -8.47605,-2.54074 -9.4179,-1.59889 -1.71301,1.71301 0.0808,7.39892 6.39192,20.26059 9.94392,20.26513 27.09245,33.18745 44.9875,33.90042 2.28174,0.0909 2.75,-0.30774 2.75,-2.34121 z M 47.06999,196.39434 c 0,-5.62566 2.83896,-15.26215 6.622776,-22.48016 7.41994,-14.15429 20.937946,-26.62911 37.604286,-34.70235 5.849,-2.83328 9.732358,-5.30986 9.740348,-6.21183 0.008,-0.91028 -3.464128,-3.14607 -8.831748,-5.68688 C 81.038882,122.02723 68.859486,112.89078 62.170016,104.7817 53.648756,94.45209 47.112,79.27505 47.08186,69.75 47.07486,67.6875 46.59212,66 46.00806,66 c -2.90345,0 -12.67472,5.78755 -17.83098,10.56133 -6.854984,6.34651 -11.045292,14.66556 -11.848438,23.5228 -1.007463,11.11048 3.473937,19.71972 12.697808,24.39381 9.2786,4.70182 9.07408,12.05645 -0.48529,17.45142 -9.218629,5.20267 -13.097667,12.67707 -12.224492,23.555 0.665968,8.29655 4.746062,17.09871 10.597262,22.86193 4.42427,4.35775 16.16593,11.58121 18.90606,11.631 0.77308,0.014 1.25,-1.35297 1.25,-3.58295 z m 182.28526,-0.18564 c 6.53781,-3.50433 14.1564,-11.36817 17.36272,-17.92165 3.16485,-6.46873 4.3032,-17.87488 2.36887,-23.73595 -1.6793,-5.08833 -6.40077,-10.20521 -12.06516,-13.07557 -8.71671,-4.4171 -8.71671,-12.53396 0,-16.95106 9.68911,-4.90984 13.59495,-12.18982 12.82884,-23.91134 -0.87863,-13.44326 -9.25185,-25.27374 -22.50612,-31.7988 -7.12556,-3.5079 -8.22969,-3.1397 -8.25911,2.75417 -0.0386,7.73368 -6.09478,21.78796 -13.58114,31.51706 -7.60125,9.87838 -20.77856,19.79658 -33.89156,25.50922 -4.02973,1.75554 -6.54261,3.44749 -6.54261,4.40522 0,0.95773 2.51288,2.64968 6.54261,4.40522 13.113,5.71264 26.29031,15.63084 33.89156,25.50922 7.35707,9.56108 13.56583,23.83383 13.56583,31.18527 0,6.60795 1.36837,6.88853 10.28527,2.10899 z M 117.72014,116.4693 C 118.58755,114.20884 113.506,100.52759 108.81735,92.5 103.07224,82.66361 91.973232,71.78556 83.761232,67.9427 77.368262,64.95107 64.662396,62.07425 63.403316,63.33333 c -1.30776,1.30776 1.70964,14.31399 4.78385,20.62039 6.302426,12.9287 22.309396,25.6951 40.189774,32.05347 6.4827,2.30529 8.5958,2.4098 9.3432,0.46211 z m 45.06779,-2.49292 c 15.30142,-6.12698 29.16228,-17.85318 35.16928,-29.75299 3.0513,-6.04458 6.16792,-19.50157 4.82708,-20.84241 -0.37509,-0.3751 -3.70594,-0.18091 -7.40187,0.43153 -19.35844,3.2078 -35.95755,19.43285 -44.91359,43.90147 -4.23663,11.57482 -2.78761,12.31142 12.3191,6.2624 z M 136.97867,95.75 c 5.13407,-12.39066 15.21379,-26.11429 25.32072,-34.47438 9.32831,-7.71604 24.87627,-14.23481 34.02059,-14.26375 4.60193,-0.0146 4.67779,-0.83942 0.79105,-8.60215 -6.18936,-12.3616 -18.6304,-21.12544 -31.45028,-22.1545 -10.9923,-0.88235 -18.43892,2.9622 -23.66141,12.21596 -5.39497,9.55936 -12.7496,9.76388 -17.45142,0.48528 -4.72038,-9.31522 -12.82191,-13.58889 -24.06762,-12.69601 -9.056918,0.7191 -17.369888,4.84845 -23.848988,11.84664 -4.773776,5.15626 -10.561326,14.92753 -10.561326,17.83098 0,0.58406 1.62254,1.06193 3.60566,1.06193 1.98311,0 6.338476,0.70815 9.678596,1.57366 20.38403,5.28203 39.284038,22.8686 49.310518,45.88373 3.56257,8.17766 5.34618,8.45497 8.31391,1.29261 z m 243.59131,165.13437 c -28.70978,-4.1713 -48.59869,-16.34199 -58.26474,-35.65416 -7.78088,-15.54572 -7.73526,-15.01068 -7.73526,-90.73021 0,-75.54926 -0.0276,-75.22047 7.59435,-90.44867 9.94693,-19.87335 28.05935,-31.25969 56.55833,-35.55528 26.02395,-3.92253 85.21235,0.92744 91.81019,7.52304 2.38104,2.38023 2.34982,4.25502 -0.41483,24.91166 -2.53149,18.91461 -2.93675,19.5703 -11.54804,18.68422 -3.3,-0.33957 -10.725,-1.29181 -16.5,-2.11611 -15.43071,-2.20249 -42.99541,-3.05406 -51.41022,-1.58824 -12.6358,2.20109 -18.55872,6.88436 -21.67278,17.13672 -1.91031,6.2893 -1.983,9.00636 -1.69899,63.51152 0.27035,51.8851 0.45521,57.34038 2.08187,61.43741 2.42918,6.1183 7.0153,10.5713 13.64864,13.25247 5.13814,2.07682 7.0406,2.23806 25.55148,2.16556 13.33979,-0.0522 23.99613,-0.65732 32,-1.81699 6.6,-0.95627 14.7,-1.98278 18,-2.28113 8.61695,-0.77907 9.02192,-0.12143 11.54804,18.75307 2.76556,20.66342 2.79678,22.53638 0.41483,24.88418 -6.16014,6.07178 -66.28015,11.37184 -89.96287,7.93094 z m 255.34918,-0.44842 c -33.69323,-6.09749 -52.94058,-26.1452 -57.01436,-59.38519 -0.61646,-5.02995 -0.84812,-21.41973 -0.57244,-40.5 0.50934,-35.25394 0.96175,-38.51774 7.2149,-52.05076 8.65241,-18.72546 26.13911,-30.82726 50.71469,-35.09748 13.14862,-2.28468 41.00994,-1.50341 52.30803,1.4668 19.61341,5.15626 34.50024,16.38748 42.25327,31.87756 7.22615,14.43741 7.74745,18.5284 7.7416,60.75312 -0.006,41.78422 -0.32294,44.27485 -7.53794,59.19772 -8.76691,18.13273 -25.64669,29.44777 -50.35902,33.75724 -10.94514,1.90868 -34.1513,1.89882 -44.74873,-0.019 z m 39.59924,-45.7837 c 6.6112,-3.02671 10.10321,-7.85949 11.62422,-16.08735 0.6725,-3.63791 0.95776,-17.04561 0.75439,-35.45745 -0.30622,-27.72354 -0.46263,-29.90068 -2.45819,-34.21592 -2.75759,-5.96306 -7.4166,-9.43233 -15.42538,-11.48633 -7.19803,-1.84605 -19.48535,-1.48393 -26.43554,0.7791 -5.28023,1.71929 -11.08626,7.66596 -12.70517,13.01295 -1.92009,6.34171 -1.84841,65.73116 0.0861,71.30275 3.99015,11.49233 12.72816,15.81222 30.38249,15.02048 6.60484,-0.29621 10.1065,-1.00464 14.17712,-2.86823 z m 304.94732,45.84337 c -28.44542,-4.99409 -46.07174,-20.64557 -52.07674,-46.24204 -1.5971,-6.80775 -1.819,-12.57203 -1.819,-47.25358 0,-44.57872 0.1231,-45.55932 7.6583,-61 7.442,-15.24971 19.45132,-24.83567 38.36862,-30.62601 8.49902,-2.60145 10.05622,-2.74993 29.4731,-2.81028 23.3809,-0.0727 28.0001,0.75148 41.6207,7.42578 14.0659,6.89246 23.8432,19.4898 28.6141,36.86698 1.8503,6.73942 2.1487,11.11176 2.5226,36.96456 0.3883,26.8515 0.277,29.4835 -1.3217,31.25 -1.6776,1.8537 -3.5985,1.92897 -49.2294,1.92897 h -47.48368 l 0.4999,8.76779 c 0.5495,9.637 2.8839,15.76142 7.0474,18.48949 9.7391,6.38131 37.28408,6.47042 63.56008,0.20563 12.3622,-2.94742 14.3528,-3.02333 16.5188,-0.62997 2.0689,2.28606 8.0879,30.29092 7.2381,33.67678 -0.3387,1.34965 -1.9046,3.12034 -3.4798,3.93488 -4.0613,2.10018 -15.779,5.24722 -28.6071,7.68305 -14.4163,2.73739 -47.00778,3.49172 -59.10428,1.36797 z M 1026.6067,136.75 c -1.307,-16.05886 -6.2247,-20.9775 -21.5879,-21.59208 -11.31108,-0.45248 -16.37578,1.00299 -21.55128,6.19331 -4.4436,4.45628 -6.3975,10.31977 -6.3975,19.19799 V 145 h 25.10408 25.1041 z m -524.08217,119.79545 -2.45455,-2.45454 V 132.04545 c 0,-120.71212 0.0218,-122.0673 2,-124.04545 1.87597,-1.87597 3.33333,-2 23.5,-2 20.16667,0 21.62403,0.12403 23.5,2 1.97822,1.97822 2,3.33333 2,124.42742 v 122.42742 l -2.63486,2.07258 C 545.96498,258.87044 544.52432,259 525.38967,259 c -20.33718,0 -20.41943,-0.009 -22.86514,-2.45455 z m 298.90953,1.28496 c -1.17475,-0.56883 -2.58255,-2.01449 -3.12845,-3.2126 -1.82465,-4.00468 -55.23563,-171.31137 -55.23563,-173.02231 0,-0.92753 1.10455,-2.79095 2.45455,-4.14095 C 747.97541,75.00366 748.0105,75 769.06998,75 c 20.55219,0 21.14722,0.0575 23.29545,2.25 1.62344,1.6569 6.94359,18.12435 20.18282,62.47173 9.88805,33.12195 18.24682,59.89695 18.57505,59.5 0.32823,-0.39695 4.32178,-13.09673 8.87454,-28.22173 7.36119,-24.45502 16.35453,-54.17252 25.18348,-83.21603 2.0107,-6.61436 3.65272,-10.20573 5.14363,-11.25 C 872.12299,75.27457 876.24219,75 893.33794,75 c 20.77498,0 20.8286,0.006 23.27749,2.45455 1.35,1.35 2.45455,3.18175 2.45455,4.07057 0,1.62613 -53.46546,169.12063 -55.25944,173.11461 -0.52861,1.17685 -2.05766,2.63935 -3.39788,3.25 -3.19869,1.45742 -55.95578,1.40436 -58.9786,-0.0593 z m 300.09044,-1.28496 -2.4545,-2.45454 V 167 79.90909 l 2.4545,-2.45454 C 1103.9446,75.03453 1104.2266,75 1121.57,75 c 17.0293,0 17.6644,0.0735 19.894,2.3031 1.6753,1.67529 2.4942,3.99235 3.0042,8.5 0.3856,3.4083 0.9574,6.1969 1.2706,6.1969 0.3133,0 3.1034,-1.52629 6.2004,-3.39175 8.2286,-4.95652 25.0003,-13.18925 29.7966,-14.62627 4.8018,-1.43865 8.8684,-0.72083 10.2196,1.80389 1.1859,2.21579 4.1146,27.13662 4.1146,35.01133 0,7.16895 -0.1308,7.30298 -13.7688,14.1126 -5.6479,2.82002 -15.2104,8.06056 -21.25,11.64563 l -10.9812,6.51832 v 55.89055 55.89054 l -2.6349,2.07258 c -2.4701,1.94302 -3.9108,2.07258 -23.0454,2.07258 -20.3372,0 -20.4194,-0.009 -22.8652,-2.45455 z"
     id="path85"
     inkscape:connector-curvature="0" />
</svg>
