<?xml version="1.0" encoding="UTF-8" standalone="no"?>
<!-- Created with Inkscape (http://www.inkscape.org/) -->

<svg
   xmlns:dc="http://purl.org/dc/elements/1.1/"
   xmlns:cc="http://creativecommons.org/ns#"
   xmlns:rdf="http://www.w3.org/1999/02/22-rdf-syntax-ns#"
   xmlns:svg="http://www.w3.org/2000/svg"
   xmlns="http://www.w3.org/2000/svg"
   xmlns:sodipodi="http://sodipodi.sourceforge.net/DTD/sodipodi-0.dtd"
   xmlns:inkscape="http://www.inkscape.org/namespaces/inkscape"
   width="184.45239mm"
   height="114.1488mm"
   viewBox="0 0 184.45239 114.1488"
   version="1.1"
   id="svg8"
   inkscape:version="0.92.3 (2405546, 2018-03-11)"
   sodipodi:docname="placeholder.svg">
  <defs
     id="defs2" />
  <sodipodi:namedview
     id="base"
     pagecolor="#ffffff"
     bordercolor="#666666"
     borderopacity="1.0"
     inkscape:pageopacity="0.0"
     inkscape:pageshadow="2"
     inkscape:zoom="0.98994949"
     inkscape:cx="348.26149"
     inkscape:cy="176.14342"
     inkscape:document-units="mm"
     inkscape:current-layer="layer1"
     showgrid="false"
     showguides="false"
     fit-margin-top="0"
     fit-margin-left="0"
     fit-margin-right="0"
     fit-margin-bottom="0"
     inkscape:window-width="1920"
     inkscape:window-height="1022"
     inkscape:window-x="0"
     inkscape:window-y="33"
     inkscape:window-maximized="1" />
  <metadata
     id="metadata5">
    <rdf:RDF>
      <cc:Work
         rdf:about="">
        <dc:format>image/svg+xml</dc:format>
        <dc:type
           rdf:resource="http://purl.org/dc/dcmitype/StillImage" />
        <dc:title></dc:title>
      </cc:Work>
    </rdf:RDF>
  </metadata>
  <g
     inkscape:label="Laag 1"
     inkscape:groupmode="layer"
     id="layer1"
     transform="translate(-17.386906,-29.392857)">
    <rect
       id="rect10"
       width="184.45239"
       height="114.1488"
       x="17.386906"
       y="29.392857"
       style="fill:#b3b3b3;stroke-width:0.26458332" />
    <path
       inkscape:connector-curvature="0"
       style="fill:#4d4d4d;stroke-width:0.20751014"
       d="M 152.77521,38.798846 H 66.450989 c -5.501094,0 -9.960487,4.459393 -9.960487,9.960487 v 59.762917 c 0,5.5011 4.459393,9.96049 9.960487,9.96049 h 86.324221 c 5.50109,0 9.96049,-4.45939 9.96049,-9.96049 V 48.759333 c 0,-5.501094 -4.4594,-9.960487 -9.96049,-9.960487 z m -1.24506,69.723404 h -83.8341 a 1.2450609,1.2450609 0 0 1 -1.245061,-1.24506 V 50.004394 a 1.2450609,1.2450609 0 0 1 1.245061,-1.245061 h 83.8341 a 1.2450609,1.2450609 0 0 1 1.24506,1.245061 v 57.272796 a 1.2450609,1.2450609 0 0 1 -1.24506,1.24506 z M 83.051802,57.059739 c -4.584108,0 -8.300407,3.716299 -8.300407,8.300407 0,4.584106 3.716299,8.300405 8.300407,8.300405 4.584106,0 8.300405,-3.716299 8.300405,-8.300405 0,-4.584108 -3.716299,-8.300407 -8.300405,-8.300407 z m -6.640325,41.502028 h 66.403253 v -16.60081 l -18.16026,-18.16025 c -0.97239,-0.972393 -2.54906,-0.972393 -3.52165,0 L 96.332451,88.601282 88.132688,80.401519 c -0.972393,-0.972393 -2.549055,-0.972393 -3.521655,0 l -8.199556,8.199763 z"
       id="path2" />
    <text
       xml:space="preserve"
       style="font-style:normal;font-weight:normal;font-size:10.58333302px;line-height:1.25;font-family:sans-serif;letter-spacing:0px;word-spacing:0px;fill:#4d4d4d;fill-opacity:1;stroke:none;stroke-width:0.26458332;"
       x="65.543442"
       y="133.69832"
       id="text20"><tspan
         sodipodi:role="line"
         id="tspan18"
         x="65.543442"
         y="133.69832"
         style="stroke-width:0.26458332;fill:#4d4d4d;">Placeholder image</tspan></text>
  </g>
</svg>
