<?xml version="1.0" encoding="UTF-8" standalone="no"?>
<!-- Created with Inkscape (http://www.inkscape.org/) -->

<svg
   xmlns:dc="http://purl.org/dc/elements/1.1/"
   xmlns:cc="http://creativecommons.org/ns#"
   xmlns:rdf="http://www.w3.org/1999/02/22-rdf-syntax-ns#"
   xmlns:svg="http://www.w3.org/2000/svg"
   xmlns="http://www.w3.org/2000/svg"
   xmlns:sodipodi="http://sodipodi.sourceforge.net/DTD/sodipodi-0.dtd"
   xmlns:inkscape="http://www.inkscape.org/namespaces/inkscape"
   width="164.22696mm"
   height="42.208302mm"
   viewBox="0 0 164.22696 42.208302"
   version="1.1"
   id="svg8"
   inkscape:version="0.92.3 (2405546, 2018-03-11)"
   sodipodi:docname="saturating-counter.svg">
  <defs
     id="defs2" />
  <sodipodi:namedview
     id="base"
     pagecolor="#ffffff"
     bordercolor="#666666"
     borderopacity="1.0"
     inkscape:pageopacity="0.0"
     inkscape:pageshadow="2"
     inkscape:zoom="1.4"
     inkscape:cx="266.66508"
     inkscape:cy="206.10586"
     inkscape:document-units="mm"
     inkscape:current-layer="layer1"
     showgrid="false"
     fit-margin-top="0"
     fit-margin-left="0"
     fit-margin-right="0"
     fit-margin-bottom="0"
     inkscape:window-width="1920"
     inkscape:window-height="1022"
     inkscape:window-x="0"
     inkscape:window-y="30"
     inkscape:window-maximized="1" />
  <metadata
     id="metadata5">
    <rdf:RDF>
      <cc:Work
         rdf:about="">
        <dc:format>image/svg+xml</dc:format>
        <dc:type
           rdf:resource="http://purl.org/dc/dcmitype/StillImage" />
        <dc:title></dc:title>
      </cc:Work>
    </rdf:RDF>
  </metadata>
  <g
     inkscape:label="Laag 1"
     inkscape:groupmode="layer"
     id="layer1"
     transform="translate(6.6293471,4.7313062)">
    <path
       style="fill:none;stroke:#000000;stroke-width:0.26458332px;stroke-linecap:butt;stroke-linejoin:miter;stroke-opacity:1"
       d="M 39.49851,9.4546125 C 38.769533,9.2926174 38.543904,9.2104084 37.797618,9.1711303 c -0.314545,-0.016555 -0.62996,0 -0.944941,0 -0.251984,0 -0.503968,0 -0.755952,0 -0.552415,0 -0.778322,-0.031181 -1.322916,0.094494 -0.194109,0.044795 -0.372854,0.1441937 -0.566965,0.1889882 -0.21702,0.050082 -0.444437,0.044412 -0.661459,0.094494 -0.286739,0.066171 -0.757618,0.2652501 -1.039434,0.3779761 -0.603258,0.2413034 -0.320754,0.1131304 -0.850445,0.3779764 -0.125992,0.063 -0.26335,0.107113 -0.377975,0.188988 -0.108744,0.07767 -0.174742,0.205808 -0.283483,0.283482 -0.229251,0.163751 -0.526703,0.214226 -0.755954,0.377976 -0.108741,0.07767 -0.180819,0.197932 -0.28348,0.283482 -0.17449,0.145409 -0.392475,0.232568 -0.566965,0.377977 -0.928823,0.774017 0.270833,-0.176338 -0.472472,0.566964 -0.0803,0.08031 -0.203176,0.108683 -0.28348,0.188988 -0.08031,0.0803 -0.118044,0.194801 -0.188989,0.283482 -0.05565,0.06957 -0.143153,0.112594 -0.188989,0.188988 -0.05125,0.08541 -0.04995,0.194393 -0.09449,0.283482 -0.05079,0.101578 -0.138199,0.181905 -0.188986,0.283483 -0.04454,0.08909 -0.05526,0.19193 -0.0945,0.283482 -0.162261,0.378609 -0.194839,0.30689 -0.283483,0.661458 -0.125378,0.501522 -0.09449,0.434807 -0.09449,0.944941 0,0.552134 -0.03107,0.58982 0.09449,1.133928 0.03564,0.154418 0.297244,1.05081 0.377979,1.228423 0.08922,0.196278 0.56637,0.902085 0.661458,1.039434 0.154231,0.222778 0.297447,0.454614 0.472469,0.661459 0.63872,0.754852 0.531067,0.447657 1.322917,1.133928 0.235635,0.204217 0.433504,0.448702 0.661458,0.661458 1.004986,0.937987 0.514438,0.41295 1.606399,1.322917 2.284733,1.903944 -0.597963,-0.314639 1.795386,1.322917 0.296397,0.202796 0.546804,0.469684 0.850448,0.661458 0.60017,0.379056 1.242396,0.577821 1.889881,0.850446 1.082247,0.455684 0.572231,0.296458 1.606397,0.661459 0.281781,0.09945 0.558041,0.221923 0.850447,0.283481 0.612609,0.128971 1.369494,0.0945 1.984375,0.0945 0.516351,0 1.278277,0.03478 1.795386,-0.0945 0.23272,-0.05818 0.438735,-0.194391 0.661459,-0.283481 0.249872,-0.09995 0.515246,-0.163129 0.755954,-0.283482 0.400052,-0.200027 0.794948,-0.573101 1.133927,-0.850447 0.369136,-0.30202 0.636032,-0.47289 0.944941,-0.850446 0.14383,-0.175793 0.244382,-0.383272 0.377976,-0.566964 0.118626,-0.163111 0.2814,-0.295412 0.377976,-0.472471 0.162464,-0.297851 0.356478,-1.296923 0.377975,-1.511904 0.07369,-0.736917 -0.03787,-1.35349 -0.188986,-2.078869 -0.240419,-1.154008 -0.2545,-1.120311 -0.755952,-2.173364 -0.264948,-0.556391 -0.679098,-1.39095 -1.039436,-1.88988 -0.196038,-0.271439 -0.448604,-0.497489 -0.661459,-0.755953 -0.228301,-0.277225 -0.423846,-0.581155 -0.661458,-0.850446 -0.648819,-0.735329 -0.810879,-0.763121 -1.511903,-1.417411 -0.227955,-0.212757 -0.432965,-0.449284 -0.661459,-0.661458 -0.36204,-0.33618 -0.748998,-0.636997 -1.13393,-0.944941 C 41.325397,10.746031 41.175643,10.609706 41.010416,10.494047 40.859953,10.388723 40.688408,10.315889 40.537947,10.210565 40.221024,9.9887189 39.85837,9.6088376 39.49851,9.4546125 38.979424,9.2321466 38.611296,9.2847434 38.0811,9.1711303 35.434703,8.6040451 39.366584,9.3223817 36.758184,8.8876483 36.441337,8.8348403 36.132497,8.7341328 35.813243,8.6986601 c -0.196527,-0.021836 -0.631714,0 -0.850445,0 -0.188989,0 -0.377976,0 -0.566965,0 -0.063,0 -0.132644,-0.028173 -0.188989,0 -0.07968,0.039842 -0.125992,0.1259922 -0.188987,0.1889882"
       id="path10"
       inkscape:connector-curvature="0" />
    <path
       style="fill:none;stroke:#000000;stroke-width:0.26458332px;stroke-linecap:butt;stroke-linejoin:miter;stroke-opacity:1"
       d="m 67.090773,9.7380948 c -1.158785,0 -0.696526,-0.034784 -1.795388,0.094494 -0.778822,0.091626 -0.837028,0.061177 -1.606397,0.3779762 -0.948645,0.390618 -0.529979,0.293405 -1.322916,0.755952 -0.182512,0.106466 -0.388705,0.170043 -0.566965,0.283482 -0.170154,0.108281 -0.307242,0.262317 -0.472472,0.377977 -0.150461,0.105324 -0.319651,0.181604 -0.472469,0.283482 -0.13104,0.08736 -0.251984,0.188988 -0.377976,0.283482 -0.125992,0.09449 -0.2584,0.180989 -0.377976,0.283482 -0.169106,0.144947 -0.298553,0.333335 -0.472471,0.47247 -0.27627,0.221018 -0.342498,0.15822 -0.566963,0.47247 -0.08187,0.114626 -0.107114,0.263351 -0.188989,0.377977 -0.07767,0.108743 -0.209354,0.172291 -0.283483,0.283482 -0.117205,0.175808 -0.194937,0.375117 -0.283482,0.566964 -0.210659,0.45643 -0.373542,0.828277 -0.472469,1.322917 -0.0498,0.249013 -0.06093,0.504235 -0.09449,0.755952 -2.65e-4,0.0024 -0.188963,1.322569 -0.18899,1.322917 -0.0145,0.188431 0,0.377976 0,0.566964 0,0.409474 0,0.818948 0,1.228423 0,0.15749 0,0.31498 0,0.47247 0,0.188988 -0.01712,0.378752 0,0.566964 0.01455,0.15995 0.06576,0.314452 0.09449,0.47247 0.09516,0.523384 0.10501,0.7875 0.283482,1.322917 0.221581,0.664741 0.293751,0.656434 0.661458,1.228423 0.614252,0.955503 0.325991,0.714363 1.322917,1.511904 0.911683,0.729346 1.362348,0.981239 2.456847,1.511906 0.558279,0.270679 1.113991,0.554728 1.700892,0.755951 0.520354,0.178409 1.072732,0.24456 1.606399,0.377976 2.681179,0.670296 0.131123,0.119872 2.929314,0.661458 0.946097,0.183116 1.886174,0.397563 2.834822,0.566966 0.407839,0.07283 0.815832,0.151479 1.228423,0.188986 0.282319,0.02567 0.566963,0 0.850445,0 0.283483,0 0.566965,0 0.850448,0 0.220485,0 0.440973,0 0.661458,0 0.251984,0 0.50618,0.03331 0.755952,0 0.227298,-0.0303 0.440973,-0.125992 0.661458,-0.188986 0.619451,-0.176986 0.84078,-0.196274 1.41741,-0.566966 0.460828,-0.296246 1.0164,-0.934659 1.322917,-1.322916 0.507391,-0.642694 0.761542,-1.087851 1.13393,-1.795386 0.164015,-0.311632 0.329446,-0.623134 0.472469,-0.944941 0.109299,-0.245924 0.188989,-0.503968 0.283482,-0.755952 0.09449,-0.251985 0.207548,-0.497769 0.283483,-0.755953 0.242242,-0.823626 0.32421,-1.696071 0.283482,-2.551339 -0.03633,-0.762878 -0.09549,-1.545945 -0.377975,-2.267857 -0.143816,-0.367533 -0.35779,-0.704756 -0.566964,-1.039435 -0.404768,-0.647627 -1.472584,-2.07679 -1.889882,-2.645833 -0.346477,-0.47247 -0.667541,-0.964673 -1.039434,-1.417411 -0.600247,-0.730736 -1.534213,-1.656487 -2.267858,-2.267857 -0.36296,-0.302468 -0.748379,-0.57735 -1.133927,-0.850446 C 73.996118,9.8534944 73.623979,9.5912193 73.232885,9.3601184 72.929704,9.1809651 72.60854,9.0333726 72.287947,8.8876483 71.915175,8.7182067 71.540964,8.5491213 71.154017,8.4151781 69.613792,7.8820237 67.867434,7.6762384 66.240326,7.7537198 c -0.284904,0.013568 -0.566963,0.062996 -0.850445,0.094494 -1.454412,0.1616014 -0.265893,-0.040932 -1.606399,0.3779763 -0.247918,0.077474 -0.511345,0.1016284 -0.755952,0.1889882 -0.240702,0.085964 -0.960265,0.4877948 -1.13393,0.6614583 -0.191595,0.1915949 -0.307266,0.4466918 -0.472469,0.6614584 -0.74712,0.971255 -0.301855,0.1404217 -0.850448,1.511904"
       id="path12"
       inkscape:connector-curvature="0" />
    <path
       style="fill:none;stroke:#000000;stroke-width:0.26458332px;stroke-linecap:butt;stroke-linejoin:miter;stroke-opacity:1"
       d="m 107.25074,10.116071 c -1.70002,0.04204 -3.40833,-0.101007 -5.10268,0.09449 -0.38066,0.04392 -0.75369,0.141459 -1.13393,0.188988 -2.228602,0.278576 -0.0702,-0.117117 -2.173357,0.283482 -0.315545,0.0601 -0.630613,0.122814 -0.944941,0.188988 -0.284168,0.05983 -0.564467,0.138522 -0.850447,0.188988 -0.250079,0.04413 -0.51058,0.02906 -0.755952,0.09449 -0.23178,0.06181 -0.437565,0.19737 -0.661458,0.283482 -2.153632,0.82832 0.784748,-0.324578 -1.039435,0.283483 -0.332991,0.110997 -0.473069,0.270411 -0.755951,0.47247 -0.09241,0.06601 -0.196239,0.116284 -0.283483,0.188988 -0.102661,0.08555 -0.188989,0.188988 -0.283482,0.283482 -0.09449,0.09449 -0.212656,0.17016 -0.283483,0.283482 -0.0899,0.143839 -0.120097,0.317468 -0.188986,0.47247 -0.05721,0.128723 -0.120579,0.25484 -0.18899,0.377977 -0.560175,1.008318 -0.07776,-0.05578 -0.377975,0.94494 -0.04874,0.162469 -0.158644,0.305584 -0.18899,0.47247 -0.03381,0.18594 0,0.377977 0,0.566965 0,0.31498 0,0.62996 0,0.94494 0,0.125992 -0.01392,0.252755 0,0.377976 0.03547,0.319254 0.131527,0.628904 0.18899,0.944941 0.107458,0.591019 0.143425,1.13797 0.377975,1.700893 0.215308,0.51674 0.403482,0.770212 0.755952,1.228422 0.149995,0.194992 0.322477,0.371973 0.472472,0.566965 0.165203,0.214766 0.280874,0.469863 0.472469,0.661458 0.253944,0.253945 0.559305,0.451189 0.850448,0.661458 0.95001,0.686118 0.714679,0.45931 1.700892,1.039435 0.256125,0.150662 0.487405,0.345263 0.755952,0.47247 0.193672,0.09174 2.00833,0.717868 2.173364,0.755952 0.434036,0.100164 0.884406,0.110682 1.322916,0.188988 0.44396,0.07928 0.87469,0.23368 1.32292,0.283483 0.40697,0.04522 0.81895,0 1.22842,0 0.44097,0 0.88194,0 1.32291,0 1.52694,0 1.07572,0.03382 2.55134,-0.0945 0.31537,-0.02742 0.63013,-0.06136 0.94495,-0.09449 0.64372,-0.06776 0.92561,-0.05799 1.5119,-0.283482 0.47617,-0.183144 1.01706,-0.530165 1.41741,-0.850446 0.62234,-0.49787 1.22726,-1.055033 1.70089,-1.700893 0.17573,-0.239625 0.30333,-0.511636 0.47247,-0.755952 0.11481,-0.165825 0.27636,-0.298259 0.37798,-0.472471 0.12087,-0.207204 0.18899,-0.440972 0.28348,-0.661458 0.0945,-0.220486 0.22168,-0.429676 0.28348,-0.661458 0.11195,-0.419802 0.11427,-1.191267 0.0945,-1.606399 -0.0181,-0.378857 -0.0295,-0.760251 -0.0945,-1.133929 -0.0914,-0.525689 -0.45749,-1.594454 -0.66145,-2.078869 -0.10933,-0.259649 -0.25199,-0.503968 -0.37798,-0.755952 -0.12599,-0.251984 -0.21762,-0.524319 -0.37798,-0.755952 -0.12677,-0.183123 -0.31498,-0.314981 -0.47247,-0.472471 -0.82048,-0.820486 -0.28669,-0.348835 -1.22842,-1.039434 -0.254,-0.186268 -0.48718,-0.402718 -0.75595,-0.566964 -0.30049,-0.183633 -0.62699,-0.321066 -0.94494,-0.472471 -0.7796,-0.371235 -1.15808,-0.568158 -1.98438,-0.755952 -0.37366,-0.08492 -0.75879,-0.110835 -1.13393,-0.188988 -0.38141,-0.07946 -0.74709,-0.2370622 -1.13392,-0.2834823 -0.40656,-0.048787 -0.81895,0 -1.22843,0 -0.34647,0 -0.69295,0 -1.03943,0 -0.31498,0 -0.62996,0 -0.94494,0 -0.28348,0 -0.56891,-0.033122 -0.85045,0 -0.25796,0.030348 -0.50066,0.1411213 -0.75595,0.1889883 -2.027371,0.380132 0.52723,-0.2263007 -1.511905,0.283482"
       id="path14"
       inkscape:connector-curvature="0" />
    <path
       style="fill:none;stroke:#000000;stroke-width:0.26458332px;stroke-linecap:butt;stroke-linejoin:miter;stroke-opacity:1"
       d="m 40.443451,30.715772 c 1.119696,0.559848 -0.02829,0.01058 1.322917,0.566966 0.286853,0.118115 0.566965,0.251983 0.850447,0.377975 0.283483,0.125992 0.587381,0.213561 0.850445,0.377976 0.246259,0.153911 0.422161,0.402447 0.661459,0.566965 0.267231,0.183722 0.58062,0.292584 0.850447,0.472469 0.298818,0.199213 0.554051,0.458663 0.850448,0.661459 0.303157,0.207425 0.641781,0.359542 0.944938,0.566965 0.296397,0.202797 0.551632,0.462248 0.850447,0.661458 0.365573,0.243716 1.19557,0.645033 1.6064,0.850447 0.188986,0.09449 0.377975,0.188987 0.566965,0.28348 0.188986,0.0945 0.371922,0.202216 0.566962,0.283483 0.183888,0.07662 0.377976,0.125992 0.566965,0.188989 0.188989,0.063 0.377976,0.125992 0.566965,0.188987 0.188987,0.063 0.377976,0.125994 0.566962,0.188989 0.18899,0.063 0.370465,0.156239 0.566965,0.188989 0.186418,0.03107 0.37863,-0.01569 0.566966,0 0.190933,0.0159 0.375933,0.0798 0.566965,0.09449 0.219834,0.01691 0.44097,0 0.661458,0 0.188986,0 0.377976,0 0.566962,0 0.928283,0 0.378603,0.03625 1.228424,-0.09449 0.220136,-0.03387 0.444436,-0.04441 0.661458,-0.0945 0.163809,-0.0378 0.862293,-0.289404 1.039434,-0.377976 0.164275,-0.08214 0.31192,-0.194286 0.472472,-0.283482 0.123134,-0.06841 0.260771,-0.11085 0.377976,-0.188987 0.167812,-0.111876 0.313269,-0.254153 0.472469,-0.377976 0.124314,-0.09669 0.259453,-0.179776 0.377976,-0.283482 0.134093,-0.117332 0.237331,-0.268584 0.377975,-0.377976 0.144976,-0.11276 0.334251,-0.162539 0.472472,-0.283482 0.118523,-0.103709 0.172119,-0.266616 0.283483,-0.377976 0.11136,-0.111363 0.259453,-0.179777 0.377975,-0.283483 0.134094,-0.117332 0.251984,-0.251984 0.377976,-0.377975 0.09449,-0.0945 0.174739,-0.205809 0.283483,-0.283483 0.114625,-0.08188 0.255672,-0.119102 0.377976,-0.188989 0.197209,-0.112692 0.377975,-0.251984 0.566965,-0.377976 0.09449,-0.063 0.188986,-0.125992 0.283482,-0.188989 0.09449,-0.063 0.203176,-0.108683 0.28348,-0.188987 0.08031,-0.0803 0.116284,-0.196236 0.188989,-0.283482 0.08555,-0.102661 0.200001,-0.179131 0.283483,-0.283483 0.044,-0.055 0.04469,-0.139184 0.09449,-0.188986 0.0498,-0.0498 0.139187,-0.04469 0.188989,-0.0945 0.0498,-0.0498 0.04469,-0.139184 0.09449,-0.188987 0.125991,-0.125992 0.09449,0.157491 0.09449,-0.0945"
       id="path16"
       inkscape:connector-curvature="0" />
    <path
       style="fill:none;stroke:#000000;stroke-width:0.26458332px;stroke-linecap:butt;stroke-linejoin:miter;stroke-opacity:1"
       d="m 60.098214,29.01488 c 0.220486,0 0.441402,-0.01376 0.661459,0 0.538109,0.03363 1.068289,0.155355 1.606399,0.188989 0.251492,0.01572 0.503968,0 0.755951,0 0.220486,0 0.440973,0 0.661459,0 0.881943,0 1.763889,0 2.645833,0 0.314981,0 0.62996,0 0.944941,0 0.0315,0 0.063,0 0.09449,0 0.0315,0 0.08041,-0.02817 0.09449,0 0.02817,0.05635 0,0.125992 0,0.188987 0,0.09449 0,0.188989 0,0.283482 0,0.125992 -0.02733,0.254985 0,0.377976 0.0368,0.165584 0.155724,0.306142 0.18899,0.472472 0.05138,0.2569 -0.02151,0.701664 -0.09449,0.944938 -0.04874,0.16247 -0.13535,0.311555 -0.188989,0.472472 -0.04107,0.123206 -0.06299,0.251984 -0.09449,0.377976 -0.063,0.125992 -0.139528,0.246081 -0.188989,0.377975 -0.0456,0.121603 -0.04334,0.258607 -0.09449,0.377976 -0.04474,0.104386 -0.138199,0.181904 -0.188989,0.283483 -0.04454,0.08909 -0.04325,0.198072 -0.09449,0.283482 -0.04584,0.07639 -0.133334,0.11942 -0.188989,0.18899 -0.440971,0.551214 0.0945,0.04725 -0.47247,0.472469 -0.03564,0.02673 -0.06978,0.05743 -0.09449,0.09449 -0.03907,0.0586 -0.03589,0.149921 -0.0945,0.188989 -0.05241,0.03494 -0.129222,-0.01992 -0.188986,0 -0.190659,0.06355 -6.6e-5,0.189021 -0.18899,0.283483 -0.130339,0.06517 -0.08452,-0.114438 -0.188986,0.09449 -0.02817,0.05635 0.01992,0.129225 0,0.188989 -0.02228,0.06682 -0.063,0.125992 -0.0945,0.188987"
       id="path18"
       inkscape:connector-curvature="0" />
    <path
       style="fill:none;stroke:#000000;stroke-width:0.26458332px;stroke-linecap:butt;stroke-linejoin:miter;stroke-opacity:1"
       d="m 80.603422,28.542411 c 1.314601,0.626001 0.575279,0.318939 1.889879,0.944938 0.343623,0.163632 0.702295,0.295873 1.039437,0.472472 0.32539,0.170442 0.622464,0.39107 0.944938,0.566965 0.370991,0.202356 0.768906,0.354031 1.13393,0.566962 0.392391,0.228894 0.748708,0.515192 1.133928,0.755955 0.371073,0.231917 0.758703,0.436321 1.13393,0.661458 0.412279,0.247367 0.820708,0.501129 1.228421,0.755951 0.713046,0.36322 1.312235,0.898406 1.984375,1.322917 0.274187,0.17317 0.570928,0.308047 0.850447,0.472469 0.965539,0.567965 0.595699,0.447604 1.700893,0.944941 0.657375,0.29582 1.194728,0.478525 1.889881,0.661458 0.280837,0.0739 0.56777,0.122476 0.850445,0.18899 2.429756,0.607438 -0.59781,-0.128104 1.322917,0.283482 0.253976,0.05442 0.498493,0.15466 0.755954,0.188987 0.218551,0.02914 0.440971,0 0.661458,0 0.251984,0 0.505913,0.03126 0.755952,0 0.257733,-0.03222 0.506763,-0.115697 0.755953,-0.188987 0.69908,-0.205613 1.08739,-0.334169 1.70089,-0.755954 0.46866,-0.322202 0.98565,-0.881872 1.32292,-1.322917 0.20696,-0.270639 0.37394,-0.569693 0.56696,-0.850445 0.15351,-0.223279 0.33307,-0.429117 0.47247,-0.661458 0.14495,-0.24158 0.22563,-0.51897 0.37798,-0.755954 0.13303,-0.206936 0.35042,-0.35337 0.47247,-0.566963 0.14713,-0.257482 0.39433,-1.104868 0.47247,-1.417412 0.0389,-0.155813 0.0381,-0.322085 0.0945,-0.472469 0.0399,-0.106336 0.15308,-0.175742 0.18899,-0.283483 0,-0.353914 -0.0423,-0.198964 0.0945,-0.472469"
       id="path20"
       inkscape:connector-curvature="0" />
    <path
       style="fill:none;stroke:#000000;stroke-width:0.26458332px;stroke-linecap:butt;stroke-linejoin:miter;stroke-opacity:1"
       d="m 102.90402,27.975446 c 0.25198,-0.09449 0.49908,-0.203211 0.75595,-0.283483 0.24792,-0.07747 0.50397,-0.125992 0.75595,-0.188989 0.50397,-0.125992 1.00997,-0.244126 1.51191,-0.377976 0.22156,-0.05908 0.43802,-0.137424 0.66145,-0.188986 0.34314,-0.07919 0.69567,-0.112596 1.03944,-0.188989 0.12678,-0.02817 0.24941,-0.07613 0.37798,-0.09449 0.0935,-0.01336 0.18898,0 0.28348,0 0.22048,0 0.44097,0 0.66145,0 0.22049,0 0.44098,0 0.66146,0 0.18278,0 0.51988,-0.04709 0.66146,0.09449 0.0498,0.0498 0.0583,0.128592 0.0945,0.188989 0.0584,0.09738 0.16144,0.173304 0.18898,0.283482 0.0382,0.152787 0,0.314979 0,0.472469 0,0.346478 0,0.692957 0,1.039434 0,1.133931 0,2.267858 0,3.401785"
       id="path22"
       inkscape:connector-curvature="0" />
    <path
       style="fill:none;stroke:#000000;stroke-width:0.26458332px;stroke-linecap:butt;stroke-linejoin:miter;stroke-opacity:1"
       d="m 119.34598,19.093005 c 0.70375,0.335093 1.45107,0.561531 2.17337,0.850447 0.22272,0.08909 0.45024,0.169754 0.66145,0.283482 0.19999,0.107685 0.36381,0.276398 0.56697,0.377976 0.004,0.0019 1.50316,0.563218 1.5119,0.566964 0.19421,0.08323 0.36501,0.221343 0.56697,0.283482 0.21287,0.0655 0.44132,0.06063 0.66146,0.0945 0.81616,0.125563 0.31344,0.09449 1.13392,0.09449 0.18899,0 0.37798,0 0.56697,0 0.12599,0 0.25295,0.01563 0.37797,0 0.18985,-0.02373 0.47318,-0.126228 0.66146,-0.188989 0.0945,-0.0315 0.19439,-0.04995 0.28348,-0.09449 0.26765,-0.133824 0.45453,-0.360035 0.66146,-0.566964 0.54983,-0.549824 -0.24275,0.21804 0.47247,-0.377976 0.1711,-0.142585 0.29855,-0.333335 0.47247,-0.47247 0.0887,-0.07095 0.1948,-0.118043 0.28348,-0.188988 0.0696,-0.05565 0.11943,-0.133334 0.18899,-0.188988 0.17737,-0.141891 0.40636,-0.217368 0.56697,-0.377977 0.35843,-0.358434 0.0529,-0.182692 0.28348,-0.566964 0.0458,-0.07639 0.14315,-0.112594 0.18899,-0.188988 0.0512,-0.08541 0.0499,-0.194392 0.0945,-0.283482 0.0508,-0.101578 0.14681,-0.178037 0.18899,-0.283482 0.0234,-0.05849 -0.0104,-0.12685 0,-0.188988 0.0213,-0.128103 0.0761,-0.249412 0.0945,-0.377977 0.0134,-0.09354 0,-0.188988 0,-0.283482 0,-0.220486 0,-0.440972 0,-0.661458 0,-0.125992 -0.0156,-0.252957 0,-0.377976 0.0433,-0.3463 0.14843,-0.337857 0.0945,-0.661459 -0.0327,-0.1965 -0.15624,-0.370463 -0.18899,-0.566964 -0.0926,-0.555584 0.12749,-0.01201 -0.0945,-0.566964 -0.005,-0.01306 -0.1881,-0.373519 -0.18899,-0.377976 -0.0185,-0.09266 0.0351,-0.195747 0,-0.283482 -0.0331,-0.08272 -0.14316,-0.112595 -0.18899,-0.188989 -0.0512,-0.08541 -0.0433,-0.198071 -0.0945,-0.283482 -0.0458,-0.07639 -0.13553,-0.117716 -0.18898,-0.188988 -0.0423,-0.05635 -0.0522,-0.132643 -0.0945,-0.188988 -0.0534,-0.07127 -0.14914,-0.109304 -0.18898,-0.188988 -0.0282,-0.05635 0.0378,-0.138591 0,-0.188988 -0.0682,-0.09085 -0.20318,-0.108684 -0.28349,-0.188988 -0.0498,-0.0498 -0.0447,-0.139186 -0.0945,-0.188988 -0.0498,-0.0498 -0.13264,-0.05223 -0.18899,-0.09449 -0.0713,-0.05345 -0.11942,-0.133334 -0.18899,-0.188988 -0.34829,-0.278633 -0.17805,-0.106834 -0.47247,-0.283483 -0.0974,-0.05843 -0.17909,-0.144251 -0.28348,-0.188988 -0.11937,-0.05116 -0.25638,-0.04889 -0.37798,-0.09449 -0.13189,-0.04946 -0.2485,-0.133499 -0.37797,-0.188988 -0.22657,-0.0971 -0.42171,-0.120486 -0.66146,-0.188988 -0.0958,-0.02736 -0.18771,-0.06713 -0.28348,-0.09449 -0.12488,-0.03568 -0.24988,-0.07314 -0.37798,-0.09449 -0.0621,-0.01036 -0.12599,0 -0.18899,0 -0.0945,0 -0.18898,0 -0.28348,0 -0.18899,0 -0.37798,0 -0.56696,0 -0.22049,0 -0.44098,0 -0.66146,0 -0.0945,0 -0.19082,-0.01853 -0.28348,0 -0.16545,0.03309 -0.40152,0.250393 -0.56697,0.283482 -0.0927,0.01853 -0.19027,-0.01553 -0.28348,0 -0.26403,0.04401 -0.58641,0.239477 -0.85045,0.283482 -0.0932,0.01553 -0.19082,-0.01853 -0.28348,0 -0.0572,0.01145 -0.50145,0.244173 -0.56696,0.283482 -0.0974,0.05843 -0.17804,0.146811 -0.28349,0.188989 -0.0585,0.0234 -0.13657,-0.03494 -0.18898,0 -0.0586,0.03907 -0.0447,0.139185 -0.0945,0.188988 -0.36878,0.368785 -0.0508,-0.02187 -0.28348,0.09449 -0.0398,0.01992 -0.063,0.063 -0.0945,0.09449 -0.0315,0.0315 -0.0746,0.05465 -0.0945,0.09449 -0.0141,0.02817 0.0223,0.07222 0,0.09449 -0.19551,0.195511 0.008,-0.298768 -0.18898,0.09449 -0.0141,0.02817 0.0223,0.07222 0,0.09449 -0.0223,0.02227 -0.0663,-0.01409 -0.0945,0 -0.0838,0.04188 -0.19746,0.226136 -0.28348,0.283482 -0.0586,0.03907 -0.13919,0.04469 -0.18899,0.09449 -0.0223,0.02227 0,0.063 0,0.09449 0,0.0315 0,0.063 0,0.09449 0,0.188988 0,0.377976 0,0.566964 0,0.0315 0.0223,0.07222 0,0.0945 -0.0223,0.02227 -0.063,0 -0.0945,0"
       id="path24"
       inkscape:connector-curvature="0" />
    <path
       style="fill:none;stroke:#000000;stroke-width:0.26458332px;stroke-linecap:butt;stroke-linejoin:miter;stroke-opacity:1"
       d="m 120.00744,11.438987 c -0.0351,0.329827 0.0409,0.712268 0,1.039435 -0.0161,0.128867 -0.0731,0.249873 -0.0945,0.377976 -0.0104,0.06214 0,0.125992 0,0.188988 0,0.09449 0,0.188988 0,0.283482 0,0.283483 0,0.566965 0,0.850447 0,0.15749 0,0.31498 0,0.47247 0,0.0315 -0.0223,0.07222 0,0.09449 0.19897,0.198974 0.43507,0.01903 0.66145,0.09449 0.10774,0.03591 0.17331,0.161444 0.28349,0.188988 0.15278,0.0382 0.31498,0 0.47247,0 0.0945,0 0.18899,0 0.28348,0 0.59846,0 1.19692,0 1.79538,0"
       id="path26"
       inkscape:connector-curvature="0" />
    <path
       style="fill:none;stroke:#000000;stroke-width:0.26458332px;stroke-linecap:butt;stroke-linejoin:miter;stroke-opacity:1"
       d="M 102.24256,7.3757435 C 101.62138,6.6972727 100.88659,6.1426166 100.16369,5.5803566 99.880207,5.3598706 99.609639,5.1216948 99.313242,4.9188983 99.010085,4.7114748 98.686198,4.535978 98.368301,4.3519341 97.984973,4.1300061 97.188159,3.6879739 96.761905,3.5014876 96.515347,3.3936196 96.253312,3.3240167 96.00595,3.2180053 95.811741,3.1347722 95.630835,3.0230683 95.438988,2.9345233 95.221183,2.8339989 94.992086,2.7583196 94.77753,2.6510411 94.550393,2.5374735 94.349481,2.3730989 94.116071,2.273065 93.905302,2.1827357 93.675098,2.1470729 93.454613,2.0840769 93.234125,2.0210809 93.012322,1.9625253 92.793155,1.8950888 92.602753,1.8365037 92.419452,1.7544164 92.22619,1.7061007 92.040315,1.6596321 91.844068,1.6620186 91.659225,1.6116066 91.49558,1.5669761 91.349223,1.4713591 91.186756,1.4226186 91.032919,1.3764679 90.869234,1.3703835 90.714284,1.3281245 90.522093,1.2757087 90.341788,1.1823513 90.147321,1.1391364 c -0.09224,-0.020499 -0.189939,0.013364 -0.283482,0 -0.25713,-0.036733 -0.499748,-0.14628719 -0.755954,-0.18898808 -0.06214,-0.0103566 -0.125992,0 -0.188987,0 -0.188989,0 -0.377976,0 -0.566965,0 -0.409474,0 -0.818949,0 -1.228423,0 -0.251984,0 -0.503968,0 -0.755952,0 -0.09449,0 -0.188987,0 -0.283482,0 -0.09449,0 -0.190273,-0.0155348 -0.283483,0 -0.196498,0.0327501 -0.369755,0.16081538 -0.566962,0.18898808 -0.124728,0.017818 -0.253252,-0.017818 -0.377976,0 -0.344104,0.049158 -0.198774,0.097756 -0.472472,0.1889881 -0.80292,0.2676407 -0.0056,-0.014813 -0.661458,0.094494 -0.09825,0.016375 -0.188987,0.062996 -0.283483,0.094494 -0.09449,0.031498 -0.188986,0.062996 -0.283482,0.094494 -0.09449,0.031498 -0.185809,0.07496 -0.28348,0.094494 -0.06177,0.012355 -0.127873,-0.015279 -0.188989,0 -0.136658,0.034164 -0.239848,0.1613625 -0.377976,0.1889881 -0.09266,0.018532 -0.190823,-0.018532 -0.283483,0 -0.138128,0.027626 -0.24434,0.1444432 -0.377976,0.1889881 -0.02988,0.00996 -0.06394,-0.00764 -0.09449,0 -0.09663,0.024158 -0.186851,0.070336 -0.283482,0.094494 -0.06112,0.015279 -0.129225,-0.019921 -0.18899,0 -0.342566,0.1141895 -0.06725,0.044834 -0.283482,0.1889881 -0.217271,0.1448469 -0.255199,0.044141 -0.472469,0.1889881 -0.216231,0.1441542 0.05909,0.074799 -0.283483,0.1889881 -0.02988,0.00996 -0.06299,0 -0.09449,0 -0.063,0 -0.129225,-0.019921 -0.188989,0 -0.08452,0.028173 -0.109302,0.1491459 -0.188987,0.1889881 -0.232735,0.1163672 0.0853,-0.2742911 -0.283482,0.094494 -0.125992,0.125992 0.200451,0.090673 -0.0945,0.1889879 -0.05976,0.019921 -0.132641,-0.028173 -0.188987,0 -0.02817,0.014086 0.01408,0.066322 0,0.094494 -0.009,0.01809 -0.359889,0.3689321 -0.377976,0.3779764 -0.02817,0.014086 -0.06461,-0.00996 -0.0945,0 -0.342566,0.1141894 -0.06725,0.044834 -0.283479,0.1889879 -0.0586,0.039069 -0.130387,0.055426 -0.18899,0.094494 -0.109032,0.072688 -0.17445,0.2107946 -0.283482,0.2834823 -0.685136,0.3425685 0.149407,-0.099606 -0.283483,0.1889882 -0.0586,0.039068 -0.139184,0.044691 -0.188986,0.094494 -0.0498,0.049803 -0.04469,0.1391854 -0.0945,0.1889882 -0.0498,0.049803 -0.130384,0.055426 -0.188987,0.094494 -0.03706,0.02471 -0.05743,0.069785 -0.09449,0.094494 -0.0586,0.039068 -0.139187,0.044691 -0.188989,0.094494 -0.0498,0.049803 -0.04469,0.1391854 -0.09449,0.1889879 -0.0498,0.049803 -0.139186,0.044691 -0.188989,0.094494 -0.195511,0.1955117 0.298768,-0.00764 -0.09449,0.1889882 -0.02817,0.014086 -0.07222,-0.022273 -0.09449,0 -0.02228,0.022273 0.01407,0.066321 0,0.094494 -0.01992,0.039842 -0.063,0.062996 -0.0945,0.094494 -0.0315,0.031498 -0.05465,0.074573 -0.09449,0.094494 -0.02817,0.014086 -0.07222,-0.022273 -0.09449,0 -0.02228,0.022273 0.01408,0.066321 0,0.094494 -0.104465,0.2089317 -0.05865,0.029324 -0.188989,0.094494 -0.191402,0.095702 0.01675,0.2834823 -0.283483,0.2834823"
       id="path28"
       inkscape:connector-curvature="0" />
    <path
       style="fill:none;stroke:#000000;stroke-width:0.26458332px;stroke-linecap:butt;stroke-linejoin:miter;stroke-opacity:1"
       d="m 73.610863,4.3519341 c 0,0.15749 0,0.3149801 0,0.4724701 -0.0315,0.062996 -0.08291,0.1195147 -0.0945,0.1889882 -0.02072,0.1242777 0.01781,0.2532504 0,0.3779761 -0.01408,0.098604 -0.06713,0.1877092 -0.09449,0.2834822 -0.03568,0.1248728 -0.07613,0.2494116 -0.09449,0.3779761 -0.01336,0.093545 0,0.1889882 0,0.2834823 0,0.2834819 0,0.5669642 0,0.8504462 0,0.065725 -0.01709,0.4382981 0,0.4724704 0.01992,0.039842 0.06978,0.05743 0.09449,0.094494 0.03907,0.058603 0.03589,0.1499195 0.09449,0.1889879 0.05242,0.034944 0.127873,-0.01528 0.18899,0 0.06833,0.017082 0.119515,0.082915 0.188986,0.094494 0.12428,0.020712 0.251987,0 0.377979,0 0.220485,0 0.44097,0 0.661458,0 0.09449,0 0.192622,-0.025958 0.28348,0 0.481936,0.137696 0.233828,0.2122104 0.661458,0.2834822 0.09321,0.015534 0.188989,0 0.283483,0 0.0945,0 0.188989,0 0.283482,0 0.377976,0 0.755952,0 1.13393,0"
       id="path30"
       inkscape:connector-curvature="0" />
    <path
       style="fill:none;stroke:#000000;stroke-width:0.26458332px;stroke-linecap:butt;stroke-linejoin:miter;stroke-opacity:1"
       d="M 60.759673,6.3363091 C 60.353169,5.8621884 60.020231,5.3189737 59.531249,4.9188983 59.355457,4.7750676 59.147976,4.6745167 58.964284,4.540922 58.801174,4.4222963 58.647911,4.2906608 58.491815,4.1629459 58.301416,4.0071648 58.121658,3.8380802 57.92485,3.6904758 57.625445,3.4659207 57.019721,3.09617 56.696427,2.9345233 56.267315,2.7199666 55.802625,2.5821158 55.37351,2.367559 55.209238,2.2854223 55.070575,2.1547167 54.901041,2.0840769 54.689372,1.9958811 54.45875,1.9625253 54.239583,1.8950888 54.049181,1.8365037 53.865883,1.7544164 53.672618,1.7061007 53.486745,1.6596321 53.290498,1.6620186 53.105655,1.6116066 52.942008,1.5669761 52.7941,1.4762577 52.633183,1.4226186 52.386774,1.3404818 52.129216,1.2966265 51.877232,1.2336305 51.75124,1.2021325 51.625248,1.1706344 51.499256,1.1391364 51.373264,1.1076384 51.249844,1.0630087 51.12128,1.0446424 c -0.09355,-0.013364 -0.190275,0.015535 -0.283482,0 -0.09825,-0.016375 -0.188989,-0.062996 -0.283483,-0.0944941 -0.125992,-0.031498 -0.249412,-0.0761277 -0.377976,-0.094494 -0.09355,-0.0133636 -0.188989,0 -0.283482,0 -0.09449,0 -0.188989,0 -0.283483,0 -0.440973,0 -0.881943,0 -1.322916,0 -0.251984,0 -0.503968,0 -0.755952,0 -0.0945,0 -0.188989,0 -0.283482,0 -0.063,0 -0.127217,-0.0123545 -0.18899,0 -0.189756,-0.0216845 -0.307911,0.1478487 -0.472469,0.1889881 -0.06112,0.015279 -0.127873,-0.015279 -0.188989,0 -0.06833,0.017082 -0.125992,0.062996 -0.188987,0.094494 -0.167989,0.083995 -0.27786,0.150066 -0.472471,0.1889881 -0.06177,0.012355 -0.127215,-0.012354 -0.188987,0 -0.09767,0.019534 -0.188989,0.062996 -0.283482,0.094494 -0.09449,0.031498 -0.18899,0.062996 -0.283483,0.094494 -0.188989,0.062996 -0.382003,0.115003 -0.566965,0.1889881 -0.06539,0.026158 -0.120658,0.077412 -0.188987,0.094494 -0.6731,0.1682748 0.478732,-0.2859871 -0.472471,0.094494 -0.0654,0.026158 -0.130384,0.055426 -0.188987,0.094494 -0.03707,0.024709 -0.05224,0.080408 -0.0945,0.094494 -0.409122,0.1363744 0.03473,-0.1806439 -0.377976,0.094494 -0.03706,0.024709 -0.05743,0.069785 -0.09449,0.094494 -0.0586,0.039068 -0.139184,0.044691 -0.188989,0.094494 -0.0498,0.049803 -0.04469,0.1391854 -0.09449,0.1889881 -0.0498,0.049803 -0.139184,0.044691 -0.188987,0.094494 -0.0498,0.049803 -0.04469,0.1391854 -0.0945,0.1889882 -0.0498,0.049803 -0.130384,0.055425 -0.188986,0.094494 -0.03707,0.02471 -0.05743,0.069785 -0.0945,0.094494 -0.0586,0.039068 -0.130384,0.055426 -0.188987,0.094494 -0.07413,0.049418 -0.114861,0.1395698 -0.188989,0.1889879 -0.08632,0.057546 -0.229317,0.080658 -0.283483,0.1889882 -0.01408,0.028173 0.02817,0.080408 0,0.094494 -0.05634,0.028173 -0.129222,-0.019921 -0.188986,0 -0.18804,0.06268 -0.0441,0.088194 -0.09449,0.1889881 -0.196633,0.3932616 0.0065,-0.1010176 -0.188989,0.094494 -0.0498,0.049803 -0.05542,0.1303856 -0.09449,0.1889881 -0.04942,0.074127 -0.149146,0.1093039 -0.188989,0.1889882 -0.01408,0.028173 0,0.062996 0,0.094494 -0.0315,0.062996 -0.05542,0.1303853 -0.09449,0.1889879 -0.04942,0.074127 -0.149145,0.1093039 -0.188989,0.1889882 -0.06517,0.1303411 0.114438,0.084522 -0.09449,0.1889881 -0.02817,0.014086 -0.07222,-0.022273 -0.09449,0 -0.02228,0.022273 0.01407,0.066321 0,0.094494 -0.104466,0.2089314 -0.05865,0.029324 -0.18899,0.094494 -0.208931,0.1044657 -0.02932,0.058647 -0.09449,0.1889879 -0.104465,0.2089317 -0.05865,0.029324 -0.188989,0.094494 -0.208931,0.1044657 -0.02932,0.058647 -0.09449,0.1889881 -0.0957,0.1914041 -0.283483,-0.016753 -0.283483,0.283482"
       id="path32"
       inkscape:connector-curvature="0" />
    <path
       style="fill:none;stroke:#000000;stroke-width:0.26458332px;stroke-linecap:butt;stroke-linejoin:miter;stroke-opacity:1"
       d="m 36.852677,3.8794637 c 0,0.1259922 0.02471,0.254431 0,0.3779763 -0.0087,0.04368 -0.08041,0.052235 -0.09449,0.094494 -0.01529,0.045908 0,0.5649846 0,0.6614583 0,0.4094742 0,0.8189484 0,1.2284226 0,0.15749 0,0.3149801 0,0.4724701 0,0.031498 0,0.062996 0,0.094494 0,0.031498 -0.01408,0.066321 0,0.094494 0.01992,0.039842 0.05465,0.074573 0.09449,0.094494 0.02817,0.014086 0.06394,-0.00764 0.0945,0 0.09663,0.024159 0.188986,0.062996 0.283482,0.094494 1.368941,0.4563136 -0.345926,-0.074127 1.322917,0.283482 0.389578,0.083481 0.749543,0.2731444 1.133927,0.3779763 0.154951,0.042259 0.318636,0.048343 0.47247,0.094494 0.16247,0.048741 0.31365,0.1294299 0.472471,0.1889882 0.186526,0.069948 0.377976,0.1259922 0.566965,0.1889881 0.09449,0.031498 0.185809,0.07496 0.28348,0.094494 0.06177,0.012353 0.127873,-0.01528 0.188989,0 0.06833,0.017081 0.122172,0.072221 0.18899,0.094494 0.05947,0.019825 0.387294,0 0.472469,0"
       id="path34"
       inkscape:connector-curvature="0" />
    <path
       style="fill:none;stroke:#000000;stroke-width:0.26458332px;stroke-linecap:butt;stroke-linejoin:miter;stroke-opacity:1"
       d="m 26.458333,12.005952 c -1.577224,-1.314353 0.409382,0.307035 -1.133928,-0.850447 -0.196806,-0.147604 -0.364699,-0.33244 -0.566965,-0.47247 C 24.443615,10.465772 23.881225,10.197681 23.529018,10.021577 23.226803,9.8704695 22.823909,9.6494046 22.489583,9.5491066 22.335748,9.5029559 22.16948,9.5054017 22.017113,9.4546125 21.883478,9.4100675 21.771031,9.3150848 21.639137,9.2656243 21.517536,9.2200242 21.386033,9.2068083 21.26116,9.1711303 20.312223,8.9000056 21.781317,9.2775459 20.599702,8.9821424 20.47371,8.9506442 20.35029,8.9060146 20.221726,8.8876483 c -0.155907,-0.022273 -0.31498,0 -0.47247,0 -0.251984,0 -0.503969,0 -0.755953,0 -0.31498,0 -0.62996,0 -0.94494,0 -0.09283,0 -0.504466,-0.020833 -0.566964,0 -0.342569,0.1141894 -0.06725,0.044834 -0.283483,0.1889881 -0.477365,0.3182438 -0.0022,7.409e-4 -0.283482,0.094494 -0.201504,0.067168 -0.224147,0.1296532 -0.377976,0.2834822 -0.0315,0.031498 -0.05743,0.069785 -0.09449,0.094494 -0.0586,0.039068 -0.139185,0.044691 -0.188988,0.094494 -0.0498,0.049803 -0.04469,0.1391854 -0.09449,0.1889879 -0.0498,0.049803 -0.132643,0.052235 -0.188988,0.094494 -0.07127,0.053454 -0.125992,0.1259925 -0.188988,0.1889885 -0.175782,0.175782 -0.258773,0.234064 -0.377976,0.47247 -0.08909,0.17818 -0.0999,0.388785 -0.188989,0.566964 -0.05079,0.101579 -0.138199,0.181904 -0.188988,0.283482 -0.04454,0.08909 -0.04325,0.198072 -0.09449,0.283483 -0.04584,0.07639 -0.143151,0.112594 -0.188988,0.188988 -0.0019,0.0031 -0.184089,0.554718 -0.188988,0.566964 -0.02616,0.06539 -0.08068,0.119924 -0.09449,0.188988 -0.01853,0.09266 0.01853,0.190823 0,0.283482 -0.028,0.140014 -0.246493,0.419009 -0.283482,0.566965 -0.01528,0.06112 0,0.125991 0,0.188988 0,0.09449 0,0.188988 0,0.283482 0,0.409474 0,0.818948 0,1.228422 0,0.503969 0,1.007937 0,1.511905 0,0.02468 -0.01583,0.519458 0,0.566964 0.02227,0.06682 0.063,0.125993 0.09449,0.188988 0.0315,0.063 0.05543,0.130386 0.09449,0.188989 0.02471,0.03706 0.08041,0.05223 0.09449,0.09449 0.01992,0.05976 -0.01992,0.129224 0,0.188988 0.01409,0.04226 0.06978,0.05743 0.09449,0.09449 0.03907,0.0586 0.07222,0.122171 0.09449,0.188988 0.07953,0.238596 -0.191925,-0.09841 0.09449,0.283482 0.08822,0.117628 0.364654,0.364654 0.47247,0.47247 0.0315,0.0315 0.06979,0.05743 0.0945,0.09449 0.03907,0.0586 0.04469,0.139186 0.09449,0.188988 0.354495,0.354496 0.174207,0.05979 0.47247,0.283483 0.07127,0.05345 0.117716,0.135534 0.188988,0.188988 0.05635,0.04226 0.132643,0.05223 0.188988,0.09449 0.07127,0.05345 0.112594,0.143151 0.188988,0.188988 0.08541,0.05125 0.198071,0.04325 0.283482,0.09449 0.07639,0.04584 0.117717,0.135534 0.188988,0.188988 0.05635,0.04226 0.139186,0.04469 0.188988,0.09449 0.0498,0.0498 0.0315,0.15749 0.09449,0.188988 0.08452,0.04226 0.190824,-0.01853 0.283483,0 0.0505,0.0101 0.52013,0.248357 0.566964,0.283482 0.07127,0.05345 0.10627,0.155901 0.188988,0.188988 0.08773,0.03509 0.190823,-0.01853 0.283482,0 0.140014,0.028 0.419009,0.246493 0.566964,0.283482 0.06112,0.01528 0.127873,-0.01528 0.188989,0 0.136657,0.03416 0.244341,0.144444 0.377976,0.188989 0.281293,0.09376 -0.193884,-0.22375 0.283482,0.09449 0.03706,0.02471 0.05465,0.07457 0.09449,0.09449 0.02817,0.01409 0.063,0 0.09449,0 0.0315,0 0.063,0 0.09449,0 0.15749,0 0.31498,0 0.47247,0 0.31498,0 0.62996,0 0.944941,0 0.103178,0 0.41136,0.02037 0.47247,0 0.171028,0.05695 0.175742,-0.153075 0.283482,-0.188988 0.05976,-0.01992 0.129225,0.01992 0.188988,0 0.08452,-0.02817 0.10447,-0.160816 0.188988,-0.188989 0.05976,-0.01992 0.136572,0.03494 0.188988,0 0.0586,-0.03907 0.05543,-0.130385 0.09449,-0.188988 0.156699,-0.235048 0.02172,-0.01086 0.188988,-0.09449 0.208932,-0.104466 0.02932,-0.05865 0.09449,-0.188988 0.19663,-0.393261 -0.0065,0.101018 0.188988,-0.09449 0.02227,-0.02227 -0.01409,-0.06632 0,-0.09449 0.104465,-0.208931 0.05865,-0.02932 0.188988,-0.09449 0.03984,-0.01992 0.07457,-0.05465 0.09449,-0.09449 0.01409,-0.02817 -0.0315,-0.09449 0,-0.09449 0.0315,0 0,0.063 0,0.09449"
       id="path36"
       inkscape:connector-curvature="0" />
    <path
       style="fill:none;stroke:#000000;stroke-width:0.26458332px;stroke-linecap:butt;stroke-linejoin:miter;stroke-opacity:1"
       d="m 21.355655,18.431547 c 0.188988,0.0315 0.379931,0.05293 0.566964,0.09449 0.194467,0.04322 0.370464,0.156238 0.566964,0.188988 0.555585,0.0926 0.01201,-0.127488 0.566964,0.09449 0.06539,0.02616 0.130386,0.05543 0.188988,0.09449 0.03706,0.02471 0.05224,0.08041 0.09449,0.09449 0.05226,0.01742 0.471803,0 0.566964,0 0.0315,0 0.06632,-0.01409 0.09449,0 0.03984,0.01992 0.05465,0.07457 0.09449,0.09449 0.02817,0.01409 0.063,0 0.09449,0 0.06698,0 0.542533,-0.01222 0.566964,0 0.03984,0.01992 0.05465,0.07457 0.09449,0.09449 0.02817,0.01409 0.06632,-0.01409 0.09449,0 0.03984,0.01992 0.05465,0.07457 0.09449,0.09449 0.05635,0.02817 0.144443,-0.04454 0.188988,0 0.02227,0.02227 0,0.063 0,0.09449 0,0.09449 0.02292,0.19181 0,0.283483 -0.03416,0.136657 -0.136672,0.247187 -0.188988,0.377976 -0.380481,0.951202 0.07378,-0.20063 -0.09449,0.47247 -0.03416,0.136657 -0.161362,0.239848 -0.188988,0.377976 -0.01853,0.09266 0.01853,0.190823 0,0.283482 -0.0066,0.033 -0.182387,0.344972 -0.188988,0.377977 0,0.72086 0.04226,-0.07454 -0.09449,0.47247 -0.01528,0.06111 0,0.125992 0,0.188988 0,0.188988 0,0.377976 0,0.566964 0,0.0315 0,0.063 0,0.09449 0,0.0315 0.01409,0.06632 0,0.09449 -0.05838,0.116767 -0.09123,0.09449 -0.188988,0.09449"
       id="path38"
       inkscape:connector-curvature="0" />
    <text
       xml:space="preserve"
       style="font-style:normal;font-weight:normal;font-size:10.58333302px;line-height:1.25;font-family:sans-serif;letter-spacing:0px;word-spacing:0px;fill:#000000;fill-opacity:1;stroke:none;stroke-width:0.26458332"
       x="102.9985"
       y="18.148064"
       id="text54"><tspan
         sodipodi:role="line"
         id="tspan52"
         x="102.9985"
         y="18.148064"
         style="stroke-width:0.26458332">1</tspan></text>
    <text
       xml:space="preserve"
       style="font-style:normal;font-weight:normal;font-size:10.58333302px;line-height:1.25;font-family:sans-serif;letter-spacing:0px;word-spacing:0px;fill:#000000;fill-opacity:1;stroke:none;stroke-width:0.26458332"
       x="67.846725"
       y="19.376488"
       id="text58"><tspan
         sodipodi:role="line"
         id="tspan56"
         x="67.846725"
         y="19.376488"
         style="stroke-width:0.26458332">2</tspan></text>
    <text
       xml:space="preserve"
       style="font-style:normal;font-weight:normal;font-size:10.58333302px;line-height:1.25;font-family:sans-serif;letter-spacing:0px;word-spacing:0px;fill:#000000;fill-opacity:1;stroke:none;stroke-width:0.26458332"
       x="32.789436"
       y="19.848957"
       id="text62"><tspan
         sodipodi:role="line"
         id="tspan60"
         x="32.789436"
         y="19.848957"
         style="stroke-width:0.26458332">3</tspan></text>
    <text
       xml:space="preserve"
       style="font-style:normal;font-weight:normal;font-size:10.58333302px;line-height:1.25;font-family:sans-serif;letter-spacing:0px;word-spacing:0px;fill:#000000;fill-opacity:1;stroke:none;stroke-width:0.26458332"
       x="47.058037"
       y="-1.5066969"
       id="text66"><tspan
         sodipodi:role="line"
         id="tspan64"
         x="47.058037"
         y="-1.5066969"
         style="stroke-width:0.26458332">-</tspan></text>
    <text
       xml:space="preserve"
       style="font-style:normal;font-weight:normal;font-size:10.58333302px;line-height:1.25;font-family:sans-serif;letter-spacing:0px;word-spacing:0px;fill:#000000;fill-opacity:1;stroke:none;stroke-width:0.26458332"
       x="85.61161"
       y="-0.65625042"
       id="text70"><tspan
         sodipodi:role="line"
         id="tspan68"
         x="85.61161"
         y="-0.65625042"
         style="stroke-width:0.26458332">-</tspan></text>
    <text
       xml:space="preserve"
       style="font-style:normal;font-weight:normal;font-size:10.58333302px;line-height:1.25;font-family:sans-serif;letter-spacing:0px;word-spacing:0px;fill:#000000;fill-opacity:1;stroke:none;stroke-width:0.26458332"
       x="133.2366"
       y="15.218749"
       id="text74"><tspan
         sodipodi:role="line"
         id="tspan72"
         x="133.2366"
         y="15.218749"
         style="stroke-width:0.26458332">+</tspan></text>
    <text
       xml:space="preserve"
       style="font-style:normal;font-weight:normal;font-size:10.58333302px;line-height:1.25;font-family:sans-serif;letter-spacing:0px;word-spacing:0px;fill:#000000;fill-opacity:1;stroke:none;stroke-width:0.26458332"
       x="96.194946"
       y="33.834076"
       id="text78"><tspan
         sodipodi:role="line"
         id="tspan76"
         x="96.194946"
         y="33.834076"
         style="stroke-width:0.26458332">+</tspan></text>
    <text
       xml:space="preserve"
       style="font-style:normal;font-weight:normal;font-size:10.58333302px;line-height:1.25;font-family:sans-serif;letter-spacing:0px;word-spacing:0px;fill:#000000;fill-opacity:1;stroke:none;stroke-width:0.26458332"
       x="54.806545"
       y="36.007439"
       id="text82"><tspan
         sodipodi:role="line"
         id="tspan80"
         x="54.806545"
         y="36.007439"
         style="stroke-width:0.26458332">+</tspan></text>
    <text
       xml:space="preserve"
       style="font-style:normal;font-weight:normal;font-size:10.58333302px;line-height:1.25;font-family:sans-serif;letter-spacing:0px;word-spacing:0px;fill:#000000;fill-opacity:1;stroke:none;stroke-width:0.26458332"
       x="10.29985"
       y="14.462797"
       id="text86"><tspan
         sodipodi:role="line"
         id="tspan84"
         x="10.29985"
         y="14.462797"
         style="stroke-width:0.26458332">-</tspan></text>
    <text
       xml:space="preserve"
       style="font-style:normal;font-weight:normal;font-size:3.05430889px;line-height:1.25;font-family:sans-serif;letter-spacing:0px;word-spacing:0px;fill:#000000;fill-opacity:1;stroke:none;stroke-width:0.07635771"
       x="1.0210388"
       y="6.2236967"
       id="text76"
       transform="rotate(90)"><tspan
         sodipodi:role="line"
         id="tspan74"
         x="1.0210388"
         y="6.2236967"
         style="font-style:normal;font-variant:normal;font-weight:normal;font-stretch:normal;font-size:12.21723557px;font-family:'Daniel Black';-inkscape-font-specification:'Daniel Black, ';stroke-width:0.07635771">TODO</tspan></text>
    <text
       xml:space="preserve"
       style="font-style:normal;font-weight:normal;font-size:3.05430913px;line-height:1.25;font-family:sans-serif;letter-spacing:0px;word-spacing:0px;fill:#000000;fill-opacity:1;stroke:none;stroke-width:0.07635771"
       x="1.0210375"
       y="-146.32292"
       id="text76-3"
       transform="rotate(90)"><tspan
         sodipodi:role="line"
         id="tspan74-6"
         x="1.0210375"
         y="-146.32292"
         style="font-style:normal;font-variant:normal;font-weight:normal;font-stretch:normal;font-size:12.21723652px;font-family:'Daniel Black';-inkscape-font-specification:'Daniel Black, ';stroke-width:0.07635771">TODO</tspan></text>
  </g>
</svg>
