<?xml version="1.0" encoding="UTF-8" standalone="no"?>
<svg
   xmlns:dc="http://purl.org/dc/elements/1.1/"
   xmlns:cc="http://creativecommons.org/ns#"
   xmlns:rdf="http://www.w3.org/1999/02/22-rdf-syntax-ns#"
   xmlns:svg="http://www.w3.org/2000/svg"
   xmlns="http://www.w3.org/2000/svg"
   xmlns:sodipodi="http://sodipodi.sourceforge.net/DTD/sodipodi-0.dtd"
   xmlns:inkscape="http://www.inkscape.org/namespaces/inkscape"
   aria-hidden="true"
   focusable="false"
   data-prefix="fas"
   data-icon="hourglass-half"
   class="svg-inline--fa fa-hourglass-half fa-w-12"
   role="img"
   viewBox="0 0 1636.2834 742.16766"
   version="1.1"
   id="svg4"
   sodipodi:docname="conclusion-time3.svg"
   inkscape:version="0.92.3 (2405546, 2018-03-11)"
   width="1636.2834"
   height="742.16766">
  <metadata
     id="metadata10">
    <rdf:RDF>
      <cc:Work
         rdf:about="">
        <dc:format>image/svg+xml</dc:format>
        <dc:type
           rdf:resource="http://purl.org/dc/dcmitype/StillImage" />
        <dc:title></dc:title>
      </cc:Work>
    </rdf:RDF>
  </metadata>
  <defs
     id="defs8" />
  <sodipodi:namedview
     pagecolor="#ffffff"
     bordercolor="#666666"
     borderopacity="1"
     objecttolerance="10"
     gridtolerance="10"
     guidetolerance="10"
     inkscape:pageopacity="0"
     inkscape:pageshadow="2"
     inkscape:window-width="1920"
     inkscape:window-height="1022"
     id="namedview6"
     showgrid="false"
     inkscape:zoom="0.32593203"
     inkscape:cx="1117.6783"
     inkscape:cy="514.24571"
     inkscape:window-x="0"
     inkscape:window-y="30"
     inkscape:window-maximized="1"
     inkscape:current-layer="svg4"
     fit-margin-top="0"
     fit-margin-left="0"
     fit-margin-right="0"
     fit-margin-bottom="0" />
  <path
     inkscape:connector-curvature="0"
     style="fill:#455a64;fill-opacity:1"
     d="m 1165.017,110.94697 c -159.06,0 -288.00005,128.94 -288.00005,288 0,52.8 14.25,102.26 39.06,144.8 5.61,9.62 16.3,15.2 27.44,15.2 h 442.99995 c 11.14,0 21.83,-5.58 27.44,-15.2 24.81,-42.54 39.06,-92 39.06,-144.8 0,-159.06 -128.94,-288 -287.9999,-288 z m 0,64 c 14.71,0 26.58,10.13 30.32,23.65 -1.11,2.26 -2.64,4.23 -3.45,6.67 l -9.22,27.67 c -5.13,3.49 -10.97,6.01 -17.64,6.01 -17.67,0 -32,-14.33 -32,-32 0,-17.67 14.32,-32 31.99,-32 z m -192.00005,288 c -17.67,0 -32,-14.33 -32,-32 0,-17.67 14.33,-32 32,-32 17.67,0 32.00005,14.33 32.00005,32 0,17.67 -14.33005,32 -32.00005,32 z m 48.00005,-160 c -17.67,0 -32.00005,-14.33 -32.00005,-32 0,-17.67 14.33005,-32 32.00005,-32 17.67,0 32,14.33 32,32 0,17.67 -14.33,32 -32,32 z m 246.7699,-72.41 -61.33,184 c 13.69,11.74 22.56,28.95 22.56,48.41 0,11.72 -3.38,22.55 -8.88,32 H 1109.897 c -5.5,-9.45 -8.88,-20.28 -8.88,-32 0,-33.94 26.5,-61.43 59.9,-63.59 l 61.3399,-184.01 c 4.17,-12.56 17.73,-19.45 30.36,-15.17 12.57,4.19 19.35,17.79 15.17,30.36 z m 14.66,57.2 15.52,-46.55 c 3.47,-1.29 7.13,-2.23 11.05,-2.23 17.67,0 32,14.33 32,32 0,17.67 -14.33,32 -32,32 -11.38,-0.01 -20.89,-6.28 -26.57,-15.22 z m 74.57,175.21 c -17.67,0 -32,-14.33 -32,-32 0,-17.67 14.33,-32 32,-32 17.67,0 32,14.33 32,32 0,17.67 -14.33,32 -32,32 z"
     id="path289" />
  <path
     inkscape:connector-curvature="0"
     d="M 360,76.77748 H 24 c -13.255,0 -24,10.745 -24,24 v 16 c 0,13.255 10.745,24 24,24 0,90.965 51.016,167.734 120.842,192 -69.826,24.266 -120.842,101.035 -120.842,192 -13.255,0 -24,10.745 -24,24 v 16 c 0,13.255 10.745,24 24,24 h 336 c 13.255,0 24,-10.745 24,-24 v -16 c 0,-13.255 -10.745,-24 -24,-24 0,-90.965 -51.016,-167.734 -120.842,-192 69.826,-24.266 120.842,-101.035 120.842,-192 13.255,0 24,-10.745 24,-24 v -16 c 0,-13.255 -10.745,-24 -24,-24 z m -75.078,384 H 99.08 c 17.059,-46.797 52.096,-80 92.92,-80 40.821,0 75.862,33.196 92.922,80 z m 0.019,-256 H 99.078 c -7.09,-19.452 -11.078,-41.252 -11.078,-64 h 208 c 0,22.805 -3.987,44.587 -11.059,64 z"
     id="path2"
     style="fill:#455a64;fill-opacity:1" />
  <path
     inkscape:connector-curvature="0"
     style="fill:#0288d1;fill-opacity:1"
     d="m 488.10742,608.10794 v -301.941 c 0,-6.627 -5.373,-12 -12,-12 h -55.99999 c -6.627,0 -12,5.373 -12,12 v 301.941 h -46.059 c -21.382,0 -32.09,25.851 -16.971,40.971 l 86.059,86.059 c 9.37299,9.373 24.56899,9.373 33.94099,0 l 86.059,-86.059 c 15.119,-15.119 4.411,-40.971 -16.971,-40.971 z"
     id="path1167" />
  <path
     inkscape:connector-curvature="0"
     style="fill:#0288d1;fill-opacity:1"
     d="m 1486.176,134.05975 v 301.941 c 0,6.627 5.373,12 12,12 h 56 c 6.627,0 12,-5.373 12,-12 v -301.941 h 46.059 c 21.382,0 32.09,-25.851 16.971,-40.971002 L 1543.147,7.02975 c -9.373,-9.373 -24.569,-9.373 -33.941,0 l -86.059,86.058998 c -15.119,15.119002 -4.411,40.971002 16.971,40.971002 z"
     id="path2987" />
</svg>
