<?xml version="1.0" encoding="UTF-8" standalone="no"?>
<svg
   xmlns:dc="http://purl.org/dc/elements/1.1/"
   xmlns:cc="http://creativecommons.org/ns#"
   xmlns:rdf="http://www.w3.org/1999/02/22-rdf-syntax-ns#"
   xmlns:svg="http://www.w3.org/2000/svg"
   xmlns="http://www.w3.org/2000/svg"
   xmlns:sodipodi="http://sodipodi.sourceforge.net/DTD/sodipodi-0.dtd"
   xmlns:inkscape="http://www.inkscape.org/namespaces/inkscape"
   aria-hidden="true"
   focusable="false"
   data-prefix="fas"
   data-icon="hourglass-half"
   class="svg-inline--fa fa-hourglass-half fa-w-12"
   role="img"
   viewBox="0 0 1691.0438 660.49548"
   version="1.1"
   id="svg4"
   sodipodi:docname="conclusion-time.svg"
   inkscape:version="0.92.3 (2405546, 2018-03-11)"
   width="1691.0438"
   height="660.49548">
  <metadata
     id="metadata10">
    <rdf:RDF>
      <cc:Work
         rdf:about="">
        <dc:format>image/svg+xml</dc:format>
        <dc:type
           rdf:resource="http://purl.org/dc/dcmitype/StillImage" />
        <dc:title />
      </cc:Work>
    </rdf:RDF>
  </metadata>
  <defs
     id="defs8" />
  <sodipodi:namedview
     pagecolor="#ffffff"
     bordercolor="#666666"
     borderopacity="1"
     objecttolerance="10"
     gridtolerance="10"
     guidetolerance="10"
     inkscape:pageopacity="0"
     inkscape:pageshadow="2"
     inkscape:window-width="1920"
     inkscape:window-height="1022"
     id="namedview6"
     showgrid="false"
     inkscape:zoom="0.32593203"
     inkscape:cx="-115.35218"
     inkscape:cy="659.83279"
     inkscape:window-x="0"
     inkscape:window-y="30"
     inkscape:window-maximized="1"
     inkscape:current-layer="svg4"
     fit-margin-top="0"
     fit-margin-left="0"
     fit-margin-right="0"
     fit-margin-bottom="0" />
  <g
     id="g2927"
     transform="translate(-18.408746,-227.25929)">
    <path
       style="fill:#455a64;fill-opacity:1;stroke-width:0.58777571"
       id="path2"
       d="M 230.00799,317.31814 H 32.515362 c -7.790966,0 -14.106616,6.31565 -14.106616,14.10661 v 9.40441 c 0,7.79097 6.31565,14.10662 14.106616,14.10662 0,53.46702 29.985964,98.58997 71.027988,112.85293 -41.042024,14.26297 -71.027988,59.38592 -71.027988,112.85293 -7.790966,0 -14.106616,6.31565 -14.106616,14.10662 v 9.40441 c 0,7.79097 6.31565,14.10662 14.106616,14.10662 H 230.00799 c 7.79097,0 14.10662,-6.31565 14.10662,-14.10662 v -9.40441 c 0,-7.79097 -6.31565,-14.10662 -14.10662,-14.10662 0,-53.46701 -29.98596,-98.58996 -71.02798,-112.85293 41.04202,-14.26296 71.02798,-59.38591 71.02798,-112.85293 7.79097,0 14.10662,-6.31565 14.10662,-14.10662 v -9.40441 c 0,-7.79096 -6.31565,-14.10661 -14.10662,-14.10661 z M 185.87897,543.024 H 76.64556 c 10.026866,-27.50614 30.62076,-47.02206 54.61612,-47.02206 23.99359,0 44.58984,19.51181 54.61729,47.02206 z m 0.0112,-150.47058 H 76.644385 C 72.477055,381.12001 70.133006,368.3065 70.133006,354.93578 H 192.39035 c 0,13.40423 -2.34346,26.20715 -6.50021,37.61764 z"
       inkscape:connector-curvature="0" />
    <path
       id="path1167"
       d="M 305.30642,629.62126 V 452.14768 c 0,-3.89519 -3.15812,-7.05331 -7.05331,-7.05331 h -32.91543 c -3.89519,0 -7.05331,3.15812 -7.05331,7.05331 v 177.47358 h -27.07236 c -12.56782,0 -18.86172,15.19459 -9.97514,24.08176 l 50.58339,50.58338 c 5.50921,5.50923 14.44105,5.50923 19.94969,0 l 50.58338,-50.58338 c 8.88658,-8.88658 2.59268,-24.08176 -9.97514,-24.08176 z"
       style="fill:#0288d1;fill-opacity:1;stroke-width:0.58777571"
       inkscape:connector-curvature="0" />
  </g>
  <g
     id="g2931"
     transform="matrix(0.69952969,0,0,0.69952969,546.41496,0)">
    <path
       id="path289"
       d="m 1165.017,110.94697 c -159.06,0 -288.00005,128.94 -288.00005,288 0,52.8 14.25,102.26 39.06,144.8 5.61,9.62 16.3,15.2 27.44,15.2 h 442.99995 c 11.14,0 21.83,-5.58 27.44,-15.2 24.81,-42.54 39.06,-92 39.06,-144.8 0,-159.06 -128.94,-288 -287.9999,-288 z m 0,64 c 14.71,0 26.58,10.13 30.32,23.65 -1.11,2.26 -2.64,4.23 -3.45,6.67 l -9.22,27.67 c -5.13,3.49 -10.97,6.01 -17.64,6.01 -17.67,0 -32,-14.33 -32,-32 0,-17.67 14.32,-32 31.99,-32 z m -192.00005,288 c -17.67,0 -32,-14.33 -32,-32 0,-17.67 14.33,-32 32,-32 17.67,0 32.00005,14.33 32.00005,32 0,17.67 -14.33005,32 -32.00005,32 z m 48.00005,-160 c -17.67,0 -32.00005,-14.33 -32.00005,-32 0,-17.67 14.33005,-32 32.00005,-32 17.67,0 32,14.33 32,32 0,17.67 -14.33,32 -32,32 z m 246.7699,-72.41 -61.33,184 c 13.69,11.74 22.56,28.95 22.56,48.41 0,11.72 -3.38,22.55 -8.88,32 H 1109.897 c -5.5,-9.45 -8.88,-20.28 -8.88,-32 0,-33.94 26.5,-61.43 59.9,-63.59 l 61.3399,-184.01 c 4.17,-12.56 17.73,-19.45 30.36,-15.17 12.57,4.19 19.35,17.79 15.17,30.36 z m 14.66,57.2 15.52,-46.55 c 3.47,-1.29 7.13,-2.23 11.05,-2.23 17.67,0 32,14.33 32,32 0,17.67 -14.33,32 -32,32 -11.38,-0.01 -20.89,-6.28 -26.57,-15.22 z m 74.57,175.21 c -17.67,0 -32,-14.33 -32,-32 0,-17.67 14.33,-32 32,-32 17.67,0 32,14.33 32,32 0,17.67 -14.33,32 -32,32 z"
       style="fill:#455a64;fill-opacity:1"
       inkscape:connector-curvature="0" />
    <path
       id="path2987"
       d="m 1486.176,134.05975 v 301.941 c 0,6.627 5.373,12 12,12 h 56 c 6.627,0 12,-5.373 12,-12 v -301.941 h 46.059 c 21.382,0 32.09,-25.851 16.971,-40.971002 L 1543.147,7.02975 c -9.373,-9.373 -24.569,-9.373 -33.941,0 l -86.059,86.058998 c -15.119,15.119002 -4.411,40.971002 16.971,40.971002 z"
       style="fill:#0288d1;fill-opacity:1"
       inkscape:connector-curvature="0" />
  </g>
  <text
     xml:space="preserve"
     style="font-style:normal;font-weight:normal;font-size:40px;line-height:1.25;font-family:sans-serif;letter-spacing:0px;word-spacing:0px;fill:#455a64;fill-opacity:1;stroke:none;stroke-width:0.99999994"
     x="164.31372"
     y="576.62878"
     id="text1218"><tspan
       sodipodi:role="line"
       x="164.31372"
       y="576.62878"
       style="font-style:normal;font-variant:normal;font-weight:bold;font-stretch:normal;font-size:66.66667175px;font-family:Lato;-inkscape-font-specification:'Lato Bold';text-align:center;text-anchor:middle;fill:#455a64;fill-opacity:1;stroke-width:0.99999994"
       id="tspan20">Waiting</tspan><tspan
       sodipodi:role="line"
       x="164.31372"
       y="659.9621"
       style="font-style:normal;font-variant:normal;font-weight:bold;font-stretch:normal;font-size:66.66667175px;font-family:Lato;-inkscape-font-specification:'Lato Bold';text-align:center;text-anchor:middle;fill:#455a64;fill-opacity:1;stroke-width:0.99999994"
       id="tspan24">time</tspan></text>
  <text
     xml:space="preserve"
     style="font-style:normal;font-weight:normal;font-size:40px;line-height:1.25;font-family:sans-serif;letter-spacing:0px;word-spacing:0px;fill:#455a64;fill-opacity:1;stroke:none;stroke-width:0.99999994"
     x="1422.8073"
     y="612.97876"
     id="text1218-3"><tspan
       sodipodi:role="line"
       x="1422.8073"
       y="612.97876"
       style="font-style:normal;font-variant:normal;font-weight:bold;font-stretch:normal;font-size:66.66667175px;font-family:Lato;-inkscape-font-specification:'Lato Bold';text-align:center;text-anchor:middle;fill:#455a64;fill-opacity:1;stroke-width:0.99999994"
       id="tspan1036">Productivity</tspan></text>
</svg>
