<?xml version="1.0" encoding="UTF-8" standalone="no"?>
<!-- Created with Inkscape (http://www.inkscape.org/) -->

<svg
   xmlns:dc="http://purl.org/dc/elements/1.1/"
   xmlns:cc="http://creativecommons.org/ns#"
   xmlns:rdf="http://www.w3.org/1999/02/22-rdf-syntax-ns#"
   xmlns:svg="http://www.w3.org/2000/svg"
   xmlns="http://www.w3.org/2000/svg"
   xmlns:sodipodi="http://sodipodi.sourceforge.net/DTD/sodipodi-0.dtd"
   xmlns:inkscape="http://www.inkscape.org/namespaces/inkscape"
   width="418.5824mm"
   height="115.73162mm"
   viewBox="0 0 418.5824 115.73162"
   version="1.1"
   id="svg8"
   inkscape:version="0.92.3 (2405546, 2018-03-11)"
   sodipodi:docname="controller-2.svg">
  <defs
     id="defs2">
    <marker
       inkscape:stockid="SquareL"
       orient="auto"
       refY="0"
       refX="0"
       id="SquareL"
       style="overflow:visible"
       inkscape:isstock="true">
      <path
         id="path899"
         d="M -5,-5 V 5 H 5 V -5 Z"
         style="fill-rule:evenodd;stroke:#000000;stroke-width:1.00000003pt"
         transform="scale(0.8)"
         inkscape:connector-curvature="0" />
    </marker>
  </defs>
  <sodipodi:namedview
     id="base"
     pagecolor="#ffffff"
     bordercolor="#666666"
     borderopacity="1.0"
     inkscape:pageopacity="0.0"
     inkscape:pageshadow="2"
     inkscape:zoom="0.35355339"
     inkscape:cx="313.8928"
     inkscape:cy="431.6575"
     inkscape:document-units="mm"
     inkscape:current-layer="layer1"
     showgrid="false"
     fit-margin-top="0"
     fit-margin-left="0"
     fit-margin-right="0"
     fit-margin-bottom="0"
     inkscape:window-width="1920"
     inkscape:window-height="1022"
     inkscape:window-x="0"
     inkscape:window-y="30"
     inkscape:window-maximized="1" />
  <metadata
     id="metadata5">
    <rdf:RDF>
      <cc:Work
         rdf:about="">
        <dc:format>image/svg+xml</dc:format>
        <dc:type
           rdf:resource="http://purl.org/dc/dcmitype/StillImage" />
        <dc:title></dc:title>
      </cc:Work>
    </rdf:RDF>
  </metadata>
  <g
     inkscape:label="Laag 1"
     inkscape:groupmode="layer"
     id="layer1"
     transform="translate(184.57634,-18.130986)">
    <text
       xml:space="preserve"
       style="font-style:normal;font-weight:normal;font-size:10.58333302px;line-height:1.25;font-family:sans-serif;letter-spacing:0px;word-spacing:0px;fill:#455a64;fill-opacity:1;stroke:none;stroke-width:0.26458332"
       x="-172.44339"
       y="130.67879"
       id="text1218"><tspan
         sodipodi:role="line"
         id="tspan1216"
         x="-172.44339"
         y="130.67879"
         style="font-style:normal;font-variant:normal;font-weight:bold;font-stretch:normal;font-size:17.63888931px;font-family:Lato;-inkscape-font-specification:'Lato Bold';fill:#455a64;fill-opacity:1;stroke-width:0.26458332">Routing</tspan></text>
    <text
       xml:space="preserve"
       style="font-style:normal;font-weight:normal;font-size:10.58333302px;line-height:1.25;font-family:sans-serif;letter-spacing:0px;word-spacing:0px;fill:#455a64;fill-opacity:1;stroke:none;stroke-width:0.26458332"
       x="191.33636"
       y="130.78903"
       id="text1218-3"><tspan
         sodipodi:role="line"
         x="191.33636"
         y="130.78903"
         style="font-style:normal;font-variant:normal;font-weight:bold;font-stretch:normal;font-size:17.63888931px;font-family:Lato;-inkscape-font-specification:'Lato Bold';text-align:center;text-anchor:middle;fill:#455a64;fill-opacity:1;stroke-width:0.26458332"
         id="tspan1036">Analysis</tspan></text>
    <path
       inkscape:connector-curvature="0"
       style="fill:#455a64;fill-opacity:1;stroke-width:0.16957736"
       d="m -114.03215,72.395742 h -16.27943 c -2.98456,0 -5.42648,-2.441911 -5.42648,-5.426473 0,-2.984561 2.44192,-5.426475 5.42648,-5.426475 h 16.27943 c 0,0 16.279416,-18.144778 16.279416,-27.132379 0,-8.987601 -7.291826,-16.279429 -16.279416,-16.279429 -8.98761,0 -16.27943,7.291828 -16.27943,16.279429 0,4.324223 3.76462,10.751205 7.68185,16.279427 h -7.68185 c -8.97064,0 -16.27943,7.308785 -16.27943,16.279427 0,8.970646 7.30879,16.279429 16.27943,16.279429 h 16.27943 c 2.98455,0 5.42647,2.441914 5.42647,5.426471 0,2.984569 -2.44192,5.426467 -5.42647,5.426467 h -39.08759 c -2.71324,4.205496 -5.73171,8.088804 -8.02101,10.852914 h 47.1086 c 8.97063,0 16.279416,-7.308765 16.279416,-16.279381 0,-8.970637 -7.308786,-16.279427 -16.279416,-16.279427 z m 0,-43.411803 c 3.00151,0 5.42647,2.424957 5.42647,5.426476 0,3.00152 -2.42496,5.426476 -5.42647,5.426476 -3.00153,0 -5.42648,-2.424956 -5.42648,-5.426476 0,-3.001519 2.42495,-5.426476 5.42648,-5.426476 z m -54.26476,32.558855 c -8.98761,0 -16.27943,7.291827 -16.27943,16.279426 0,8.987603 16.27943,27.13233 16.27943,27.13233 0,0 16.27942,-18.144727 16.27942,-27.13233 0,-8.987599 -7.29182,-16.279426 -16.27942,-16.279426 z m 0,21.705904 c -3.00153,0 -5.42648,-2.424955 -5.42648,-5.426478 0,-3.001516 2.42495,-5.426478 5.42648,-5.426478 3.00151,0 5.42648,2.424962 5.42648,5.426478 0,3.001523 -2.42497,5.426478 -5.42648,5.426478 z"
       id="path124" />
    <path
       style="fill:#455a64;fill-opacity:1;stroke-width:0.09978829"
       d="m 149.8889,104.8724 c -0.57818,-0.1162 -1.16628,-0.53259 -1.54553,-1.09427 l -0.30056,-0.44515 -0.0299,-10.178403 c -0.0202,-6.878215 0.004,-10.295066 0.0745,-10.538213 0.15514,-0.534519 0.824,-1.239561 1.37918,-1.453776 0.43561,-0.168074 0.87783,-0.182184 5.71106,-0.182184 4.15453,0 5.31811,0.02802 5.62165,0.1353 0.54383,0.192235 1.05808,0.680368 1.32846,1.26101 l 0.23269,0.499671 V 92.955 103.03362 l -0.23423,0.50302 c -0.12884,0.27666 -0.3866,0.63147 -0.57281,0.78848 -0.7366,0.62106 -0.55769,0.60292 -6.12629,0.621 -2.79906,0.009 -5.29128,-0.0241 -5.53826,-0.0737 z m 23.98177,0.005 c -0.79143,-0.1613 -1.43782,-0.65867 -1.79919,-1.38441 -0.17086,-0.34314 -0.17926,-1.39724 -0.17926,-22.512994 V 58.827393 l 0.21538,-0.399156 c 0.28197,-0.522529 0.6779,-0.888873 1.23155,-1.139491 0.43364,-0.196292 0.63052,-0.203266 5.73782,-0.203266 5.93096,0 5.72064,-0.02403 6.46134,0.738631 0.73705,0.758925 0.67353,-1.424328 0.67353,23.149616 0,18.538752 -0.0222,22.169303 -0.1372,22.444543 -0.20786,0.49749 -0.7159,1.02222 -1.23927,1.28001 l -0.46961,0.2313 -5.03931,0.0166 c -2.77162,0.009 -5.22673,-0.0216 -5.45578,-0.0684 z m 23.84939,-2e-5 c -0.55329,-0.11274 -0.91357,-0.31038 -1.29981,-0.71303 -0.67146,-0.70001 -0.62874,0.22446 -0.62874,-13.604678 0,-10.405213 0.0232,-12.585517 0.1372,-12.858202 0.20787,-0.497488 0.71591,-1.022227 1.23928,-1.280007 l 0.46961,-0.231304 h 5.28878 c 5.15944,0 5.29976,0.0052 5.73783,0.209074 0.52414,0.244037 1.01452,0.718725 1.26767,1.227123 0.16964,0.340681 0.17925,1.037128 0.17925,12.98321 0,14.080534 0.0618,12.854164 -0.68494,13.600894 -0.74311,0.7431 -0.52142,0.71681 -6.20045,0.73525 -2.79906,0.009 -5.27661,-0.0216 -5.50568,-0.0684 z m 23.78414,-0.0387 c -0.69667,-0.19095 -1.26127,-0.62749 -1.55847,-1.20497 l -0.25492,-0.49536 -0.0256,-22.003191 c -0.0289,-24.835639 -0.10312,-22.598249 0.7758,-23.388482 0.28218,-0.253707 0.66699,-0.487451 0.91598,-0.556386 0.3139,-0.08691 1.85189,-0.110925 5.71816,-0.08929 4.77999,0.02674 5.31897,0.04612 5.6025,0.201309 0.45605,0.249619 0.93703,0.762935 1.14608,1.223106 0.17482,0.384839 0.18232,1.309741 0.18232,22.454581 0,21.128853 -0.008,22.069943 -0.18195,22.452373 -0.26688,0.58546 -0.62896,0.97035 -1.17537,1.24943 l -0.48438,0.24739 -5.0892,0.0208 c -3.96475,0.0161 -5.19564,-0.008 -5.57094,-0.11128 z M 153.83054,66.591292 c -2.80538,-0.651417 -4.73444,-2.394893 -5.55403,-5.019709 -0.19953,-0.639013 -0.23311,-0.952627 -0.22964,-2.145443 0.004,-1.264314 0.0304,-1.47288 0.28176,-2.195345 0.39571,-1.137527 0.7958,-1.782073 1.6741,-2.696932 1.63943,-1.70766 3.99256,-2.513024 6.19243,-2.119367 l 0.76801,0.137434 7.58843,-7.589506 7.58841,-7.589498 -0.11844,-0.399152 c -0.0652,-0.219537 -0.11682,-0.893109 -0.11483,-1.496828 0.007,-1.985176 0.64444,-3.47229 2.12189,-4.946911 0.94962,-0.947807 1.56368,-1.338654 2.75322,-1.75245 0.72246,-0.251321 0.93103,-0.278091 2.19534,-0.28176 1.19282,-0.0034 1.50644,0.03009 2.14544,0.229633 2.05649,0.642132 3.56071,1.95789 4.49369,3.930669 0.43117,0.911713 0.61543,1.876003 0.57773,3.023512 l -0.0321,0.976878 7.06738,5.646985 c 3.88707,3.10584 7.14266,5.638672 7.23466,5.628516 0.092,-0.01015 0.43669,-0.09238 0.76599,-0.182704 0.92009,-0.252387 2.60631,-0.237648 3.5612,0.03112 l 0.76712,0.215916 7.06626,-5.654894 7.06625,-5.654894 0.008,-1.153642 c 0.009,-1.332887 0.17723,-2.077926 0.71022,-3.140765 0.85797,-1.710854 2.30768,-2.967538 4.17183,-3.61635 0.73289,-0.25508 0.91688,-0.277664 2.24524,-0.2756 1.29881,0.0019 1.52865,0.02953 2.24524,0.268769 1.13795,0.379926 1.98422,0.907864 2.84396,1.774198 0.8699,0.87656 1.39477,1.718948 1.76846,2.838224 0.23924,0.716583 0.26676,0.946435 0.26877,2.245239 0.002,1.328354 -0.0205,1.512351 -0.2756,2.245238 -0.32874,0.94453 -0.63033,1.49128 -1.25288,2.271364 -0.89023,1.115489 -2.30982,2.04563 -3.71061,2.431277 -0.93095,0.25629 -2.89972,0.238299 -3.81258,-0.03481 l -0.6779,-0.202828 -7.06873,5.650783 -7.06872,5.650783 0.0513,0.802082 c 0.20883,3.265157 -2.25832,6.523986 -5.51636,7.286498 -0.81849,0.19156 -2.35923,0.214611 -3.19725,0.04784 -0.32557,-0.06479 -1.04248,-0.335138 -1.59311,-0.60077 -1.62521,-0.783995 -2.89096,-2.12857 -3.57122,-3.79359 -0.37797,-0.925136 -0.46168,-1.401397 -0.46481,-2.64439 l -0.003,-1.097672 -7.06515,-5.654996 -7.06515,-5.654989 -0.69307,0.196059 c -0.96006,0.271595 -2.2282,0.340079 -3.05665,0.16508 l -0.66717,-0.140931 -7.57281,7.590551 -7.57281,7.590547 0.13584,0.59873 c 0.16522,0.728239 0.10266,2.230344 -0.12885,3.093432 -0.66312,2.472231 -2.62885,4.386616 -5.1721,5.037023 -0.74965,0.191719 -2.5213,0.267307 -3.10241,0.132369 z"
       id="path1017"
       inkscape:connector-curvature="0" />
  </g>
</svg>
