<?xml version="1.0" encoding="UTF-8" standalone="no"?>
<svg
   xmlns:dc="http://purl.org/dc/elements/1.1/"
   xmlns:cc="http://creativecommons.org/ns#"
   xmlns:rdf="http://www.w3.org/1999/02/22-rdf-syntax-ns#"
   xmlns:svg="http://www.w3.org/2000/svg"
   xmlns="http://www.w3.org/2000/svg"
   xmlns:sodipodi="http://sodipodi.sourceforge.net/DTD/sodipodi-0.dtd"
   xmlns:inkscape="http://www.inkscape.org/namespaces/inkscape"
   aria-hidden="true"
   focusable="false"
   data-prefix="fas"
   data-icon="list-ol"
   class="svg-inline--fa fa-list-ol fa-w-16"
   role="img"
   viewBox="0 0 5556.4854 3279.4963"
   version="1.1"
   id="svg4"
   sodipodi:docname="metapredictor-all.svg"
   width="5556.4854"
   height="3279.4963"
   inkscape:version="0.92.3 (2405546, 2018-03-11)">
  <metadata
     id="metadata10">
    <rdf:RDF>
      <cc:Work
         rdf:about="">
        <dc:format>image/svg+xml</dc:format>
        <dc:type
           rdf:resource="http://purl.org/dc/dcmitype/StillImage" />
        <dc:title></dc:title>
      </cc:Work>
    </rdf:RDF>
  </metadata>
  <defs
     id="defs8" />
  <sodipodi:namedview
     pagecolor="#ffffff"
     bordercolor="#666666"
     borderopacity="1"
     objecttolerance="10"
     gridtolerance="10"
     guidetolerance="10"
     inkscape:pageopacity="0"
     inkscape:pageshadow="2"
     inkscape:window-width="1920"
     inkscape:window-height="1022"
     id="namedview6"
     showgrid="false"
     showguides="true"
     inkscape:guide-bbox="true"
     fit-margin-top="0"
     fit-margin-left="0"
     fit-margin-right="0"
     fit-margin-bottom="0"
     inkscape:zoom="0.16296602"
     inkscape:cx="2641.6118"
     inkscape:cy="1290.0064"
     inkscape:window-x="0"
     inkscape:window-y="30"
     inkscape:window-maximized="1"
     inkscape:current-layer="svg4" />
  <g
     id="g115"
     transform="translate(0,-75.38983)"
     style="fill:#455a64;fill-opacity:1">
    <path
       style="fill:#455a64;fill-opacity:1"
       inkscape:connector-curvature="0"
       id="path2"
       d="m 61.77,444.38983 17.5,-20.15 a 19.92,19.92 0 0 0 5.07,-14.19 v -3.31 c 0,-7.35 -3.84,-11.35 -11.34,-11.35 H 16 a 8,8 0 0 0 -8,8 v 16 a 8,8 0 0 0 8,8 h 22.83 a 157.41,157.41 0 0 0 -11,12.31 l -5.61,7 c -4,5.07 -5.25,10.13 -2.8,14.88 l 1.05,1.93 c 3,5.76 6.29,7.88 12.25,7.88 h 4.73 c 10.33,0 15.94,2.44 15.94,9.09 0,4.72 -4.2,8.22 -14.36,8.22 a 41.54,41.54 0 0 1 -15.47,-3.12 c -6.49,-3.88 -11.74,-3.5 -15.6,3.12 l -5.59,9.31 c -3.72,6.13 -3.19,11.72 2.63,15.94 7.71,4.69 20.38,9.44 37,9.44 34.16,0 48.5,-22.75 48.5,-44.12 -0.03,-14.38 -9.12,-29.76 -28.73,-34.88 z m 434.23,-177 H 176 a 16,16 0 0 0 -16,16 v 32 a 16,16 0 0 0 16,16 h 320 a 16,16 0 0 0 16,-16 v -32 a 16,16 0 0 0 -16,-16 z m 0,-160 H 176 a 16,16 0 0 0 -16,16 v 32 a 16,16 0 0 0 16,16 h 320 a 16,16 0 0 0 16,-16 v -32 a 16,16 0 0 0 -16,-16 z m 0,320 H 176 a 16,16 0 0 0 -16,16 v 32 a 16,16 0 0 0 16,16 h 320 a 16,16 0 0 0 16,-16 v -32 a 16,16 0 0 0 -16,-16 z m -480,-224 h 64 a 8,8 0 0 0 8,-8 v -16 a 8,8 0 0 0 -8,-8 H 64 V 83.389832 a 8,8 0 0 0 -8,-8 H 32 a 8,8 0 0 0 -7.14,4.42 l -8,16 A 8,8 0 0 0 24,107.38983 h 8 v 64 H 16 a 8,8 0 0 0 -8,8 v 16 a 8,8 0 0 0 8,8 z m -3.91,160 H 80 a 8,8 0 0 0 8,-8 v -16 a 8,8 0 0 0 -8,-8 H 41.32 c 3.29,-10.29 48.34,-18.68 48.34,-56.44 0,-29.06 -25,-39.56 -44.47,-39.56 -21.36,0 -33.8,10 -40.46,18.75 -4.37,5.59 -3,10.84 2.8,15.37 l 8.58,6.88 c 5.61,4.56 11,2.47 16.12,-2.44 a 13.44,13.44 0 0 1 9.46,-3.84 c 3.33,0 9.28,1.56 9.28,8.75 0.03,12.72 -50.97,21.84 -50.97,69.12 v 4 c 0,7.41 5.08,11.41 12.09,11.41 z" />
    <path
       id="path2-3"
       d="m 833.02425,444.38983 17.5,-20.15 a 19.92,19.92 0 0 0 5.07,-14.19 v -3.31 c 0,-7.35 -3.84,-11.35 -11.34,-11.35 h -57 a 8,8 0 0 0 -8,8 v 16 a 8,8 0 0 0 8,8 h 22.83 a 157.41,157.41 0 0 0 -11,12.31 l -5.61,7 c -4,5.07 -5.25,10.13 -2.8,14.88 l 1.05,1.93 c 3,5.76 6.29,7.88 12.25,7.88 h 4.73 c 10.33,0 15.94,2.44 15.94,9.09 0,4.72 -4.2,8.22 -14.36,8.22 a 41.54,41.54 0 0 1 -15.47,-3.12 c -6.49,-3.88 -11.74,-3.5 -15.6,3.12 l -5.59,9.31 c -3.72,6.13 -3.19,11.72 2.63,15.94 7.71,4.69 20.38,9.44 37,9.44 34.16,0 48.5,-22.75 48.5,-44.12 -0.03,-14.38 -9.12,-29.76 -28.73,-34.88 z m 434.22995,-177 H 947.25424 a 16,16 0 0 0 -16,16 v 32 a 16,16 0 0 0 16,16 h 319.99996 a 16,16 0 0 0 16,-16 v -32 a 16,16 0 0 0 -16,-16 z m 0,-160 H 947.25424 a 16,16 0 0 0 -16,16 v 32 a 16,16 0 0 0 16,16 h 319.99996 a 16,16 0 0 0 16,-16 v -32 a 16,16 0 0 0 -16,-16 z m 0,320 H 947.25424 a 16,16 0 0 0 -16,16 v 32 a 16,16 0 0 0 16,16 h 319.99996 a 16,16 0 0 0 16,-16 v -32 a 16,16 0 0 0 -16,-16 z m -479.99995,-224 h 64 a 8,8 0 0 0 8,-8 v -16 a 8,8 0 0 0 -8,-8 h -16 V 83.389831 a 8,8 0 0 0 -8,-8 h -24 a 8,8 0 0 0 -7.14,4.42 l -8,16 a 8,8 0 0 0 7.14,11.579999 h 8 v 64 h -16 a 8,8 0 0 0 -8,8 v 16 a 8,8 0 0 0 8,8 z m -3.91,160 h 67.91 a 8,8 0 0 0 8,-8 v -16 a 8,8 0 0 0 -8,-8 h -38.68 c 3.29,-10.29 48.34,-18.68 48.34,-56.44 0,-29.06 -25,-39.56 -44.47,-39.56 -21.36,0 -33.8,10 -40.46,18.75 -4.37,5.59 -3,10.84 2.8,15.37 l 8.58,6.88 c 5.61,4.56 11,2.47 16.12,-2.44 a 13.44,13.44 0 0 1 9.46,-3.84 c 3.33,0 9.28,1.56 9.28,8.75 0.03,12.72 -50.97,21.84 -50.97,69.12 v 4 c 0,7.41 5.08,11.41 12.09,11.41 z"
       style="fill:#455a64;fill-opacity:1"
       inkscape:connector-curvature="0" />
    <path
       id="path2-35"
       d="m 1604.2786,444.38983 17.5,-20.15 a 19.92,19.92 0 0 0 5.07,-14.19 v -3.31 c 0,-7.35 -3.84,-11.35 -11.34,-11.35 h -57 a 8,8 0 0 0 -8,8 v 16 a 8,8 0 0 0 8,8 h 22.83 a 157.41,157.41 0 0 0 -11,12.31 l -5.61,7 c -4,5.07 -5.25,10.13 -2.8,14.88 l 1.05,1.93 c 3,5.76 6.29,7.88 12.25,7.88 h 4.73 c 10.33,0 15.94,2.44 15.94,9.09 0,4.72 -4.2,8.22 -14.36,8.22 a 41.54,41.54 0 0 1 -15.47,-3.12 c -6.49,-3.88 -11.74,-3.5 -15.6,3.12 l -5.59,9.31 c -3.72,6.13 -3.19,11.72 2.63,15.94 7.71,4.69 20.38,9.44 37,9.44 34.16,0 48.5,-22.75 48.5,-44.12 -0.03,-14.38 -9.12,-29.76 -28.73,-34.88 z m 434.23,-177 h -320 a 16,16 0 0 0 -16,16 v 32 a 16,16 0 0 0 16,16 h 320 a 16,16 0 0 0 16,-16 v -32 a 16,16 0 0 0 -16,-16 z m 0,-160 h -320 a 16,16 0 0 0 -16,16 v 32 a 16,16 0 0 0 16,16 h 320 a 16,16 0 0 0 16,-16 v -32 a 16,16 0 0 0 -16,-16 z m 0,320 h -320 a 16,16 0 0 0 -16,16 v 32 a 16,16 0 0 0 16,16 h 320 a 16,16 0 0 0 16,-16 v -32 a 16,16 0 0 0 -16,-16 z m -480,-224 h 64 a 8,8 0 0 0 8,-8 v -16 a 8,8 0 0 0 -8,-8 h -16 v -88 a 8,8 0 0 0 -8,-8 h -24 a 8,8 0 0 0 -7.14,4.42 l -8,16 a 8,8 0 0 0 7.14,11.58 h 8 v 64 h -16 a 8,8 0 0 0 -8,8 v 16 a 8,8 0 0 0 8,8 z m -3.91,160 h 67.91 a 8,8 0 0 0 8,-8 v -16 a 8,8 0 0 0 -8,-8 h -38.68 c 3.29,-10.29 48.34,-18.68 48.34,-56.44 0,-29.06 -25,-39.56 -44.47,-39.56 -21.36,0 -33.8,10 -40.46,18.75 -4.37,5.59 -3,10.84 2.8,15.37 l 8.58,6.88 c 5.61,4.56 11,2.47 16.12,-2.44 a 13.44,13.44 0 0 1 9.46,-3.84 c 3.33,0 9.28,1.56 9.28,8.75 0.03,12.72 -50.97,21.84 -50.97,69.12 v 4 c 0,7.41 5.08,11.41 12.09,11.41 z"
       style="fill:#455a64;fill-opacity:1"
       inkscape:connector-curvature="0" />
    <path
       id="path2-62"
       d="m 2375.5326,444.38983 17.5,-20.15 a 19.92,19.92 0 0 0 5.07,-14.19 v -3.31 c 0,-7.35 -3.84,-11.35 -11.34,-11.35 h -57 a 8,8 0 0 0 -8,8 v 16 a 8,8 0 0 0 8,8 h 22.83 a 157.41,157.41 0 0 0 -11,12.31 l -5.61,7 c -4,5.07 -5.25,10.13 -2.8,14.88 l 1.05,1.93 c 3,5.76 6.29,7.88 12.25,7.88 h 4.73 c 10.33,0 15.94,2.44 15.94,9.09 0,4.72 -4.2,8.22 -14.36,8.22 a 41.54,41.54 0 0 1 -15.47,-3.12 c -6.49,-3.88 -11.74,-3.5 -15.6,3.12 l -5.59,9.31 c -3.72,6.13 -3.19,11.72 2.63,15.94 7.71,4.69 20.38,9.44 37,9.44 34.16,0 48.5,-22.75 48.5,-44.12 -0.03,-14.38 -9.12,-29.76 -28.73,-34.88 z m 434.23,-177 h -320 a 16,16 0 0 0 -16,16 v 32 a 16,16 0 0 0 16,16 h 320 a 16,16 0 0 0 16,-16 v -32 a 16,16 0 0 0 -16,-16 z m 0,-160 h -320 a 16,16 0 0 0 -16,16 v 32 a 16,16 0 0 0 16,16 h 320 a 16,16 0 0 0 16,-16 v -32 a 16,16 0 0 0 -16,-16 z m 0,320 h -320 a 16,16 0 0 0 -16,16 v 32 a 16,16 0 0 0 16,16 h 320 a 16,16 0 0 0 16,-16 v -32 a 16,16 0 0 0 -16,-16 z m -480,-224 h 64 a 8,8 0 0 0 8,-8 v -16 a 8,8 0 0 0 -8,-8 h -16 V 83.389832 a 8,8 0 0 0 -8,-8 h -24 a 8,8 0 0 0 -7.14,4.42 l -8,16 a 8,8 0 0 0 7.14,11.579998 h 8 v 64 h -16 a 8,8 0 0 0 -8,8 v 16 a 8,8 0 0 0 8,8 z m -3.91,160 h 67.91 a 8,8 0 0 0 8,-8 v -16 a 8,8 0 0 0 -8,-8 h -38.68 c 3.29,-10.29 48.34,-18.68 48.34,-56.44 0,-29.06 -25,-39.56 -44.47,-39.56 -21.36,0 -33.8,10 -40.46,18.75 -4.37,5.59 -3,10.84 2.8,15.37 l 8.58,6.88 c 5.61,4.56 11,2.47 16.12,-2.44 a 13.44,13.44 0 0 1 9.46,-3.84 c 3.33,0 9.28,1.56 9.28,8.75 0.03,12.72 -50.97,21.84 -50.97,69.12 v 4 c 0,7.41 5.08,11.41 12.09,11.41 z"
       style="fill:#455a64;fill-opacity:1"
       inkscape:connector-curvature="0" />
    <path
       id="path2-9"
       d="m 3146.787,444.38983 17.5,-20.15 a 19.92,19.92 0 0 0 5.07,-14.19 v -3.31 c 0,-7.35 -3.84,-11.35 -11.34,-11.35 h -57 a 8,8 0 0 0 -8,8 v 16 a 8,8 0 0 0 8,8 h 22.83 a 157.41,157.41 0 0 0 -11,12.31 l -5.61,7 c -4,5.07 -5.25,10.13 -2.8,14.88 l 1.05,1.93 c 3,5.76 6.29,7.88 12.25,7.88 h 4.73 c 10.33,0 15.94,2.44 15.94,9.09 0,4.72 -4.2,8.22 -14.36,8.22 a 41.54,41.54 0 0 1 -15.47,-3.12 c -6.49,-3.88 -11.74,-3.5 -15.6,3.12 l -5.59,9.31 c -3.72,6.13 -3.19,11.72 2.63,15.94 7.71,4.69 20.38,9.44 37,9.44 34.16,0 48.5,-22.75 48.5,-44.12 -0.03,-14.38 -9.12,-29.76 -28.73,-34.88 z m 434.23,-177 h -320 a 16,16 0 0 0 -16,16 v 32 a 16,16 0 0 0 16,16 h 320 a 16,16 0 0 0 16,-16 v -32 a 16,16 0 0 0 -16,-16 z m 0,-160 h -320 a 16,16 0 0 0 -16,16 v 32 a 16,16 0 0 0 16,16 h 320 a 16,16 0 0 0 16,-16 v -32 a 16,16 0 0 0 -16,-16 z m 0,320 h -320 a 16,16 0 0 0 -16,16 v 32 a 16,16 0 0 0 16,16 h 320 a 16,16 0 0 0 16,-16 v -32 a 16,16 0 0 0 -16,-16 z m -480,-224 h 64 a 8,8 0 0 0 8,-8 v -16 a 8,8 0 0 0 -8,-8 h -16 V 83.389832 a 8,8 0 0 0 -8,-8 h -24 a 8,8 0 0 0 -7.14,4.42 l -8,16 a 8,8 0 0 0 7.14,11.579998 h 8 v 64 h -16 a 8,8 0 0 0 -8,8 v 16 a 8,8 0 0 0 8,8 z m -3.91,160 h 67.91 a 8,8 0 0 0 8,-8 v -16 a 8,8 0 0 0 -8,-8 h -38.68 c 3.29,-10.29 48.34,-18.68 48.34,-56.44 0,-29.06 -25,-39.56 -44.47,-39.56 -21.36,0 -33.8,10 -40.46,18.75 -4.37,5.59 -3,10.84 2.8,15.37 l 8.58,6.88 c 5.61,4.56 11,2.47 16.12,-2.44 a 13.44,13.44 0 0 1 9.46,-3.84 c 3.33,0 9.28,1.56 9.28,8.75 0.03,12.72 -50.97,21.84 -50.97,69.12 v 4 c 0,7.41 5.08,11.41 12.09,11.41 z"
       style="fill:#455a64;fill-opacity:1"
       inkscape:connector-curvature="0" />
    <path
       id="path2-1"
       d="m 61.77,1095.2373 17.5,-20.15 a 19.92,19.92 0 0 0 5.07,-14.19 v -3.31 c 0,-7.35 -3.84,-11.35 -11.34,-11.35 H 16 a 8,8 0 0 0 -8,8 v 16 a 8,8 0 0 0 8,8 h 22.83 a 157.41,157.41 0 0 0 -11,12.31 l -5.61,7 c -4,5.07 -5.25,10.13 -2.8,14.88 l 1.05,1.93 c 3,5.76 6.29,7.88 12.25,7.88 h 4.73 c 10.33,0 15.94,2.44 15.94,9.09 0,4.72 -4.2,8.22 -14.36,8.22 a 41.54,41.54 0 0 1 -15.47,-3.12 c -6.49,-3.88 -11.74,-3.5 -15.6,3.12 l -5.59,9.31 c -3.72,6.13 -3.19,11.72 2.63,15.94 7.71,4.69 20.38,9.44 37,9.44 34.16,0 48.5,-22.75 48.5,-44.12 -0.03,-14.38 -9.12,-29.76 -28.73,-34.88 z M 496,918.23728 H 176 a 16,16 0 0 0 -16,16 v 32 a 16,16 0 0 0 16,16 h 320 a 16,16 0 0 0 16,-16 v -32 a 16,16 0 0 0 -16,-16 z m 0,-160 H 176 a 16,16 0 0 0 -16,16 v 32 a 16,16 0 0 0 16,16 h 320 a 16,16 0 0 0 16,-16 v -32 a 16,16 0 0 0 -16,-16 z m 0,320.00002 H 176 a 16,16 0 0 0 -16,16 v 32 a 16,16 0 0 0 16,16 h 320 a 16,16 0 0 0 16,-16 v -32 a 16,16 0 0 0 -16,-16 z M 16,854.23728 h 64 a 8,8 0 0 0 8,-8 v -16 a 8,8 0 0 0 -8,-8 H 64 v -88 a 8,8 0 0 0 -8,-8 H 32 a 8,8 0 0 0 -7.14,4.42 l -8,16 a 8,8 0 0 0 7.14,11.58 h 8 v 64 H 16 a 8,8 0 0 0 -8,8 v 16 a 8,8 0 0 0 8,8 z M 12.09,1014.2373 H 80 a 8,8 0 0 0 8,-8 v -16.00004 a 8,8 0 0 0 -8,-7.99998 H 41.32 c 3.29,-10.29 48.34,-18.68 48.34,-56.44 0,-29.06 -25,-39.56 -44.47,-39.56 -21.36,0 -33.8,10 -40.46,18.75 -4.37,5.59 -3,10.84 2.8,15.37 l 8.58,6.88 c 5.61,4.56 11,2.47 16.12,-2.44 a 13.44,13.44 0 0 1 9.46,-3.84 c 3.33,0 9.28,1.56 9.28,8.75 C 51,942.42728 0,951.54728 0,998.82726 v 4.00004 c 0,7.41 5.08,11.41 12.09,11.41 z"
       style="fill:#455a64;fill-opacity:1"
       inkscape:connector-curvature="0" />
    <path
       id="path2-2"
       d="m 833.02427,1095.2373 17.5,-20.15 a 19.92,19.92 0 0 0 5.07,-14.19 v -3.31 c 0,-7.35 -3.84,-11.35 -11.34,-11.35 h -57 a 8,8 0 0 0 -8,8 v 16 a 8,8 0 0 0 8,8 h 22.83 a 157.41,157.41 0 0 0 -11,12.31 l -5.61,7 c -4,5.07 -5.25,10.13 -2.8,14.88 l 1.05,1.93 c 3,5.76 6.29,7.88 12.25,7.88 h 4.73 c 10.33,0 15.94,2.44 15.94,9.09 0,4.72 -4.2,8.22 -14.36,8.22 a 41.54,41.54 0 0 1 -15.47,-3.12 c -6.49,-3.88 -11.74,-3.5 -15.6,3.12 l -5.59,9.31 c -3.72,6.13 -3.19,11.72 2.63,15.94 7.71,4.69 20.38,9.44 37,9.44 34.16,0 48.5,-22.75 48.5,-44.12 -0.03,-14.38 -9.12,-29.76 -28.73,-34.88 z M 1267.2542,918.23725 H 947.25427 a 16,16 0 0 0 -16,16 v 32 a 16,16 0 0 0 16,16 h 319.99993 a 16,16 0 0 0 16,-16 v -32 a 16,16 0 0 0 -16,-16 z m 0,-160 H 947.25427 a 16,16 0 0 0 -16,16 v 32 a 16,16 0 0 0 16,16 h 319.99993 a 16,16 0 0 0 16,-16 v -32 a 16,16 0 0 0 -16,-16 z m 0,320.00005 H 947.25427 a 16,16 0 0 0 -16,16 v 32 a 16,16 0 0 0 16,16 h 319.99993 a 16,16 0 0 0 16,-16 v -32 a 16,16 0 0 0 -16,-16 z M 787.25427,854.23725 h 64 a 8,8 0 0 0 8,-8 v -16 a 8,8 0 0 0 -8,-8 h -16 v -88 a 8,8 0 0 0 -8,-8 h -24 a 8,8 0 0 0 -7.14,4.42 l -8,16 a 8,8 0 0 0 7.14,11.58 h 8 v 64 h -16 a 8,8 0 0 0 -8,8 v 16 a 8,8 0 0 0 8,8 z m -3.91,160.00005 h 67.91 a 8,8 0 0 0 8,-8 v -16.00005 a 8,8 0 0 0 -8,-8 h -38.68 c 3.29,-10.28999 48.34,-18.67999 48.34,-56.43999 0,-29.06 -25,-39.56 -44.47,-39.56 -21.36,0 -33.8,10 -40.46,18.75 -4.37,5.59 -3,10.84 2.8,15.37 l 8.58,6.88 c 5.61,4.56 11,2.47 16.12,-2.44 a 13.44,13.44 0 0 1 9.46,-3.84 c 3.33,0 9.28,1.55999 9.28,8.75 0.03,12.72 -50.97,21.84 -50.97,69.12 v 4.00004 c 0,7.41 5.08,11.41 12.09,11.41 z"
       style="fill:#455a64;fill-opacity:1"
       inkscape:connector-curvature="0" />
    <path
       id="path2-70"
       d="m 1604.2786,1095.2373 17.5,-20.15 a 19.92,19.92 0 0 0 5.07,-14.19 v -3.31 c 0,-7.35 -3.84,-11.35 -11.34,-11.35 h -57 a 8,8 0 0 0 -8,8 v 16 a 8,8 0 0 0 8,8 h 22.83 a 157.41,157.41 0 0 0 -11,12.31 l -5.61,7 c -4,5.07 -5.25,10.13 -2.8,14.88 l 1.05,1.93 c 3,5.76 6.29,7.88 12.25,7.88 h 4.73 c 10.33,0 15.94,2.44 15.94,9.09 0,4.72 -4.2,8.22 -14.36,8.22 a 41.54,41.54 0 0 1 -15.47,-3.12 c -6.49,-3.88 -11.74,-3.5 -15.6,3.12 l -5.59,9.31 c -3.72,6.13 -3.19,11.72 2.63,15.94 7.71,4.69 20.38,9.44 37,9.44 34.16,0 48.5,-22.75 48.5,-44.12 -0.03,-14.38 -9.12,-29.76 -28.73,-34.88 z m 434.23,-177.00001 h -320 a 16,16 0 0 0 -16,16 v 32 a 16,16 0 0 0 16,16 h 320 a 16,16 0 0 0 16,-16 v -32 a 16,16 0 0 0 -16,-16 z m 0,-160 h -320 a 16,16 0 0 0 -16,16 v 32 a 16,16 0 0 0 16,16 h 320 a 16,16 0 0 0 16,-16 v -32 a 16,16 0 0 0 -16,-16 z m 0,320.00001 h -320 a 16,16 0 0 0 -16,16 v 32 a 16,16 0 0 0 16,16 h 320 a 16,16 0 0 0 16,-16 v -32 a 16,16 0 0 0 -16,-16 z m -480,-224.00001 h 64 a 8,8 0 0 0 8,-8 v -16 a 8,8 0 0 0 -8,-8 h -16 v -88 a 8,8 0 0 0 -8,-8 h -24 a 8,8 0 0 0 -7.14,4.42 l -8,16 a 8,8 0 0 0 7.14,11.58 h 8 v 64 h -16 a 8,8 0 0 0 -8,8 v 16 a 8,8 0 0 0 8,8 z m -3.91,160.00001 h 67.91 a 8,8 0 0 0 8,-8 v -16.00001 a 8,8 0 0 0 -8,-8 h -38.68 c 3.29,-10.29 48.34,-18.68 48.34,-56.44 0,-29.06 -25,-39.56 -44.47,-39.56 -21.36,0 -33.8,10 -40.46,18.75 -4.37,5.59 -3,10.84 2.8,15.37 l 8.58,6.88 c 5.61,4.56 11,2.47 16.12,-2.44 a 13.44,13.44 0 0 1 9.46,-3.84 c 3.33,0 9.28,1.56 9.28,8.75 0.03,12.72 -50.97,21.84 -50.97,69.12 v 4.00001 c 0,7.41 5.08,11.41 12.09,11.41 z"
       style="fill:#455a64;fill-opacity:1"
       inkscape:connector-curvature="0" />
    <path
       id="path2-93"
       d="m 2375.5326,1095.2373 17.5,-20.15 a 19.92,19.92 0 0 0 5.07,-14.19 v -3.31 c 0,-7.35 -3.84,-11.35 -11.34,-11.35 h -57 a 8,8 0 0 0 -8,8 v 16 a 8,8 0 0 0 8,8 h 22.83 a 157.41,157.41 0 0 0 -11,12.31 l -5.61,7 c -4,5.0699 -5.25,10.13 -2.8,14.88 l 1.05,1.93 c 3,5.76 6.29,7.88 12.25,7.88 h 4.73 c 10.33,0 15.94,2.44 15.94,9.09 0,4.72 -4.2,8.22 -14.36,8.22 a 41.54,41.54 0 0 1 -15.47,-3.12 c -6.49,-3.88 -11.74,-3.5 -15.6,3.12 l -5.59,9.31 c -3.72,6.13 -3.19,11.72 2.63,15.94 7.71,4.69 20.38,9.44 37,9.44 34.16,0 48.5,-22.75 48.5,-44.12 -0.03,-14.38 -9.12,-29.76 -28.73,-34.88 z m 434.23,-177.00001 h -320 a 16,16 0 0 0 -16,16 v 32 a 16,16 0 0 0 16,16 h 320 a 16,16 0 0 0 16,-16 v -32 a 16,16 0 0 0 -16,-16 z m 0,-160 h -320 a 16,16 0 0 0 -16,16 v 32 a 16,16 0 0 0 16,16 h 320 a 16,16 0 0 0 16,-16 v -32 a 16,16 0 0 0 -16,-16 z m 0,320.00001 h -320 a 16,16 0 0 0 -16,16 v 32 a 16,16 0 0 0 16,16 h 320 a 16,16 0 0 0 16,-16 v -32 a 16,16 0 0 0 -16,-16 z m -480,-224.00001 h 64 a 8,8 0 0 0 8,-8 v -16 a 8,8 0 0 0 -8,-8 h -16 v -88 a 8,8 0 0 0 -8,-8 h -24 a 8,8 0 0 0 -7.14,4.42 l -8,16 a 8,8 0 0 0 7.14,11.58 h 8 v 64 h -16 a 8,8 0 0 0 -8,8 v 16 a 8,8 0 0 0 8,8 z m -3.91,160.00001 h 67.91 a 8,8 0 0 0 8,-8 v -16.00001 a 8,8 0 0 0 -8,-8 h -38.68 c 3.29,-10.29 48.34,-18.68 48.34,-56.44 0,-29.06 -25,-39.56 -44.47,-39.56 -21.36,0 -33.8,10 -40.46,18.75 -4.37,5.59 -3,10.84 2.8,15.37 l 8.58,6.88 c 5.61,4.56 11,2.47 16.12,-2.44 a 13.44,13.44 0 0 1 9.46,-3.84 c 3.33,0 9.28,1.56 9.28,8.75 0.03,12.72 -50.97,21.84 -50.97,69.12 v 4.00001 c 0,7.41 5.08,11.41 12.09,11.41 z"
       style="fill:#455a64;fill-opacity:1"
       inkscape:connector-curvature="0" />
    <path
       id="path2-60"
       d="m 3146.787,1095.2373 17.5,-20.15 a 19.92,19.92 0 0 0 5.07,-14.19 v -3.31 c 0,-7.35 -3.84,-11.35 -11.34,-11.35 h -57 a 8,8 0 0 0 -8,8 v 16 a 8,8 0 0 0 8,8 h 22.83 a 157.41,157.41 0 0 0 -11,12.31 l -5.61,7 c -4,5.07 -5.25,10.13 -2.8,14.88 l 1.05,1.93 c 3,5.76 6.29,7.88 12.25,7.88 h 4.73 c 10.33,0 15.94,2.44 15.94,9.09 0,4.72 -4.2,8.22 -14.36,8.22 a 41.54,41.54 0 0 1 -15.47,-3.12 c -6.49,-3.88 -11.74,-3.5 -15.6,3.12 l -5.59,9.31 c -3.72,6.13 -3.19,11.72 2.63,15.94 7.71,4.69 20.38,9.44 37,9.44 34.16,0 48.5,-22.75 48.5,-44.12 -0.03,-14.38 -9.12,-29.76 -28.73,-34.88 z m 434.23,-177.00005 h -320 a 16,16 0 0 0 -16,16 v 32 a 16,16 0 0 0 16,16 h 320 a 16,16 0 0 0 16,-16 v -32 a 16,16 0 0 0 -16,-16 z m 0,-159.99996 h -320 a 16,16 0 0 0 -16,16 v 32 a 16,16 0 0 0 16,16 h 320 a 16,16 0 0 0 16,-16 v -32 a 16,16 0 0 0 -16,-16 z m 0,320.00001 h -320 a 16,16 0 0 0 -16,16 v 32 a 16,16 0 0 0 16,16 h 320 a 16,16 0 0 0 16,-16 v -32 a 16,16 0 0 0 -16,-16 z m -480,-224.00001 h 64 a 8,8 0 0 0 8,-8 v -16 a 8,8 0 0 0 -8,-8 h -16 v -88 a 8,8 0 0 0 -8,-8 h -24 a 8,8 0 0 0 -7.14,4.41999 l -8,16 a 8,8 0 0 0 7.14,11.58001 h 8 v 64 h -16 a 8,8 0 0 0 -8,8 v 16 a 8,8 0 0 0 8,8 z m -3.91,160.00001 h 67.91 a 8,8 0 0 0 8,-8 v -16.00005 a 8,8 0 0 0 -8,-8 h -38.68 c 3.29,-10.28999 48.34,-18.68 48.34,-56.44 0,-29.05997 -25,-39.55997 -44.47,-39.55997 -21.36,0 -33.8,10 -40.46,18.75 -4.37,5.58997 -3,10.83997 2.8,15.36997 l 8.58,6.88 c 5.61,4.56 11,2.47 16.12,-2.44 a 13.44,13.44 0 0 1 9.46,-3.84 c 3.33,0 9.28,1.56 9.28,8.75 0.03,12.72 -50.97,21.84 -50.97,69.12 v 4.00005 c 0,7.41 5.08,11.41 12.09,11.41 z"
       style="fill:#455a64;fill-opacity:1"
       inkscape:connector-curvature="0" />
  </g>
  <path
     inkscape:connector-curvature="0"
     style="fill:#0288d1;fill-opacity:1"
     d="m 2047.4794,1722.517 -22.627,-22.627 c -9.373,-9.373 -24.569,-9.373 -33.941,0 l -5.657,5.657 -113.138,-113.137 5.657,-5.657 c 9.373,-9.373 9.373,-24.569 0,-33.941 l -22.627,-22.628 c -9.373,-9.373 -24.569,-9.373 -33.941,0 l -124.451,124.451 c -9.373,9.373 -9.373,24.569 0,33.941 l 22.627,22.627 c 9.373,9.373 24.569,9.373 33.941,0 l 5.657,-5.657 39.598,39.598 -81.04,81.04 -5.657,-5.657 c -12.497,-12.497 -32.758,-12.497 -45.255,0 l -114.744,114.746 c -12.497,12.497 -12.497,32.758 0,45.255 l 45.255,45.255 c 12.497,12.497 32.758,12.497 45.255,0 l 114.745,-114.745 c 12.497,-12.497 12.497,-32.758 0,-45.255 l -5.657,-5.657 81.04,-81.04 39.598,39.598 -5.657,5.657 c -9.373,9.373 -9.373,24.569 0,33.941 l 22.627,22.627 c 9.373,9.373 24.569,9.373 33.941,0 l 124.451,-124.451 c 9.372,-9.372 9.372,-24.568 0,-33.941 z"
     id="path220" />
  <g
     id="g12928"
     transform="translate(0,7.3730471e-6)">
    <path
       style="fill:#b3b3b3;fill-opacity:1"
       inkscape:connector-curvature="0"
       id="path2-26"
       d="m 61.77,2549.6488 17.5,-20.15 a 19.92,19.92 0 0 0 5.07,-14.19 v -3.31 c 0,-7.35 -3.84,-11.35 -11.34,-11.35 H 16 a 8,8 0 0 0 -8,8 v 16 a 8,8 0 0 0 8,8 h 22.83 a 157.41,157.41 0 0 0 -11,12.31 l -5.61,7 c -4,5.07 -5.25,10.13 -2.8,14.88 l 1.05,1.93 c 3,5.76 6.29,7.88 12.25,7.88 h 4.73 c 10.33,0 15.94,2.44 15.94,9.09 0,4.72 -4.2,8.22 -14.36,8.22 a 41.54,41.54 0 0 1 -15.47,-3.12 c -6.49,-3.88 -11.74,-3.5 -15.6,3.12 l -5.59,9.31 c -3.72,6.13 -3.19,11.72 2.63,15.94 7.71,4.69 20.38,9.44 37,9.44 34.16,0 48.5,-22.75 48.5,-44.12 -0.03,-14.38 -9.12,-29.76 -28.73,-34.88 z m 434.23,-177 H 176 a 16,16 0 0 0 -16,16 v 32 a 16,16 0 0 0 16,16 h 320 a 16,16 0 0 0 16,-16 v -32 a 16,16 0 0 0 -16,-16 z m 0,-160 H 176 a 16,16 0 0 0 -16,16 v 32 a 16,16 0 0 0 16,16 h 320 a 16,16 0 0 0 16,-16 v -32 a 16,16 0 0 0 -16,-16 z m 0,320 H 176 a 16,16 0 0 0 -16,16 v 32 a 16,16 0 0 0 16,16 h 320 a 16,16 0 0 0 16,-16 v -32 a 16,16 0 0 0 -16,-16 z m -480,-224 h 64 a 8,8 0 0 0 8,-8 v -16 a 8,8 0 0 0 -8,-8 H 64 v -88 a 8,8 0 0 0 -8,-8 H 32 a 8,8 0 0 0 -7.14,4.42 l -8,16 a 8,8 0 0 0 7.14,11.58 h 8 v 64 H 16 a 8,8 0 0 0 -8,8 v 16 a 8,8 0 0 0 8,8 z m -3.91,160 H 80 a 8,8 0 0 0 8,-8 v -16 a 8,8 0 0 0 -8,-8 H 41.32 c 3.29,-10.29 48.34,-18.68 48.34,-56.44 0,-29.06 -25,-39.56 -44.47,-39.56 -21.36,0 -33.8,10 -40.46,18.75 -4.37,5.59 -3,10.84 2.8,15.37 l 8.58,6.88 c 5.61,4.56 11,2.47 16.12,-2.44 a 13.44,13.44 0 0 1 9.46,-3.84 c 3.33,0 9.28,1.56 9.28,8.75 0.03,12.72 -50.97,21.84 -50.97,69.12 v 4 c 0,7.41 5.08,11.41 12.09,11.41 z" />
    <path
       id="path2-3-1"
       d="m 833.02425,2549.6488 17.5,-20.15 a 19.92,19.92 0 0 0 5.07,-14.19 v -3.31 c 0,-7.35 -3.84,-11.35 -11.34,-11.35 h -57 a 8,8 0 0 0 -8,8 v 16 a 8,8 0 0 0 8,8 h 22.83 a 157.41,157.41 0 0 0 -11,12.31 l -5.61,7 c -4,5.07 -5.25,10.13 -2.8,14.88 l 1.05,1.93 c 3,5.76 6.29,7.88 12.25,7.88 h 4.73 c 10.33,0 15.94,2.44 15.94,9.09 0,4.72 -4.2,8.22 -14.36,8.22 a 41.54,41.54 0 0 1 -15.47,-3.12 c -6.49,-3.88 -11.74,-3.5 -15.6,3.12 l -5.59,9.31 c -3.72,6.13 -3.19,11.72 2.63,15.94 7.71,4.69 20.38,9.44 37,9.44 34.16,0 48.5,-22.75 48.5,-44.12 -0.03,-14.38 -9.12,-29.76 -28.73,-34.88 z m 434.22995,-177 H 947.25424 a 16,16 0 0 0 -16,16 v 32 a 16,16 0 0 0 16,16 h 319.99996 a 16,16 0 0 0 16,-16 v -32 a 16,16 0 0 0 -16,-16 z m 0,-160 H 947.25424 a 16,16 0 0 0 -16,16 v 32 a 16,16 0 0 0 16,16 h 319.99996 a 16,16 0 0 0 16,-16 v -32 a 16,16 0 0 0 -16,-16 z m 0,320 H 947.25424 a 16,16 0 0 0 -16,16 v 32 a 16,16 0 0 0 16,16 h 319.99996 a 16,16 0 0 0 16,-16 v -32 a 16,16 0 0 0 -16,-16 z m -479.99995,-224 h 64 a 8,8 0 0 0 8,-8 v -16 a 8,8 0 0 0 -8,-8 h -16 v -88 a 8,8 0 0 0 -8,-8 h -24 a 8,8 0 0 0 -7.14,4.42 l -8,16 a 8,8 0 0 0 7.14,11.58 h 8 v 64 h -16 a 8,8 0 0 0 -8,8 v 16 a 8,8 0 0 0 8,8 z m -3.91,160 h 67.91 a 8,8 0 0 0 8,-8 v -16 a 8,8 0 0 0 -8,-8 h -38.68 c 3.29,-10.29 48.34,-18.68 48.34,-56.44 0,-29.06 -25,-39.56 -44.47,-39.56 -21.36,0 -33.8,10 -40.46,18.75 -4.37,5.59 -3,10.84 2.8,15.37 l 8.58,6.88 c 5.61,4.56 11,2.47 16.12,-2.44 a 13.44,13.44 0 0 1 9.46,-3.84 c 3.33,0 9.28,1.56 9.28,8.75 0.03,12.72 -50.97,21.84 -50.97,69.12 v 4 c 0,7.41 5.08,11.41 12.09,11.41 z"
       style="fill:#b3b3b3;fill-opacity:1"
       inkscape:connector-curvature="0" />
    <path
       id="path2-35-8"
       d="m 1604.2786,2549.6488 17.5,-20.15 a 19.92,19.92 0 0 0 5.07,-14.19 v -3.31 c 0,-7.35 -3.84,-11.35 -11.34,-11.35 h -57 a 8,8 0 0 0 -8,8 v 16 a 8,8 0 0 0 8,8 h 22.83 a 157.41,157.41 0 0 0 -11,12.31 l -5.61,7 c -4,5.07 -5.25,10.13 -2.8,14.88 l 1.05,1.93 c 3,5.76 6.29,7.88 12.25,7.88 h 4.73 c 10.33,0 15.94,2.44 15.94,9.09 0,4.72 -4.2,8.22 -14.36,8.22 a 41.54,41.54 0 0 1 -15.47,-3.12 c -6.49,-3.88 -11.74,-3.5 -15.6,3.12 l -5.59,9.31 c -3.72,6.13 -3.19,11.72 2.63,15.94 7.71,4.69 20.38,9.44 37,9.44 34.16,0 48.5,-22.75 48.5,-44.12 -0.03,-14.38 -9.12,-29.76 -28.73,-34.88 z m 434.23,-177 h -320 a 16,16 0 0 0 -16,16 v 32 a 16,16 0 0 0 16,16 h 320 a 16,16 0 0 0 16,-16 v -32 a 16,16 0 0 0 -16,-16 z m 0,-160 h -320 a 16,16 0 0 0 -16,16 v 32 a 16,16 0 0 0 16,16 h 320 a 16,16 0 0 0 16,-16 v -32 a 16,16 0 0 0 -16,-16 z m 0,320 h -320 a 16,16 0 0 0 -16,16 v 32 a 16,16 0 0 0 16,16 h 320 a 16,16 0 0 0 16,-16 v -32 a 16,16 0 0 0 -16,-16 z m -480,-224 h 64 a 8,8 0 0 0 8,-8 v -16 a 8,8 0 0 0 -8,-8 h -16 v -88 a 8,8 0 0 0 -8,-8 h -24 a 8,8 0 0 0 -7.14,4.42 l -8,16 a 8,8 0 0 0 7.14,11.58 h 8 v 64 h -16 a 8,8 0 0 0 -8,8 v 16 a 8,8 0 0 0 8,8 z m -3.91,160 h 67.91 a 8,8 0 0 0 8,-8 v -16 a 8,8 0 0 0 -8,-8 h -38.68 c 3.29,-10.29 48.34,-18.68 48.34,-56.44 0,-29.06 -25,-39.56 -44.47,-39.56 -21.36,0 -33.8,10 -40.46,18.75 -4.37,5.59 -3,10.84 2.8,15.37 l 8.58,6.88 c 5.61,4.56 11,2.47 16.12,-2.44 a 13.44,13.44 0 0 1 9.46,-3.84 c 3.33,0 9.28,1.56 9.28,8.75 0.03,12.72 -50.97,21.84 -50.97,69.12 v 4 c 0,7.41 5.08,11.41 12.09,11.41 z"
       style="fill:#b3b3b3;fill-opacity:1"
       inkscape:connector-curvature="0" />
    <path
       id="path2-62-7"
       d="m 2375.5326,2549.6488 17.5,-20.15 a 19.92,19.92 0 0 0 5.07,-14.19 v -3.31 c 0,-7.35 -3.84,-11.35 -11.34,-11.35 h -57 a 8,8 0 0 0 -8,8 v 16 a 8,8 0 0 0 8,8 h 22.83 a 157.41,157.41 0 0 0 -11,12.31 l -5.61,7 c -4,5.07 -5.25,10.13 -2.8,14.88 l 1.05,1.93 c 3,5.76 6.29,7.88 12.25,7.88 h 4.73 c 10.33,0 15.94,2.44 15.94,9.09 0,4.72 -4.2,8.22 -14.36,8.22 a 41.54,41.54 0 0 1 -15.47,-3.12 c -6.49,-3.88 -11.74,-3.5 -15.6,3.12 l -5.59,9.31 c -3.72,6.13 -3.19,11.72 2.63,15.94 7.71,4.69 20.38,9.44 37,9.44 34.16,0 48.5,-22.75 48.5,-44.12 -0.03,-14.38 -9.12,-29.76 -28.73,-34.88 z m 434.23,-177 h -320 a 16,16 0 0 0 -16,16 v 32 a 16,16 0 0 0 16,16 h 320 a 16,16 0 0 0 16,-16 v -32 a 16,16 0 0 0 -16,-16 z m 0,-160 h -320 a 16,16 0 0 0 -16,16 v 32 a 16,16 0 0 0 16,16 h 320 a 16,16 0 0 0 16,-16 v -32 a 16,16 0 0 0 -16,-16 z m 0,320 h -320 a 16,16 0 0 0 -16,16 v 32 a 16,16 0 0 0 16,16 h 320 a 16,16 0 0 0 16,-16 v -32 a 16,16 0 0 0 -16,-16 z m -480,-224 h 64 a 8,8 0 0 0 8,-8 v -16 a 8,8 0 0 0 -8,-8 h -16 v -88 a 8,8 0 0 0 -8,-8 h -24 a 8,8 0 0 0 -7.14,4.42 l -8,16 a 8,8 0 0 0 7.14,11.58 h 8 v 64 h -16 a 8,8 0 0 0 -8,8 v 16 a 8,8 0 0 0 8,8 z m -3.91,160 h 67.91 a 8,8 0 0 0 8,-8 v -16 a 8,8 0 0 0 -8,-8 h -38.68 c 3.29,-10.29 48.34,-18.68 48.34,-56.44 0,-29.06 -25,-39.56 -44.47,-39.56 -21.36,0 -33.8,10 -40.46,18.75 -4.37,5.59 -3,10.84 2.8,15.37 l 8.58,6.88 c 5.61,4.56 11,2.47 16.12,-2.44 a 13.44,13.44 0 0 1 9.46,-3.84 c 3.33,0 9.28,1.56 9.28,8.75 0.03,12.72 -50.97,21.84 -50.97,69.12 v 4 c 0,7.41 5.08,11.41 12.09,11.41 z"
       style="fill:#b3b3b3;fill-opacity:1"
       inkscape:connector-curvature="0" />
    <path
       id="path2-9-9"
       d="m 3146.787,2549.6488 17.5,-20.15 a 19.92,19.92 0 0 0 5.07,-14.19 v -3.31 c 0,-7.35 -3.84,-11.35 -11.34,-11.35 h -57 a 8,8 0 0 0 -8,8 v 16 a 8,8 0 0 0 8,8 h 22.83 a 157.41,157.41 0 0 0 -11,12.31 l -5.61,7 c -4,5.07 -5.25,10.13 -2.8,14.88 l 1.05,1.93 c 3,5.76 6.29,7.88 12.25,7.88 h 4.73 c 10.33,0 15.94,2.44 15.94,9.09 0,4.72 -4.2,8.22 -14.36,8.22 a 41.54,41.54 0 0 1 -15.47,-3.12 c -6.49,-3.88 -11.74,-3.5 -15.6,3.12 l -5.59,9.31 c -3.72,6.13 -3.19,11.72 2.63,15.94 7.71,4.69 20.38,9.44 37,9.44 34.16,0 48.5,-22.75 48.5,-44.12 -0.03,-14.38 -9.12,-29.76 -28.73,-34.88 z m 434.23,-177 h -320 a 16,16 0 0 0 -16,16 v 32 a 16,16 0 0 0 16,16 h 320 a 16,16 0 0 0 16,-16 v -32 a 16,16 0 0 0 -16,-16 z m 0,-160 h -320 a 16,16 0 0 0 -16,16 v 32 a 16,16 0 0 0 16,16 h 320 a 16,16 0 0 0 16,-16 v -32 a 16,16 0 0 0 -16,-16 z m 0,320 h -320 a 16,16 0 0 0 -16,16 v 32 a 16,16 0 0 0 16,16 h 320 a 16,16 0 0 0 16,-16 v -32 a 16,16 0 0 0 -16,-16 z m -480,-224 h 64 a 8,8 0 0 0 8,-8 v -16 a 8,8 0 0 0 -8,-8 h -16 v -88 a 8,8 0 0 0 -8,-8 h -24 a 8,8 0 0 0 -7.14,4.42 l -8,16 a 8,8 0 0 0 7.14,11.58 h 8 v 64 h -16 a 8,8 0 0 0 -8,8 v 16 a 8,8 0 0 0 8,8 z m -3.91,160 h 67.91 a 8,8 0 0 0 8,-8 v -16 a 8,8 0 0 0 -8,-8 h -38.68 c 3.29,-10.29 48.34,-18.68 48.34,-56.44 0,-29.06 -25,-39.56 -44.47,-39.56 -21.36,0 -33.8,10 -40.46,18.75 -4.37,5.59 -3,10.84 2.8,15.37 l 8.58,6.88 c 5.61,4.56 11,2.47 16.12,-2.44 a 13.44,13.44 0 0 1 9.46,-3.84 c 3.33,0 9.28,1.56 9.28,8.75 0.03,12.72 -50.97,21.84 -50.97,69.12 v 4 c 0,7.41 5.08,11.41 12.09,11.41 z"
       style="fill:#b3b3b3;fill-opacity:1"
       inkscape:connector-curvature="0" />
    <path
       id="path2-1-2"
       d="m 61.77,3200.4963 17.5,-20.15 a 19.92,19.92 0 0 0 5.07,-14.19 v -3.31 c 0,-7.35 -3.84,-11.35 -11.34,-11.35 H 16 a 8,8 0 0 0 -8,8 v 16 a 8,8 0 0 0 8,8 h 22.83 a 157.41,157.41 0 0 0 -11,12.31 l -5.61,7 c -4,5.07 -5.25,10.13 -2.8,14.88 l 1.05,1.93 c 3,5.76 6.29,7.88 12.25,7.88 h 4.73 c 10.33,0 15.94,2.44 15.94,9.09 0,4.72 -4.2,8.22 -14.36,8.22 a 41.54,41.54 0 0 1 -15.47,-3.12 c -6.49,-3.88 -11.74,-3.5 -15.6,3.12 l -5.59,9.31 c -3.72,6.13 -3.19,11.72 2.63,15.94 7.71,4.69 20.38,9.44 37,9.44 34.16,0 48.5,-22.75 48.5,-44.12 -0.03,-14.38 -9.12,-29.76 -28.73,-34.88 z m 434.23,-177 H 176 a 16,16 0 0 0 -16,16 v 32 a 16,16 0 0 0 16,16 h 320 a 16,16 0 0 0 16,-16 v -32 a 16,16 0 0 0 -16,-16 z m 0,-160 H 176 a 16,16 0 0 0 -16,16 v 32 a 16,16 0 0 0 16,16 h 320 a 16,16 0 0 0 16,-16 v -32 a 16,16 0 0 0 -16,-16 z m 0,320 H 176 a 16,16 0 0 0 -16,16 v 32 a 16,16 0 0 0 16,16 h 320 a 16,16 0 0 0 16,-16 v -32 a 16,16 0 0 0 -16,-16 z m -480,-224 h 64 a 8,8 0 0 0 8,-8 v -16 a 8,8 0 0 0 -8,-8 H 64 v -88 a 8,8 0 0 0 -8,-8 H 32 a 8,8 0 0 0 -7.14,4.42 l -8,16 a 8,8 0 0 0 7.14,11.58 h 8 v 64 H 16 a 8,8 0 0 0 -8,8 v 16 a 8,8 0 0 0 8,8 z m -3.91,160 H 80 a 8,8 0 0 0 8,-8 v -16 a 8,8 0 0 0 -8,-8 H 41.32 c 3.29,-10.29 48.34,-18.68 48.34,-56.44 0,-29.06 -25,-39.56 -44.47,-39.56 -21.36,0 -33.8,10 -40.46,18.75 -4.37,5.59 -3,10.84 2.8,15.37 l 8.58,6.88 c 5.61,4.56 11,2.47 16.12,-2.44 a 13.44,13.44 0 0 1 9.46,-3.84 c 3.33,0 9.28,1.56 9.28,8.75 0.03,12.72 -50.97,21.84 -50.97,69.12 v 4 c 0,7.41 5.08,11.41 12.09,11.41 z"
       style="fill:#b3b3b3;fill-opacity:1"
       inkscape:connector-curvature="0" />
    <path
       id="path2-2-0"
       d="m 833.02427,3200.4963 17.5,-20.15 a 19.92,19.92 0 0 0 5.07,-14.19 v -3.31 c 0,-7.35 -3.84,-11.35 -11.34,-11.35 h -57 a 8,8 0 0 0 -8,8 v 16 a 8,8 0 0 0 8,8 h 22.83 a 157.41,157.41 0 0 0 -11,12.31 l -5.61,7 c -4,5.07 -5.25,10.13 -2.8,14.88 l 1.05,1.93 c 3,5.76 6.29,7.88 12.25,7.88 h 4.73 c 10.33,0 15.94,2.44 15.94,9.09 0,4.72 -4.2,8.22 -14.36,8.22 a 41.54,41.54 0 0 1 -15.47,-3.12 c -6.49,-3.88 -11.74,-3.5 -15.6,3.12 l -5.59,9.31 c -3.72,6.13 -3.19,11.72 2.63,15.94 7.71,4.69 20.38,9.44 37,9.44 34.16,0 48.5,-22.75 48.5,-44.12 -0.03,-14.38 -9.12,-29.76 -28.73,-34.88 z m 434.22993,-177 H 947.25427 a 16,16 0 0 0 -16,16 v 32 a 16,16 0 0 0 16,16 h 319.99993 a 16,16 0 0 0 16,-16 v -32 a 16,16 0 0 0 -16,-16 z m 0,-160 H 947.25427 a 16,16 0 0 0 -16,16 v 32 a 16,16 0 0 0 16,16 h 319.99993 a 16,16 0 0 0 16,-16 v -32 a 16,16 0 0 0 -16,-16 z m 0,320 H 947.25427 a 16,16 0 0 0 -16,16 v 32 a 16,16 0 0 0 16,16 h 319.99993 a 16,16 0 0 0 16,-16 v -32 a 16,16 0 0 0 -16,-16 z m -479.99993,-224 h 64 a 8,8 0 0 0 8,-8 v -16 a 8,8 0 0 0 -8,-8 h -16 v -88 a 8,8 0 0 0 -8,-8 h -24 a 8,8 0 0 0 -7.14,4.42 l -8,16 a 8,8 0 0 0 7.14,11.58 h 8 v 64 h -16 a 8,8 0 0 0 -8,8 v 16 a 8,8 0 0 0 8,8 z m -3.91,160 h 67.91 a 8,8 0 0 0 8,-8 v -16 a 8,8 0 0 0 -8,-8 h -38.68 c 3.29,-10.29 48.34,-18.68 48.34,-56.44 0,-29.06 -25,-39.56 -44.47,-39.56 -21.36,0 -33.8,10 -40.46,18.75 -4.37,5.59 -3,10.84 2.8,15.37 l 8.58,6.88 c 5.61,4.56 11,2.47 16.12,-2.44 a 13.44,13.44 0 0 1 9.46,-3.84 c 3.33,0 9.28,1.5599 9.28,8.75 0.03,12.72 -50.97,21.84 -50.97,69.12 v 4 c 0,7.41 5.08,11.41 12.09,11.41 z"
       style="fill:#b3b3b3;fill-opacity:1"
       inkscape:connector-curvature="0" />
    <path
       id="path2-70-2"
       d="m 1604.2786,3200.4963 17.5,-20.15 a 19.92,19.92 0 0 0 5.07,-14.19 v -3.31 c 0,-7.35 -3.84,-11.35 -11.34,-11.35 h -57 a 8,8 0 0 0 -8,8 v 16 a 8,8 0 0 0 8,8 h 22.83 a 157.41,157.41 0 0 0 -11,12.31 l -5.61,7 c -4,5.07 -5.25,10.13 -2.8,14.88 l 1.05,1.93 c 3,5.76 6.29,7.88 12.25,7.88 h 4.73 c 10.33,0 15.94,2.44 15.94,9.09 0,4.72 -4.2,8.22 -14.36,8.22 a 41.54,41.54 0 0 1 -15.47,-3.12 c -6.49,-3.88 -11.74,-3.5 -15.6,3.12 l -5.59,9.31 c -3.72,6.13 -3.19,11.72 2.63,15.94 7.71,4.69 20.38,9.44 37,9.44 34.16,0 48.5,-22.75 48.5,-44.12 -0.03,-14.38 -9.12,-29.76 -28.73,-34.88 z m 434.23,-177 h -320 a 16,16 0 0 0 -16,16 v 32 a 16,16 0 0 0 16,16 h 320 a 16,16 0 0 0 16,-16 v -32 a 16,16 0 0 0 -16,-16 z m 0,-160 h -320 a 16,16 0 0 0 -16,16 v 32 a 16,16 0 0 0 16,16 h 320 a 16,16 0 0 0 16,-16 v -32 a 16,16 0 0 0 -16,-16 z m 0,320 h -320 a 16,16 0 0 0 -16,16 v 32 a 16,16 0 0 0 16,16 h 320 a 16,16 0 0 0 16,-16 v -32 a 16,16 0 0 0 -16,-16 z m -480,-224 h 64 a 8,8 0 0 0 8,-8 v -16 a 8,8 0 0 0 -8,-8 h -16 v -88 a 8,8 0 0 0 -8,-8 h -24 a 8,8 0 0 0 -7.14,4.42 l -8,16 a 8,8 0 0 0 7.14,11.58 h 8 v 64 h -16 a 8,8 0 0 0 -8,8 v 16 a 8,8 0 0 0 8,8 z m -3.91,160 h 67.91 a 8,8 0 0 0 8,-8 v -16 a 8,8 0 0 0 -8,-8 h -38.68 c 3.29,-10.29 48.34,-18.68 48.34,-56.44 0,-29.06 -25,-39.56 -44.47,-39.56 -21.36,0 -33.8,10 -40.46,18.75 -4.37,5.59 -3,10.84 2.8,15.37 l 8.58,6.88 c 5.61,4.56 11,2.47 16.12,-2.44 a 13.44,13.44 0 0 1 9.46,-3.84 c 3.33,0 9.28,1.56 9.28,8.75 0.03,12.72 -50.97,21.84 -50.97,69.12 v 4 c 0,7.41 5.08,11.41 12.09,11.41 z"
       style="fill:#b3b3b3;fill-opacity:1"
       inkscape:connector-curvature="0" />
    <path
       id="path2-93-3"
       d="m 2375.5326,3200.4963 17.5,-20.15 a 19.92,19.92 0 0 0 5.07,-14.19 v -3.31 c 0,-7.35 -3.84,-11.35 -11.34,-11.35 h -57 a 8,8 0 0 0 -8,8 v 16 a 8,8 0 0 0 8,8 h 22.83 a 157.41,157.41 0 0 0 -11,12.31 l -5.61,7 c -4,5.0699 -5.25,10.13 -2.8,14.88 l 1.05,1.93 c 3,5.76 6.29,7.88 12.25,7.88 h 4.73 c 10.33,0 15.94,2.44 15.94,9.09 0,4.72 -4.2,8.22 -14.36,8.22 a 41.54,41.54 0 0 1 -15.47,-3.12 c -6.49,-3.88 -11.74,-3.5 -15.6,3.12 l -5.59,9.31 c -3.72,6.13 -3.19,11.72 2.63,15.94 7.71,4.69 20.38,9.44 37,9.44 34.16,0 48.5,-22.75 48.5,-44.12 -0.03,-14.38 -9.12,-29.76 -28.73,-34.88 z m 434.23,-177 h -320 a 16,16 0 0 0 -16,16 v 32 a 16,16 0 0 0 16,16 h 320 a 16,16 0 0 0 16,-16 v -32 a 16,16 0 0 0 -16,-16 z m 0,-160 h -320 a 16,16 0 0 0 -16,16 v 32 a 16,16 0 0 0 16,16 h 320 a 16,16 0 0 0 16,-16 v -32 a 16,16 0 0 0 -16,-16 z m 0,320 h -320 a 16,16 0 0 0 -16,16 v 32 a 16,16 0 0 0 16,16 h 320 a 16,16 0 0 0 16,-16 v -32 a 16,16 0 0 0 -16,-16 z m -480,-224 h 64 a 8,8 0 0 0 8,-8 v -16 a 8,8 0 0 0 -8,-8 h -16 v -88 a 8,8 0 0 0 -8,-8 h -24 a 8,8 0 0 0 -7.14,4.42 l -8,16 a 8,8 0 0 0 7.14,11.58 h 8 v 64 h -16 a 8,8 0 0 0 -8,8 v 16 a 8,8 0 0 0 8,8 z m -3.91,160 h 67.91 a 8,8 0 0 0 8,-8 v -16 a 8,8 0 0 0 -8,-8 h -38.68 c 3.29,-10.29 48.34,-18.68 48.34,-56.44 0,-29.06 -25,-39.56 -44.47,-39.56 -21.36,0 -33.8,10 -40.46,18.75 -4.37,5.59 -3,10.84 2.8,15.37 l 8.58,6.88 c 5.61,4.56 11,2.47 16.12,-2.44 a 13.44,13.44 0 0 1 9.46,-3.84 c 3.33,0 9.28,1.56 9.28,8.75 0.03,12.72 -50.97,21.84 -50.97,69.12 v 4 c 0,7.41 5.08,11.41 12.09,11.41 z"
       style="fill:#455a64;fill-opacity:1"
       inkscape:connector-curvature="0" />
    <path
       id="path2-60-7"
       d="m 3146.787,3200.4963 17.5,-20.15 a 19.92,19.92 0 0 0 5.07,-14.19 v -3.31 c 0,-7.35 -3.84,-11.35 -11.34,-11.35 h -57 a 8,8 0 0 0 -8,8 v 16 a 8,8 0 0 0 8,8 h 22.83 a 157.41,157.41 0 0 0 -11,12.31 l -5.61,7 c -4,5.07 -5.25,10.13 -2.8,14.88 l 1.05,1.93 c 3,5.76 6.29,7.88 12.25,7.88 h 4.73 c 10.33,0 15.94,2.44 15.94,9.09 0,4.72 -4.2,8.22 -14.36,8.22 a 41.54,41.54 0 0 1 -15.47,-3.12 c -6.49,-3.88 -11.74,-3.5 -15.6,3.12 l -5.59,9.31 c -3.72,6.13 -3.19,11.72 2.63,15.94 7.71,4.69 20.38,9.44 37,9.44 34.16,0 48.5,-22.75 48.5,-44.12 -0.03,-14.38 -9.12,-29.76 -28.73,-34.88 z m 434.23,-177 h -320 a 16,16 0 0 0 -16,16 v 32 a 16,16 0 0 0 16,16 h 320 a 16,16 0 0 0 16,-16 v -32 a 16,16 0 0 0 -16,-16 z m 0,-160 h -320 a 16,16 0 0 0 -16,16 v 32 a 16,16 0 0 0 16,16 h 320 a 16,16 0 0 0 16,-16 v -32 a 16,16 0 0 0 -16,-16 z m 0,320 h -320 a 16,16 0 0 0 -16,16 v 32 a 16,16 0 0 0 16,16 h 320 a 16,16 0 0 0 16,-16 v -32 a 16,16 0 0 0 -16,-16 z m -480,-224 h 64 a 8,8 0 0 0 8,-8 v -16 a 8,8 0 0 0 -8,-8 h -16 v -88 a 8,8 0 0 0 -8,-8 h -24 a 8,8 0 0 0 -7.14,4.42 l -8,16 a 8,8 0 0 0 7.14,11.58 h 8 v 64 h -16 a 8,8 0 0 0 -8,8 v 16 a 8,8 0 0 0 8,8 z m -3.91,160 h 67.91 a 8,8 0 0 0 8,-8 v -16 a 8,8 0 0 0 -8,-8 h -38.68 c 3.29,-10.29 48.34,-18.6801 48.34,-56.44 0,-29.06 -25,-39.56 -44.47,-39.56 -21.36,0 -33.8,10 -40.46,18.75 -4.37,5.59 -3,10.84 2.8,15.37 l 8.58,6.88 c 5.61,4.56 11,2.47 16.12,-2.44 a 13.44,13.44 0 0 1 9.46,-3.84 c 3.33,0 9.28,1.5599 9.28,8.75 0.03,12.7199 -50.97,21.84 -50.97,69.1199 v 4.0001 c 0,7.41 5.08,11.41 12.09,11.41 z"
       style="fill:#b3b3b3;fill-opacity:1"
       inkscape:connector-curvature="0" />
  </g>
  <g
     style="fill:#455a64;fill-opacity:1;stroke:#455a64;stroke-width:0.56723267;stroke-miterlimit:4;stroke-dasharray:none;stroke-opacity:1;paint-order:stroke fill markers"
     id="g58"
     transform="matrix(17.561193,0,0,-39.820436,-3087.4993,28328.57)">
    <text
       transform="matrix(1,0,0,-1,178.6,679.13)"
       style="font-variant:normal;font-weight:normal;font-size:9.96259975px;font-family:CMEX10;-inkscape-font-specification:CMEX10;writing-mode:lr-tb;fill:#455a64;fill-opacity:1;fill-rule:nonzero;stroke:#455a64;stroke-width:0.56723267;stroke-miterlimit:4;stroke-dasharray:none;stroke-opacity:1;paint-order:stroke fill markers"
       id="text26">
      <tspan
         x="0"
         y="0"
         id="tspan24"
         style="fill:#455a64;fill-opacity:1;stroke:#455a64;stroke-width:0.56723267;stroke-miterlimit:4;stroke-dasharray:none;stroke-opacity:1;paint-order:stroke fill markers">|</tspan>
    </text>
    <g
       id="g28"
       transform="translate(183.083,679.13)"
       style="fill:#455a64;fill-opacity:1;stroke:#455a64;stroke-width:0.56723267;stroke-miterlimit:4;stroke-dasharray:none;stroke-opacity:1;paint-order:stroke fill markers">
      <path
         d="M 0,0 H 90.66 V 1.195 H 0 Z"
         style="fill:#455a64;fill-opacity:1;fill-rule:nonzero;stroke:#455a64;stroke-width:0.56723267;stroke-miterlimit:4;stroke-dasharray:none;stroke-opacity:1;paint-order:stroke fill markers"
         id="path30"
         inkscape:connector-curvature="0" />
    </g>
    <text
       transform="scale(1,-1)"
       style="font-variant:normal;font-weight:normal;font-size:9.96259975px;font-family:CMEX10;-inkscape-font-specification:CMEX10;writing-mode:lr-tb;fill:#455a64;fill-opacity:1;fill-rule:nonzero;stroke:#455a64;stroke-width:0.56723267;stroke-miterlimit:4;stroke-dasharray:none;stroke-opacity:1;paint-order:stroke fill markers"
       id="text34"
       x="273.74301"
       y="-679.13">
      <tspan
         x="273.74301 278.22617"
         y="-679.13"
         sodipodi:role="line"
         id="tspan32">{z</tspan>
    </text>
    <g
       id="g36"
       transform="translate(282.71,679.13)"
       style="fill:#455a64;fill-opacity:1;stroke:#455a64;stroke-width:0.56723267;stroke-miterlimit:4;stroke-dasharray:none;stroke-opacity:1;paint-order:stroke fill markers">
      <path
         d="M 0,0 H 90.66 V 1.195 H 0 Z"
         style="fill:#455a64;fill-opacity:1;fill-rule:nonzero;stroke:#455a64;stroke-width:0.56723267;stroke-miterlimit:4;stroke-dasharray:none;stroke-opacity:1;paint-order:stroke fill markers"
         id="path38"
         inkscape:connector-curvature="0" />
    </g>
    <text
       transform="matrix(1,0,0,-1,373.37,679.13)"
       style="font-variant:normal;font-weight:normal;font-size:9.96259975px;font-family:CMEX10;-inkscape-font-specification:CMEX10;writing-mode:lr-tb;fill:#455a64;fill-opacity:1;fill-rule:nonzero;stroke:#455a64;stroke-width:0.56723267;stroke-miterlimit:4;stroke-dasharray:none;stroke-opacity:1;paint-order:stroke fill markers"
       id="text42">
      <tspan
         x="0"
         y="0"
         id="tspan40"
         style="fill:#455a64;fill-opacity:1;stroke:#455a64;stroke-width:0.56723267;stroke-miterlimit:4;stroke-dasharray:none;stroke-opacity:1;paint-order:stroke fill markers">}</tspan>
    </text>
  </g>
  <path
     inkscape:connector-curvature="0"
     style="fill:#455a64;fill-opacity:1"
     d="m 3086.8096,1827.155 h -384 c -17.67,0 -32,14.33 -32,32 v 32 c 0,17.67 14.33,32 32,32 h 384 c 17.67,0 32,-14.33 32,-32 v -32 c 0,-17.67 -14.33,-32 -32,-32 z m 0,-192 h -384 c -17.67,0 -32,14.33 -32,32 v 32 c 0,17.67 14.33,32 32,32 h 384 c 17.67,0 32,-14.33 32,-32 v -32 c 0,-17.67 -14.33,-32 -32,-32 z"
     id="path165" />
  <g
     id="g1067"
     transform="matrix(1.5560033,0,0,1.5560033,-1211.9141,-774.42999)">
    <g
       id="g1046">
      <text
         xml:space="preserve"
         style="font-style:normal;font-weight:normal;font-size:40px;line-height:1.25;font-family:sans-serif;letter-spacing:0px;word-spacing:0px;fill:#455a64;fill-opacity:1;stroke:none"
         x="3219.3474"
         y="1458.9468"
         id="text997"><tspan
           sodipodi:role="line"
           x="3219.3474"
           y="1458.9468"
           id="tspan1001"
           style="font-style:normal;font-variant:normal;font-weight:bold;font-stretch:normal;font-size:106.66666412px;font-family:Lato;-inkscape-font-specification:'Lato Bold';fill:#455a64;fill-opacity:1">ALGORITHM</tspan></text>
      <text
         xml:space="preserve"
         style="font-style:normal;font-weight:normal;font-size:40px;line-height:1.25;font-family:sans-serif;letter-spacing:0px;word-spacing:0px;fill:#455a64;fill-opacity:1;stroke:none"
         x="3941.8462"
         y="1458.9468"
         id="text997-3"><tspan
           sodipodi:role="line"
           x="3941.8462"
           y="1458.9468"
           id="tspan1001-6"
           style="font-style:normal;font-variant:normal;font-weight:bold;font-stretch:normal;font-size:106.66666412px;font-family:Lato;-inkscape-font-specification:'Lato Bold';fill:#455a64;fill-opacity:1">SCORE</tspan></text>
      <path
         inkscape:connector-curvature="0"
         id="path1050"
         d="M 3192.3833,1498.4502 H 4338.3277"
         style="fill:none;stroke:#455a64;stroke-width:20;stroke-linecap:butt;stroke-linejoin:miter;stroke-miterlimit:4;stroke-dasharray:none;stroke-opacity:1" />
    </g>
    <text
       id="text1028"
       y="1628.245"
       x="3218.4407"
       style="font-style:normal;font-weight:normal;font-size:40px;line-height:1.25;font-family:sans-serif;letter-spacing:0px;word-spacing:0px;fill:#455a64;fill-opacity:1;stroke:none"
       xml:space="preserve"><tspan
         style="font-style:normal;font-variant:normal;font-weight:normal;font-stretch:normal;font-size:106.66666412px;font-family:Lato;-inkscape-font-specification:Lato;fill:#455a64;fill-opacity:1"
         y="1628.245"
         x="3218.4407"
         id="tspan1026"
         sodipodi:role="line">Alpha</tspan><tspan
         id="tspan1030"
         style="font-style:normal;font-variant:normal;font-weight:normal;font-stretch:normal;font-size:106.66666412px;font-family:Lato;-inkscape-font-specification:Lato;fill:#455a64;fill-opacity:1"
         y="1761.5784"
         x="3218.4407"
         sodipodi:role="line">Greedy</tspan><tspan
         id="tspan1032"
         style="font-style:normal;font-variant:normal;font-weight:normal;font-stretch:normal;font-size:106.66666412px;font-family:Lato;-inkscape-font-specification:Lato;fill:#455a64;fill-opacity:1"
         y="1894.9116"
         x="3218.4407"
         sodipodi:role="line">HGS</tspan></text>
    <text
       id="text1036"
       y="1624.1642"
       x="4112.2593"
       style="font-style:normal;font-weight:normal;font-size:40px;line-height:1.25;font-family:sans-serif;letter-spacing:0px;word-spacing:0px;fill:#455a64;fill-opacity:1;stroke:none"
       xml:space="preserve"><tspan
         style="font-size:106.66666412px;text-align:center;text-anchor:middle;fill:#455a64;fill-opacity:1"
         y="1624.1642"
         x="4112.2593"
         id="tspan1034"
         sodipodi:role="line">20</tspan><tspan
         style="font-size:106.66666412px;text-align:center;text-anchor:middle;fill:#455a64;fill-opacity:1"
         id="tspan1038"
         y="1757.4976"
         x="4112.2593"
         sodipodi:role="line">10</tspan><tspan
         style="font-size:106.66666412px;text-align:center;text-anchor:middle;fill:#455a64;fill-opacity:1"
         id="tspan1040"
         y="1890.8308"
         x="4112.2593"
         sodipodi:role="line">-3</tspan></text>
    <rect
       y="1334.3055"
       x="3189.3152"
       height="613.62488"
       width="1150.5466"
       id="rect1048"
       style="fill:none;fill-opacity:1;stroke:#455a64;stroke-width:20;stroke-linecap:round;stroke-linejoin:round;stroke-miterlimit:4;stroke-dasharray:none;stroke-opacity:1" />
  </g>
</svg>
