<?xml version="1.0" encoding="UTF-8" standalone="no"?>
<svg
   xmlns:dc="http://purl.org/dc/elements/1.1/"
   xmlns:cc="http://creativecommons.org/ns#"
   xmlns:rdf="http://www.w3.org/1999/02/22-rdf-syntax-ns#"
   xmlns:svg="http://www.w3.org/2000/svg"
   xmlns="http://www.w3.org/2000/svg"
   xmlns:sodipodi="http://sodipodi.sourceforge.net/DTD/sodipodi-0.dtd"
   xmlns:inkscape="http://www.inkscape.org/namespaces/inkscape"
   aria-hidden="true"
   focusable="false"
   data-prefix="fas"
   data-icon="tasks"
   class="svg-inline--fa fa-tasks fa-w-16"
   role="img"
   viewBox="0 0 2514.2036 1384.1125"
   version="1.1"
   id="svg12"
   sodipodi:docname="method-tcp-arrows.svg"
   inkscape:version="0.92.3 (2405546, 2018-03-11)"
   width="2514.2036"
   height="1384.1125">
  <metadata
     id="metadata18">
    <rdf:RDF>
      <cc:Work
         rdf:about="">
        <dc:format>image/svg+xml</dc:format>
        <dc:type
           rdf:resource="http://purl.org/dc/dcmitype/StillImage" />
        <dc:title />
      </cc:Work>
    </rdf:RDF>
  </metadata>
  <defs
     id="defs16">
    <marker
       inkscape:isstock="true"
       style="overflow:visible"
       id="marker2492"
       refX="0"
       refY="0"
       orient="auto"
       inkscape:stockid="TriangleOutM">
      <path
         inkscape:connector-curvature="0"
         transform="scale(0.4)"
         style="fill:#455a64;fill-opacity:1;fill-rule:evenodd;stroke:#455a64;stroke-width:1.00000003pt;stroke-opacity:1"
         d="M 5.77,0 -2.88,5 V -5 Z"
         id="path2490" />
    </marker>
    <marker
       inkscape:stockid="TriangleOutM"
       orient="auto"
       refY="0"
       refX="0"
       id="marker2408"
       style="overflow:visible"
       inkscape:isstock="true"
       inkscape:collect="always">
      <path
         id="path2406"
         d="M 5.77,0 -2.88,5 V -5 Z"
         style="fill:#455a64;fill-opacity:1;fill-rule:evenodd;stroke:#455a64;stroke-width:1.00000003pt;stroke-opacity:1"
         transform="scale(0.4)"
         inkscape:connector-curvature="0" />
    </marker>
    <marker
       inkscape:isstock="true"
       style="overflow:visible"
       id="marker2324"
       refX="0"
       refY="0"
       orient="auto"
       inkscape:stockid="TriangleOutM"
       inkscape:collect="always">
      <path
         inkscape:connector-curvature="0"
         transform="scale(0.4)"
         style="fill:#455a64;fill-opacity:1;fill-rule:evenodd;stroke:#455a64;stroke-width:1.00000003pt;stroke-opacity:1"
         d="M 5.77,0 -2.88,5 V -5 Z"
         id="path2322" />
    </marker>
    <marker
       inkscape:stockid="TriangleOutM"
       orient="auto"
       refY="0"
       refX="0"
       id="marker2110"
       style="overflow:visible"
       inkscape:isstock="true"
       inkscape:collect="always">
      <path
         id="path2108"
         d="M 5.77,0 -2.88,5 V -5 Z"
         style="fill:#455a64;fill-opacity:1;fill-rule:evenodd;stroke:#455a64;stroke-width:1.00000003pt;stroke-opacity:1"
         transform="scale(0.4)"
         inkscape:connector-curvature="0" />
    </marker>
    <marker
       inkscape:isstock="true"
       style="overflow:visible"
       id="marker1944"
       refX="0"
       refY="0"
       orient="auto"
       inkscape:stockid="TriangleOutM"
       inkscape:collect="always">
      <path
         inkscape:connector-curvature="0"
         transform="scale(0.4)"
         style="fill:#455a64;fill-opacity:1;fill-rule:evenodd;stroke:#455a64;stroke-width:1.00000003pt;stroke-opacity:1"
         d="M 5.77,0 -2.88,5 V -5 Z"
         id="path1942" />
    </marker>
    <marker
       inkscape:stockid="TriangleOutM"
       orient="auto"
       refY="0"
       refX="0"
       id="marker1594"
       style="overflow:visible"
       inkscape:isstock="true"
       inkscape:collect="always">
      <path
         id="path1592"
         d="M 5.77,0 -2.88,5 V -5 Z"
         style="fill:#455a64;fill-opacity:1;fill-rule:evenodd;stroke:#455a64;stroke-width:1.00000003pt;stroke-opacity:1"
         transform="scale(0.4)"
         inkscape:connector-curvature="0" />
    </marker>
    <marker
       inkscape:stockid="Arrow2Mend"
       orient="auto"
       refY="0"
       refX="0"
       id="Arrow2Mend"
       style="overflow:visible"
       inkscape:isstock="true">
      <path
         id="path1119"
         style="fill:#000000;fill-opacity:1;fill-rule:evenodd;stroke:#000000;stroke-width:0.625;stroke-linejoin:round;stroke-opacity:1"
         d="M 8.7185878,4.0337352 -2.2072895,0.01601326 8.7185884,-4.0017078 c -1.7454984,2.3720609 -1.7354408,5.6174519 -6e-7,8.035443 z"
         transform="scale(-0.6)"
         inkscape:connector-curvature="0" />
    </marker>
    <marker
       inkscape:isstock="true"
       style="overflow:visible"
       id="marker4430"
       refX="0"
       refY="0"
       orient="auto"
       inkscape:stockid="TriangleOutM">
      <path
         transform="scale(0.4)"
         style="fill:#455a64;fill-opacity:1;fill-rule:evenodd;stroke:#455a64;stroke-width:1.00000003pt;stroke-opacity:1"
         d="M 5.77,0 -2.88,5 V -5 Z"
         id="path4428"
         inkscape:connector-curvature="0" />
    </marker>
    <marker
       inkscape:isstock="true"
       style="overflow:visible"
       id="marker4268"
       refX="0"
       refY="0"
       orient="auto"
       inkscape:stockid="TriangleOutM"
       inkscape:collect="always">
      <path
         transform="scale(0.4)"
         style="fill:#455a64;fill-opacity:1;fill-rule:evenodd;stroke:#455a64;stroke-width:1.00000003pt;stroke-opacity:1"
         d="M 5.77,0 -2.88,5 V -5 Z"
         id="path4266"
         inkscape:connector-curvature="0" />
    </marker>
    <marker
       inkscape:stockid="TriangleOutM"
       orient="auto"
       refY="0"
       refX="0"
       id="marker3942"
       style="overflow:visible"
       inkscape:isstock="true"
       inkscape:collect="always">
      <path
         id="path3940"
         d="M 5.77,0 -2.88,5 V -5 Z"
         style="fill:#455a64;fill-opacity:1;fill-rule:evenodd;stroke:#455a64;stroke-width:1.00000003pt;stroke-opacity:1"
         transform="scale(0.4)"
         inkscape:connector-curvature="0" />
    </marker>
    <marker
       inkscape:stockid="TriangleOutL"
       orient="auto"
       refY="0"
       refX="0"
       id="TriangleOutL"
       style="overflow:visible"
       inkscape:isstock="true">
      <path
         id="path2142"
         d="M 5.77,0 -2.88,5 V -5 Z"
         style="fill:#000000;fill-opacity:1;fill-rule:evenodd;stroke:#000000;stroke-width:1.00000003pt;stroke-opacity:1"
         transform="scale(0.8)"
         inkscape:connector-curvature="0" />
    </marker>
  </defs>
  <sodipodi:namedview
     pagecolor="#ffffff"
     bordercolor="#666666"
     borderopacity="1"
     objecttolerance="10"
     gridtolerance="10"
     guidetolerance="10"
     inkscape:pageopacity="0"
     inkscape:pageshadow="2"
     inkscape:window-width="1920"
     inkscape:window-height="1022"
     id="namedview14"
     showgrid="false"
     inkscape:zoom="1"
     inkscape:cx="1380.382"
     inkscape:cy="190.5632"
     inkscape:window-x="0"
     inkscape:window-y="33"
     inkscape:window-maximized="1"
     inkscape:current-layer="g2231"
     showguides="true"
     inkscape:guide-bbox="true"
     fit-margin-top="0"
     fit-margin-left="0"
     fit-margin-right="0"
     fit-margin-bottom="0">
    <sodipodi:guide
       position="2082.225,1158.0304"
       orientation="1,0"
       id="guide1974"
       inkscape:locked="false"
       inkscape:label=""
       inkscape:color="rgb(0,0,255)" />
    <sodipodi:guide
       position="480.26597,-56.968373"
       orientation="1,0"
       id="guide1976"
       inkscape:locked="false"
       inkscape:label=""
       inkscape:color="rgb(0,0,255)" />
    <sodipodi:guide
       position="1855.9383,1336.1068"
       orientation="0,1"
       id="guide1978"
       inkscape:locked="false"
       inkscape:label=""
       inkscape:color="rgb(0,0,255)" />
    <sodipodi:guide
       position="1827.4272,1175.0968"
       orientation="0,1"
       id="guide1980"
       inkscape:locked="false"
       inkscape:label=""
       inkscape:color="rgb(0,0,255)" />
    <sodipodi:guide
       position="1343.153,1014.0768"
       orientation="0,1"
       id="guide1982"
       inkscape:locked="false"
       inkscape:label=""
       inkscape:color="rgb(0,0,255)" />
    <sodipodi:guide
       position="1698.0409,853.01084"
       orientation="0,1"
       id="guide1984"
       inkscape:locked="false"
       inkscape:label=""
       inkscape:color="rgb(0,0,255)" />
    <sodipodi:guide
       position="1631.4994,692.05584"
       orientation="0,1"
       id="guide1986"
       inkscape:locked="false"
       inkscape:label=""
       inkscape:color="rgb(0,0,255)" />
    <sodipodi:guide
       position="1749.7954,531.04185"
       orientation="0,1"
       id="guide1988"
       inkscape:locked="false"
       inkscape:label=""
       inkscape:color="rgb(0,0,255)" />
    <sodipodi:guide
       position="1461.4489,209.01384"
       orientation="0,1"
       id="guide1992"
       inkscape:locked="false"
       inkscape:label=""
       inkscape:color="rgb(0,0,255)" />
    <sodipodi:guide
       position="1897.666,47.999846"
       orientation="0,1"
       id="guide1994"
       inkscape:locked="false"
       inkscape:label=""
       inkscape:color="rgb(0,0,255)" />
    <sodipodi:guide
       position="1688.1829,-113.01415"
       orientation="0,1"
       id="guide1996"
       inkscape:locked="false"
       inkscape:label=""
       inkscape:color="rgb(0,0,255)" />
    <sodipodi:guide
       position="2033.938,1706.144"
       orientation="1,0"
       id="guide3234"
       inkscape:locked="false"
       inkscape:label=""
       inkscape:color="rgb(0,0,255)" />
  </sodipodi:namedview>
  <g
     id="g2371"
     transform="translate(-1743.375,-39.410202)">
    <g
       transform="translate(-17.251504,7.3935018)"
       id="g2341">
      <g
         id="g2312">
        <g
           id="g2284">
          <g
             id="g2257">
            <g
               id="g2231">
              <path
                 inkscape:connector-curvature="0"
                 id="path1605"
                 d="m 1809.2165,515.05881 c -26.49,0 -48.59,21.5 -48.59,48 0,26.5 22.12,48 48.59,48 a 48,48 0 0 0 0,-96 z"
                 style="fill:#ffc107;fill-opacity:1" />
              <path
                 inkscape:connector-curvature="0"
                 style="fill:#ffc107;fill-opacity:1"
                 d="m 2224.8925,531.05881 h -288.0001 a 16,16 0 0 0 -16,16 v 32 a 16,16 0 0 0 16,16 h 288.0001 a 16,16 0 0 0 16,-16 v -32 a 16,16 0 0 0 -16,-16 z"
                 id="path1601-3-6-9-7" />
              <path
                 inkscape:connector-curvature="0"
                 id="path1605-2"
                 d="m 1809.2165,676.0729 c -26.49,0 -48.59,21.5 -48.59,48 0,26.5 22.12,48 48.59,48 a 48,48 0 0 0 0,-96 z"
                 style="fill:#ffc107;fill-opacity:1" />
              <path
                 inkscape:connector-curvature="0"
                 style="fill:#ffc107;fill-opacity:1"
                 d="m 2224.8925,692.0729 h -288.0001 a 16,16 0 0 0 -16,16 v 32 a 16,16 0 0 0 16,16 h 288.0001 a 16,16 0 0 0 16,-16 v -32 a 16,16 0 0 0 -16,-16 z"
                 id="path1601-3-6-9-7-2" />
              <path
                 inkscape:connector-curvature="0"
                 id="path1605-3"
                 d="m 1809.2165,837.08694 c -26.49,0 -48.59,21.5 -48.59,48 0,26.5 22.12,48 48.59,48 a 48,48 0 0 0 0,-96 z"
                 style="fill:#ffc107;fill-opacity:1" />
              <path
                 inkscape:connector-curvature="0"
                 style="fill:#ffc107;fill-opacity:1"
                 d="m 2224.8925,853.08694 h -288.0001 a 16,16 0 0 0 -16,16 v 32 a 16,16 0 0 0 16,16 h 288.0001 a 16,16 0 0 0 16,-16 v -32 a 16,16 0 0 0 -16,-16 z"
                 id="path1601-3-6-9-7-6" />
              <path
                 inkscape:connector-curvature="0"
                 id="path1605-9"
                 d="m 1809.2165,1159.1151 c -26.49,0 -48.59,21.5 -48.59,48 0,26.5 22.12,48 48.59,48 a 48,48 0 0 0 0,-96 z"
                 style="fill:#ffc107;fill-opacity:1" />
              <path
                 inkscape:connector-curvature="0"
                 style="fill:#ffc107;fill-opacity:1"
                 d="m 2224.8925,1175.1151 h -288.0001 a 16,16 0 0 0 -16,16 v 32 a 16,16 0 0 0 16,16 h 288.0001 a 16,16 0 0 0 16,-16 v -32 a 16,16 0 0 0 -16,-16 z"
                 id="path1601-3-6-9-7-3" />
              <path
                 inkscape:connector-curvature="0"
                 id="path1605-7"
                 d="m 1809.2165,1320.1292 c -26.49,0 -48.59,21.5 -48.59,48 0,26.5 22.12,48 48.59,48 a 48,48 0 0 0 0,-96 z"
                 style="fill:#ffc107;fill-opacity:1" />
              <path
                 inkscape:connector-curvature="0"
                 style="fill:#ffc107;fill-opacity:1"
                 d="m 2224.8925,1336.1292 h -288.0001 a 16,16 0 0 0 -16,16 v 32 a 16,16 0 0 0 16,16 h 288.0001 a 16,16 0 0 0 16,-16 v -32 a 16,16 0 0 0 -16,-16 z"
                 id="path1601-3-6-9-7-8" />
              <path
                 inkscape:connector-curvature="0"
                 id="path1605-32"
                 d="m 1809.2165,998.10096 c -26.49,0 -48.59,21.50004 -48.59,48.00004 0,26.5 22.12,48 48.59,48 a 48.00002,48.00002 0 0 0 0,-96.00004 z"
                 style="fill:#ffc107;fill-opacity:1" />
              <path
                 inkscape:connector-curvature="0"
                 style="fill:#ffc107;fill-opacity:1"
                 d="m 2224.8925,1014.101 h -288.0001 a 16,16 0 0 0 -16,16 v 32 a 16,16 0 0 0 16,16 h 288.0001 a 16,16 0 0 0 16,-16 v -32 a 16,16 0 0 0 -16,-16 z"
                 id="path1601-3-6-9-7-0" />
              <path
                 inkscape:connector-curvature="0"
                 id="path1605-6"
                 d="m 1809.2165,354.04477 c -26.49,0 -48.59,21.5 -48.59,48 0,26.5 22.12,48 48.59,48 a 48,48 0 0 0 0,-96 z"
                 style="fill:#ffc107;fill-opacity:1" />
              <path
                 inkscape:connector-curvature="0"
                 style="fill:#ffc107;fill-opacity:1"
                 d="m 2224.8925,370.04477 h -288.0001 a 16,16 0 0 0 -16,16 v 32 a 16,16 0 0 0 16,16 h 288.0001 a 16,16 0 0 0 16,-16 v -32 a 16,16 0 0 0 -16,-16 z"
                 id="path1601-3-6-9-7-7" />
              <path
                 inkscape:connector-curvature="0"
                 id="path1605-35"
                 d="m 1809.2165,193.03074 c -26.49,0 -48.59,21.5 -48.59,48 0,26.5 22.12,48 48.59,48 a 48,48 0 0 0 0,-96 z"
                 style="fill:#ffc107;fill-opacity:1" />
              <path
                 inkscape:connector-curvature="0"
                 style="fill:#ffc107;fill-opacity:1"
                 d="m 2224.8925,209.03074 h -288.0001 a 16,16 0 0 0 -16,16 v 32 a 16,16 0 0 0 16,16 h 288.0001 a 16,16 0 0 0 16,-16 v -32 a 16,16 0 0 0 -16,-16 z"
                 id="path1601-3-6-9-7-62" />
              <path
                 inkscape:connector-curvature="0"
                 id="path1605-1"
                 d="m 1809.2165,32.0167 c -26.49,0 -48.59,21.5 -48.59,48 0,26.5 22.12,48 48.59,48 a 48,48 0 0 0 0,-96 z"
                 style="fill:#ffc107;fill-opacity:1" />
              <path
                 inkscape:connector-curvature="0"
                 style="fill:#ffc107;fill-opacity:1"
                 d="m 2224.8925,48.0167 h -288.0001 a 16,16 0 0 0 -16,16 v 32 a 16,16 0 0 0 16,16 h 288.0001 a 16,16 0 0 0 16,-16 v -32 a 16,16 0 0 0 -16,-16 z"
                 id="path1601-3-6-9-7-27" />
              <text
                 xml:space="preserve"
                 style="font-style:normal;font-weight:normal;font-size:40px;line-height:1.25;font-family:sans-serif;letter-spacing:0px;word-spacing:0px;fill:#000000;fill-opacity:1;stroke:none"
                 x="1850.5808"
                 y="385.02051"
                 id="text175"><tspan
                   sodipodi:role="line"
                   id="tspan173"
                   x="1850.5808"
                   y="421.05069" /></text>
              <text
                 xml:space="preserve"
                 style="font-style:normal;font-weight:normal;font-size:40px;line-height:1.25;font-family:sans-serif;letter-spacing:0px;word-spacing:0px;fill:#000000;fill-opacity:1;stroke:none"
                 x="3800.7302"
                 y="383.84045"
                 id="text175-2"><tspan
                   sodipodi:role="line"
                   id="tspan173-9"
                   x="3800.7302"
                   y="419.87064" /></text>
              <path
                 inkscape:connector-curvature="0"
                 id="path1605-94"
                 d="m 3843.1541,515.05881 c -26.49,0 -48.59,21.5 -48.59,48 0,26.5 22.12,48 48.59,48 a 48,48 0 0 0 0,-96 z"
                 style="fill:#ffc107;fill-opacity:1" />
              <path
                 inkscape:connector-curvature="0"
                 style="fill:#ffc107;fill-opacity:1"
                 d="M 4258.8301,531.05881 H 3970.83 a 16,16 0 0 0 -16,16 v 32 a 16,16 0 0 0 16,16 h 288.0001 a 16,16 0 0 0 16,-16 v -32 a 16,16 0 0 0 -16,-16 z"
                 id="path1601-3-6-9-7-78" />
              <path
                 inkscape:connector-curvature="0"
                 id="path1605-2-5"
                 d="m 3843.1541,676.0729 c -26.49,0 -48.59,21.5 -48.59,48 0,26.5 22.12,48 48.59,48 a 48,48 0 0 0 0,-96 z"
                 style="fill:#ffc107;fill-opacity:1" />
              <path
                 inkscape:connector-curvature="0"
                 style="fill:#ffc107;fill-opacity:1"
                 d="M 4258.8301,692.0729 H 3970.83 a 16,16 0 0 0 -16,16 v 32 a 16,16 0 0 0 16,16 h 288.0001 a 16,16 0 0 0 16,-16 v -32 a 16,16 0 0 0 -16,-16 z"
                 id="path1601-3-6-9-7-2-0" />
              <path
                 inkscape:connector-curvature="0"
                 id="path1605-3-3"
                 d="m 3843.1541,837.08694 c -26.49,0 -48.59,21.5 -48.59,48 0,26.5 22.12,48 48.59,48 a 48,48 0 0 0 0,-96 z"
                 style="fill:#ffc107;fill-opacity:1" />
              <path
                 inkscape:connector-curvature="0"
                 style="fill:#ffc107;fill-opacity:1"
                 d="M 4258.8301,853.08694 H 3970.83 a 16,16 0 0 0 -16,16 v 32 a 16,16 0 0 0 16,16 h 288.0001 a 16,16 0 0 0 16,-16 v -32 a 16,16 0 0 0 -16,-16 z"
                 id="path1601-3-6-9-7-6-6" />
              <path
                 inkscape:connector-curvature="0"
                 id="path1605-9-1"
                 d="m 3843.1541,1159.1151 c -26.49,0 -48.59,21.5 -48.59,48 0,26.5 22.12,48 48.59,48 a 48,48 0 0 0 0,-96 z"
                 style="fill:#ffc107;fill-opacity:1" />
              <path
                 inkscape:connector-curvature="0"
                 style="fill:#ffc107;fill-opacity:1"
                 d="M 4258.8301,1175.1151 H 3970.83 a 16,16 0 0 0 -16,16 v 32 a 16,16 0 0 0 16,16 h 288.0001 a 16,16 0 0 0 16,-16 v -32 a 16,16 0 0 0 -16,-16 z"
                 id="path1601-3-6-9-7-3-0" />
              <path
                 inkscape:connector-curvature="0"
                 id="path1605-7-6"
                 d="m 3843.1541,1320.1292 c -26.49,0 -48.59,21.5 -48.59,48 0,26.5 22.12,48 48.59,48 a 48,48 0 0 0 0,-96 z"
                 style="fill:#ffc107;fill-opacity:1" />
              <path
                 inkscape:connector-curvature="0"
                 style="fill:#ffc107;fill-opacity:1"
                 d="M 4258.8301,1336.1292 H 3970.83 a 16,16 0 0 0 -16,16 v 32 a 16,16 0 0 0 16,16 h 288.0001 a 16,16 0 0 0 16,-16 v -32 a 16,16 0 0 0 -16,-16 z"
                 id="path1601-3-6-9-7-8-3" />
              <path
                 inkscape:connector-curvature="0"
                 id="path1605-32-6"
                 d="m 3843.1541,998.10096 c -26.49,0 -48.59,21.50004 -48.59,48.00004 0,26.5 22.12,48 48.59,48 a 48.00002,48.00002 0 0 0 0,-96.00004 z"
                 style="fill:#ffc107;fill-opacity:1" />
              <path
                 inkscape:connector-curvature="0"
                 style="fill:#ffc107;fill-opacity:1"
                 d="M 4258.8301,1014.101 H 3970.83 a 16,16 0 0 0 -16,16 v 32 a 16,16 0 0 0 16,16 h 288.0001 a 16,16 0 0 0 16,-16 v -32 a 16,16 0 0 0 -16,-16 z"
                 id="path1601-3-6-9-7-0-1" />
              <path
                 inkscape:connector-curvature="0"
                 id="path1605-6-5"
                 d="m 3843.1541,354.04477 c -26.49,0 -48.59,21.5 -48.59,48 0,26.5 22.12,48 48.59,48 a 48,48 0 0 0 0,-96 z"
                 style="fill:#ffc107;fill-opacity:1" />
              <path
                 inkscape:connector-curvature="0"
                 style="fill:#ffc107;fill-opacity:1"
                 d="M 4258.8301,370.04477 H 3970.83 a 16,16 0 0 0 -16,16 v 32 a 16,16 0 0 0 16,16 h 288.0001 a 16,16 0 0 0 16,-16 v -32 a 16,16 0 0 0 -16,-16 z"
                 id="path1601-3-6-9-7-7-4" />
              <path
                 inkscape:connector-curvature="0"
                 id="path1605-35-6"
                 d="m 3843.1541,193.03074 c -26.49,0 -48.59,21.5 -48.59,48 0,26.5 22.12,48 48.59,48 a 48,48 0 0 0 0,-96 z"
                 style="fill:#ffc107;fill-opacity:1" />
              <path
                 inkscape:connector-curvature="0"
                 style="fill:#ffc107;fill-opacity:1"
                 d="M 4258.8301,209.03074 H 3970.83 a 16,16 0 0 0 -16,16 v 32 a 16,16 0 0 0 16,16 h 288.0001 a 16,16 0 0 0 16,-16 v -32 a 16,16 0 0 0 -16,-16 z"
                 id="path1601-3-6-9-7-62-5" />
              <path
                 inkscape:connector-curvature="0"
                 id="path1605-1-9"
                 d="m 3843.1541,32.0167 c -26.49,0 -48.59,21.5 -48.59,48 0,26.5 22.12,48 48.59,48 a 48,48 0 0 0 0,-96 z"
                 style="fill:#ffc107;fill-opacity:1" />
              <path
                 inkscape:connector-curvature="0"
                 style="fill:#ffc107;fill-opacity:1"
                 d="M 4258.8301,48.0167 H 3970.83 a 16,16 0 0 0 -16,16 v 32 a 16,16 0 0 0 16,16 h 288.0001 a 16,16 0 0 0 16,-16 v -32 a 16,16 0 0 0 -16,-16 z"
                 id="path1601-3-6-9-7-27-3" />
              <text
                 id="text3580"
                 y="80.022331"
                 x="1988.3149"
                 style="font-style:normal;font-weight:normal;font-size:40px;line-height:1.25;font-family:sans-serif;letter-spacing:0px;word-spacing:0px;fill:#000000;fill-opacity:1;stroke:none"
                 xml:space="preserve"><tspan
                   y="116.05251"
                   x="1988.3149"
                   id="tspan3578"
                   sodipodi:role="line" /></text>
              <path
                 inkscape:connector-curvature="0"
                 id="path3932"
                 d="m 2240.8925,1368.1294 1553.672,-322.028"
                 style="fill:none;stroke:#455a64;stroke-width:10;stroke-linecap:round;stroke-linejoin:miter;stroke-miterlimit:4;stroke-dasharray:none;stroke-opacity:1;marker-end:url(#marker3942)" />
              <path
                 inkscape:connector-curvature="0"
                 id="path4258"
                 d="m 2240.8925,563.11832 1553.672,-161.066"
                 style="fill:none;stroke:#455a64;stroke-width:10;stroke-linecap:round;stroke-linejoin:miter;stroke-miterlimit:4;stroke-dasharray:none;stroke-opacity:1;marker-end:url(#marker4268)" />
              <path
                 inkscape:connector-curvature="0"
                 id="path4420"
                 d="M 2240.8925,80.022329 3794.5645,241.03232"
                 style="fill:none;stroke:#455a64;stroke-width:10;stroke-linecap:round;stroke-linejoin:miter;stroke-miterlimit:4;stroke-dasharray:none;stroke-opacity:1;marker-end:url(#marker4430)" />
              <text
                 xml:space="preserve"
                 style="font-style:normal;font-weight:normal;font-size:40px;line-height:1.25;font-family:sans-serif;letter-spacing:0px;word-spacing:0px;fill:#000000;fill-opacity:1;stroke:none"
                 x="3650.8611"
                 y="-20.457838"
                 id="text175-7"><tspan
                   sodipodi:role="line"
                   id="tspan173-4"
                   x="3650.8611"
                   y="15.572339" /></text>
              <text
                 xml:space="preserve"
                 style="font-style:normal;font-weight:normal;font-size:40px;line-height:1.25;font-family:sans-serif;letter-spacing:0px;word-spacing:0px;fill:#000000;fill-opacity:1;stroke:none"
                 x="5601.0107"
                 y="-21.637892"
                 id="text175-2-5"><tspan
                   sodipodi:role="line"
                   id="tspan173-9-2"
                   x="5601.0107"
                   y="14.392285" /></text>
              <path
                 style="fill:none;stroke:#455a64;stroke-width:10;stroke-linecap:round;stroke-linejoin:miter;stroke-opacity:1;stroke-miterlimit:4;stroke-dasharray:none;marker-end:url(#marker1594)"
                 d="M 2240.8925,1207.1154 3794.5645,724.07339"
                 id="path1772"
                 inkscape:connector-curvature="0" />
              <path
                 style="fill:none;stroke:#455a64;stroke-width:10;stroke-linecap:round;stroke-linejoin:miter;stroke-opacity:1;stroke-miterlimit:4;stroke-dasharray:none;marker-end:url(#marker1944)"
                 d="m 2240.8925,1048.1292 1553.672,320.0002"
                 id="path1934"
                 inkscape:connector-curvature="0" />
              <path
                 style="fill:none;stroke:#455a64;stroke-width:10;stroke-linecap:round;stroke-linejoin:miter;stroke-opacity:1;stroke-miterlimit:4;stroke-dasharray:none;marker-end:url(#marker2110)"
                 d="M 2240.8925,402.05243 3794.5645,80.022422"
                 id="path2100"
                 inkscape:connector-curvature="0" />
              <path
                 style="fill:none;stroke:#455a64;stroke-width:10;stroke-linecap:round;stroke-linejoin:miter;stroke-opacity:1;stroke-miterlimit:4;stroke-dasharray:none;marker-end:url(#marker2324)"
                 d="m 2240.8925,885.08739 h 1553.672"
                 id="path2314"
                 inkscape:connector-curvature="0" />
              <path
                 style="fill:none;stroke:#455a64;stroke-width:10;stroke-linecap:round;stroke-linejoin:miter;stroke-opacity:1;stroke-miterlimit:4;stroke-dasharray:none;marker-end:url(#marker2408)"
                 d="m 2240.8925,724.07339 1553.672,483.04201"
                 id="path2398"
                 inkscape:connector-curvature="0" />
              <path
                 style="fill:none;stroke:#455a64;stroke-width:10;stroke-linecap:round;stroke-linejoin:miter;stroke-opacity:1;stroke-miterlimit:4;stroke-dasharray:none;marker-end:url(#marker2492)"
                 d="m 2240.8925,241.03242 1553.672,322.08597"
                 id="path2482"
                 inkscape:connector-curvature="0" />
              <path
                 inkscape:connector-curvature="0"
                 style="fill:#0288d1;fill-opacity:1;stroke:#fff8e1;stroke-width:25;stroke-miterlimit:4;stroke-dasharray:none;stroke-opacity:1;paint-order:stroke fill markers"
                 d="m 2984.2398,534.973 22.2,-22.2 c 9.4,-9.4 24.6,-9.4 33.9,0 l 194.4,194.3 c 9.4,9.4 9.4,24.6 0,33.9 l -194.4,194.39994 c -9.4,9.4 -24.6,9.4 -33.9,0 l -22.2,-22.19994 c -9.5,-9.5 -9.3,-25 0.4,-34.3 l 120.5,-114.8 h -287.4 c -13.3,0 -24,-10.7 -24,-24 v -32 c 0,-13.3 10.7,-24 24,-24 h 287.4 l -120.5,-114.8 c -9.8,-9.3 -10,-24.8 -0.4,-34.3 z"
                 id="path2" />
            </g>
          </g>
        </g>
      </g>
    </g>
  </g>
</svg>
