<?xml version="1.0" encoding="UTF-8" standalone="no"?>
<!-- Created with Inkscape (http://www.inkscape.org/) -->

<svg
   xmlns:dc="http://purl.org/dc/elements/1.1/"
   xmlns:cc="http://creativecommons.org/ns#"
   xmlns:rdf="http://www.w3.org/1999/02/22-rdf-syntax-ns#"
   xmlns:svg="http://www.w3.org/2000/svg"
   xmlns="http://www.w3.org/2000/svg"
   xmlns:sodipodi="http://sodipodi.sourceforge.net/DTD/sodipodi-0.dtd"
   xmlns:inkscape="http://www.inkscape.org/namespaces/inkscape"
   width="542.67706mm"
   height="132.58603mm"
   viewBox="0 0 542.67707 132.58603"
   version="1.1"
   id="svg8"
   inkscape:version="0.92.3 (2405546, 2018-03-11)"
   sodipodi:docname="state-of-art-2.svg">
  <defs
     id="defs2">
    <marker
       inkscape:stockid="SquareL"
       orient="auto"
       refY="0"
       refX="0"
       id="SquareL"
       style="overflow:visible"
       inkscape:isstock="true">
      <path
         id="path899"
         d="M -5,-5 V 5 H 5 V -5 Z"
         style="fill-rule:evenodd;stroke:#000000;stroke-width:1.00000003pt"
         transform="scale(0.8)"
         inkscape:connector-curvature="0" />
    </marker>
  </defs>
  <sodipodi:namedview
     id="base"
     pagecolor="#ffffff"
     bordercolor="#666666"
     borderopacity="1.0"
     inkscape:pageopacity="0.0"
     inkscape:pageshadow="2"
     inkscape:zoom="0.35355339"
     inkscape:cx="1216.947"
     inkscape:cy="-66.250348"
     inkscape:document-units="mm"
     inkscape:current-layer="layer1"
     showgrid="false"
     fit-margin-top="0"
     fit-margin-left="0"
     fit-margin-right="0"
     fit-margin-bottom="0"
     inkscape:window-width="1920"
     inkscape:window-height="1022"
     inkscape:window-x="0"
     inkscape:window-y="30"
     inkscape:window-maximized="1" />
  <metadata
     id="metadata5">
    <rdf:RDF>
      <cc:Work
         rdf:about="">
        <dc:format>image/svg+xml</dc:format>
        <dc:type
           rdf:resource="http://purl.org/dc/dcmitype/StillImage" />
        <dc:title />
      </cc:Work>
    </rdf:RDF>
  </metadata>
  <g
     inkscape:label="Laag 1"
     inkscape:groupmode="layer"
     id="layer1"
     transform="translate(250.51836,-17.136138)">
    <text
       xml:space="preserve"
       style="font-style:normal;font-weight:normal;font-size:10.58333302px;line-height:1.25;font-family:sans-serif;letter-spacing:0px;word-spacing:0px;fill:#455a64;fill-opacity:1;stroke:none;stroke-width:0.26458332"
       x="-157.73036"
       y="136.85901"
       id="text1218"><tspan
         sodipodi:role="line"
         id="tspan1216"
         x="-157.73036"
         y="136.85901"
         style="font-style:normal;font-variant:normal;font-weight:bold;font-stretch:normal;font-size:17.63888931px;font-family:Lato;-inkscape-font-specification:'Lato Bold';fill:#455a64;fill-opacity:1;stroke-width:0.26458332">Java</tspan></text>
    <path
       style="fill:#1a5182;fill-opacity:1;stroke-width:0.18298797"
       d="m -234.81036,75.571537 c -3.01832,-1.028649 -5.43902,-3.657715 -6.54396,-7.107221 l -0.3918,-1.223171 -1.22317,-0.391803 c -3.53144,-1.13118 -6.25023,-3.698312 -7.18856,-6.787552 -0.56088,-1.84658 -0.4536,-4.784753 0.22649,-6.202757 0.26548,-0.553542 0.72386,-1.262606 1.01862,-1.575705 l 0.53594,-0.569269 -0.68891,-0.858638 c -1.06705,-1.32997 -1.43984,-2.538948 -1.43984,-4.669474 0,-2.206956 0.41928,-3.711199 1.47515,-5.29238 1.35847,-2.034331 3.5034,-3.59728 6.06111,-4.416554 l 1.22317,-0.391803 0.3918,-1.223173 c 0.81928,-2.557707 2.38222,-4.702636 4.41656,-6.061109 1.58118,-1.055872 3.08542,-1.475153 5.29238,-1.475153 2.11632,0 3.33307,0.371273 4.69991,1.434108 l 0.86881,0.675575 0.54897,-0.512179 c 0.30193,-0.281702 1.00185,-0.735793 1.55539,-1.009096 0.86853,-0.428824 1.27666,-0.505419 2.9785,-0.558981 1.59342,-0.05015 2.20974,0.01012 3.20989,0.313909 3.15923,0.959585 5.87516,3.86752 6.88808,7.375023 l 0.30013,1.039298 1.22593,0.394417 c 1.96546,0.632343 3.32757,1.448306 4.72101,2.828076 3.37226,3.33916 3.94957,8.348259 1.34166,11.641016 l -0.56728,0.716236 0.56728,0.716237 c 3.36469,4.248265 1.27199,11.080489 -4.19628,13.69994 -0.85547,0.409792 -1.90002,0.835179 -2.32124,0.945297 -0.72944,0.190711 -0.78021,0.25003 -1.06859,1.248546 -1.01568,3.516876 -3.72802,6.423414 -6.8907,7.384044 -1.00015,0.303789 -1.61647,0.364062 -3.20989,0.313907 -1.70184,-0.05353 -2.10997,-0.130154 -2.9785,-0.558978 -0.55354,-0.273303 -1.25346,-0.727392 -1.55539,-1.009098 l -0.54897,-0.512177 -0.86881,0.675576 c -1.38499,1.076951 -2.57828,1.434907 -4.76493,1.429382 -1.45939,-0.0035 -2.13847,-0.09664 -3.09996,-0.424316 z m 4.6307,-2.707639 c 0.97364,-0.291706 1.93293,-1.137522 2.45207,-2.162008 0.86038,-1.697871 2.20619,-1.660447 3.19341,0.0888 0.973,1.724083 2.32016,2.402522 4.42089,2.226404 1.69003,-0.141683 2.97673,-0.785314 4.26042,-2.131135 0.93553,-0.980796 1.93847,-2.661944 1.94312,-3.257087 0.002,-0.142256 -0.25763,-0.229551 -0.68441,-0.230907 -1.67331,-0.0055 -4.5184,-1.198149 -6.22536,-2.610094 -1.84945,-1.529796 -3.69392,-4.041052 -4.63339,-6.308393 -0.54431,-1.313661 -0.86919,-1.260449 -1.52728,0.250155 -1.1033,2.532537 -3.25238,5.239263 -5.24413,6.604843 -1.78153,1.221449 -4.04739,2.065661 -5.54424,2.065661 -0.36288,0 -0.65979,0.08745 -0.65979,0.194321 0,0.513325 1.03871,2.290447 1.871,3.201115 1.72155,1.88365 4.25346,2.704762 6.37769,2.068323 z m -5.7623,-8.962245 c 2.81722,-1.054059 5.36695,-3.993055 6.60294,-7.610988 0.65272,-1.910644 0.53822,-2.098395 -0.98969,-1.622665 -1.77976,0.554151 -4.15058,1.886942 -5.41095,3.041831 -1.87529,1.718377 -2.8788,3.544187 -3.15172,5.73442 l -0.13412,1.076274 1.07306,-0.134068 c 0.59018,-0.07374 1.49489,-0.291901 2.01048,-0.484804 z m 22.58296,0.122221 c 0,-0.946148 -0.43143,-2.436529 -1.04834,-3.621468 -1.19512,-2.295564 -4.02926,-4.507929 -7.13332,-5.568358 -1.17312,-0.400766 -1.55102,-0.464926 -1.72337,-0.292578 -0.31346,0.313458 0.0148,1.353913 1.16965,3.707449 1.81962,3.708271 4.95759,6.0729 8.23217,6.203365 0.41753,0.01667 0.50321,-0.0563 0.50321,-0.42841 z m -28.54612,-0.760299 c 0,-1.029424 0.5195,-2.792789 1.21189,-4.113595 1.35776,-2.590065 3.8314,-4.872808 6.88114,-6.350111 1.0703,-0.518456 1.7809,-0.971646 1.78236,-1.136692 0.002,-0.166573 -0.6339,-0.575695 -1.6161,-1.040634 -2.04339,-0.967249 -4.27207,-2.639112 -5.49617,-4.122977 -1.55928,-1.890194 -2.75543,-4.66741 -2.76094,-6.41038 -0.002,-0.377412 -0.0896,-0.686204 -0.1965,-0.686204 -0.5313,0 -2.31931,1.059051 -3.26285,1.932596 -1.25438,1.161335 -2.02115,2.683621 -2.16812,4.30439 -0.18436,2.033084 0.63569,3.608474 2.32354,4.463771 1.69788,0.860382 1.66045,2.206188 -0.0888,3.193404 -1.68689,0.952026 -2.39672,2.31975 -2.23694,4.310282 0.12187,1.518169 0.86848,3.128856 1.93918,4.183454 0.80959,0.797417 2.95817,2.119225 3.45958,2.128334 0.14147,0.0027 0.22873,-0.247575 0.22873,-0.655638 z m 33.35602,-0.03396 c 1.19634,-0.641252 2.59044,-2.08024 3.17716,-3.279447 0.57913,-1.1837 0.78744,-3.270891 0.43348,-4.343395 -0.30729,-0.931105 -1.17126,-1.867432 -2.20778,-2.392674 -1.59505,-0.808276 -1.59505,-2.293559 0,-3.101842 1.77298,-0.89844 2.48771,-2.230587 2.34752,-4.375485 -0.16078,-2.459954 -1.69297,-4.624789 -4.11835,-5.818797 -1.30389,-0.641904 -1.50593,-0.574527 -1.51131,0.503979 -0.007,1.415171 -1.11527,3.986935 -2.48519,5.767244 -1.39094,1.807625 -3.80223,3.622535 -6.20175,4.66788 -0.73739,0.321245 -1.19721,0.63085 -1.19721,0.806104 0,0.175253 0.45982,0.484858 1.19721,0.806104 2.39952,1.045344 4.81081,2.860255 6.20175,4.667877 1.34626,1.749562 2.48239,4.361301 2.48239,5.706528 0,1.20918 0.25039,1.260518 1.88208,0.385924 z M -228.97699,48.63826 c 0.15873,-0.413637 -0.77114,-2.917142 -1.6291,-4.386094 -1.05129,-1.799941 -3.08227,-3.790493 -4.58496,-4.493691 -1.16985,-0.547431 -3.49487,-1.073855 -3.72527,-0.843459 -0.2393,0.239304 0.31285,2.619288 0.87539,3.773283 1.15327,2.365797 4.08235,4.701895 7.35424,5.8654 1.18626,0.42184 1.57294,0.440964 1.7097,0.08456 z m 8.24686,-0.456174 c 2.79998,-1.121164 5.33635,-3.266918 6.43556,-5.44444 0.55835,-1.106085 1.12866,-3.568553 0.88329,-3.813911 -0.0686,-0.06863 -0.67813,-0.03311 -1.35445,0.07896 -3.54236,0.586989 -6.5798,3.555978 -8.21864,8.033441 -0.77526,2.11805 -0.5101,2.252845 2.25424,1.145944 z m -4.72278,-3.335209 c 0.93947,-2.267342 2.78394,-4.778602 4.63339,-6.308397 1.70696,-1.411943 4.55205,-2.6048 6.22536,-2.610095 0.84209,-0.0027 0.85598,-0.153604 0.14475,-1.574089 -1.13258,-2.262025 -3.40914,-3.865703 -5.75503,-4.054008 -2.01145,-0.16146 -3.3741,0.542047 -4.32974,2.235374 -0.98722,1.749248 -2.33303,1.786673 -3.19341,0.0888 -0.86377,-1.704574 -2.34625,-2.486604 -4.40408,-2.323218 -1.65731,0.131587 -3.17848,0.887208 -4.36408,2.167794 -0.87354,0.943532 -1.9326,2.731557 -1.9326,3.262853 0,0.106876 0.29691,0.194321 0.65979,0.194321 0.36289,0 1.15987,0.129583 1.77107,0.287961 3.73003,0.966548 7.18851,4.184679 9.02323,8.396171 0.65191,1.496414 0.97829,1.547158 1.52135,0.236532 z m 44.57428,30.217604 c -5.25354,-0.7633 -8.89297,-2.990389 -10.66174,-6.524285 -1.42382,-2.844674 -1.41547,-2.74677 -1.41547,-16.602537 0,-13.824605 -0.005,-13.764439 1.38968,-16.551017 1.82016,-3.636583 5.13453,-5.720147 10.3495,-6.506189 4.76207,-0.717776 15.59283,0.16971 16.80015,1.376626 0.4357,0.435553 0.42999,0.778618 -0.0759,4.558534 -0.46323,3.461146 -0.53739,3.581129 -2.11316,3.418987 -0.60385,-0.06213 -1.96254,-0.236385 -3.01929,-0.387222 -2.82364,-0.403029 -7.86765,-0.558856 -9.40746,-0.290629 -2.3122,0.402773 -3.39602,1.259755 -3.96585,3.135814 -0.34957,1.150866 -0.36287,1.648055 -0.3109,11.621843 0.0494,9.494354 0.0833,10.4926 0.38096,11.242311 0.44451,1.119574 1.28371,1.934421 2.49754,2.42504 0.94022,0.380032 1.28834,0.409536 4.67561,0.396271 2.44102,-0.0095 4.391,-0.120278 5.85561,-0.332484 1.20772,-0.17499 2.68993,-0.362824 3.29378,-0.417419 1.57681,-0.142562 1.65091,-0.0222 2.11316,3.431586 0.50606,3.781153 0.51178,4.123886 0.0759,4.553506 -1.12723,1.111061 -12.12846,2.08091 -16.46212,1.451264 z m 46.72583,-0.08205 c -6.16545,-1.115771 -9.68748,-4.784261 -10.43294,-10.866775 -0.1128,-0.920427 -0.1552,-3.919557 -0.10475,-7.411016 0.0932,-6.451044 0.17599,-7.048282 1.32024,-9.524663 1.58329,-3.426534 4.78315,-5.641019 9.28018,-6.422418 2.40603,-0.418069 7.5043,-0.275105 9.57171,0.268408 3.589,0.943533 6.31309,2.998711 7.7318,5.83321 1.3223,2.641873 1.41769,3.390477 1.41661,11.117088 -0.002,7.646011 -0.0591,8.101767 -1.37935,10.832471 -1.60423,3.318073 -4.693,5.388589 -9.21504,6.177174 -2.00282,0.349262 -6.24926,0.347457 -8.18846,-0.0035 z m 7.24617,-8.377878 c 1.20976,-0.553846 1.84875,-1.438192 2.12708,-2.943788 0.12306,-0.665693 0.17526,-3.119146 0.13805,-6.488287 -0.056,-5.073077 -0.0847,-5.471464 -0.44982,-6.2611 -0.5046,-1.091172 -1.35714,-1.726006 -2.82264,-2.101864 -1.31715,-0.337805 -3.56558,-0.271541 -4.83738,0.142566 -0.96622,0.314612 -2.02865,1.402781 -2.3249,2.381213 -0.35134,1.160456 -0.33823,12.028013 0.0158,13.047546 0.73015,2.10296 2.3291,2.893447 5.55964,2.748569 1.20859,-0.05422 1.84935,-0.183837 2.59422,-0.524855 z m 55.801638,8.388785 c -5.205173,-0.913857 -8.430578,-3.777889 -9.529419,-8.461736 -0.292253,-1.245738 -0.332857,-2.30053 -0.332857,-8.646837 0,-8.157365 0.02254,-8.33681 1.401378,-11.162265 1.361797,-2.790514 3.559361,-4.544629 7.020998,-5.604192 1.555219,-0.476034 1.840169,-0.503204 5.393222,-0.514247 4.278427,-0.01331 5.123682,0.137511 7.616086,1.358828 2.573895,1.261237 4.363022,3.566399 5.236039,6.746214 0.338583,1.233235 0.393185,2.033321 0.461607,6.764074 0.07105,4.913501 0.0507,5.395123 -0.241856,5.718374 -0.306984,0.339199 -0.658487,0.352976 -9.008387,0.352976 h -8.688943 l 0.09147,1.6044 c 0.100553,1.763455 0.527718,2.884151 1.289593,3.383354 1.782136,1.167704 6.822534,1.184012 11.630733,0.03762 2.262131,-0.539343 2.626388,-0.553238 3.022734,-0.115276 0.378586,0.418318 1.479992,5.542872 1.324484,6.162442 -0.06197,0.246973 -0.348515,0.570985 -0.636756,0.72004 -0.743167,0.384306 -2.887366,0.960173 -5.234753,1.405901 -2.638014,0.500911 -8.601862,0.638942 -10.815375,0.25032 z m 8.443242,-22.643955 c -0.239165,-2.93858 -1.139044,-3.838633 -3.950327,-3.951094 -2.069789,-0.0828 -2.996565,0.183535 -3.943626,1.133303 -0.813123,0.815447 -1.170664,1.888394 -1.170664,3.513003 v 0.814437 h 4.593744 4.593751 z m -95.90065,21.921128 -0.44916,-0.449158 V 51.488505 c 0,-22.088866 0.004,-22.336849 0.36597,-22.698825 0.34328,-0.343281 0.60996,-0.365977 4.30022,-0.365977 3.69026,0 3.95694,0.0227 4.30022,0.365977 0.36198,0.36199 0.36597,0.609959 0.36597,22.768719 v 22.402749 l -0.48215,0.379258 c -0.452,0.355548 -0.71562,0.379257 -4.21704,0.379257 -3.72146,0 -3.7365,-0.0014 -4.18403,-0.449152 z m 54.69677,0.235126 c -0.21497,-0.104087 -0.47258,-0.368628 -0.57247,-0.587867 -0.33389,-0.732807 -10.10745,-31.347919 -10.10745,-31.661001 0,-0.169727 0.20212,-0.510709 0.44915,-0.757744 0.44848,-0.448483 0.4549,-0.449153 4.30853,-0.449153 3.76081,0 3.86968,0.01052 4.26279,0.411723 0.29707,0.303193 1.27059,3.316538 3.69321,11.431579 1.80939,6.060915 3.338949,10.960418 3.399014,10.887779 0.06003,-0.07263 0.790834,-2.39654 1.623931,-5.164238 1.347011,-4.474975 2.992685,-9.912916 4.608275,-15.22753 0.367935,-1.210348 0.668404,-1.867526 0.941223,-2.058614 0.329019,-0.230455 1.082782,-0.280699 4.211098,-0.280699 3.801569,0 3.811383,0.0011 4.259503,0.449153 0.247029,0.247035 0.449152,0.582223 0.449152,0.744866 0,0.297562 -9.783537,30.94704 -10.111815,31.67789 -0.09673,0.215353 -0.376526,0.482971 -0.621771,0.594713 -0.585321,0.266692 -10.23923,0.256982 -10.79237,-0.01086 z m 54.912931,-0.235126 -0.449144,-0.449158 V 57.884766 41.948178 l 0.449144,-0.449152 c 0.44285,-0.442834 0.494451,-0.449153 3.668087,-0.449153 3.116157,0 3.232368,0.01345 3.640361,0.42144 0.306563,0.306558 0.456407,0.730552 0.549732,1.555398 0.07056,0.623678 0.175192,1.133958 0.232505,1.133958 0.05734,0 0.567886,-0.279293 1.134598,-0.620649 1.505736,-0.906983 4.574761,-2.413475 5.452427,-2.676432 0.878668,-0.263256 1.622811,-0.131904 1.870061,0.33009 0.217006,0.405463 0.752927,4.965675 0.752927,6.406653 0,1.311831 -0.02393,1.336357 -2.51953,2.582438 -1.033498,0.51603 -2.783323,1.474986 -3.888493,2.131011 l -2.009434,1.192768 v 10.2273 10.2273 l -0.482155,0.379258 c -0.451994,0.355548 -0.715627,0.379257 -4.217032,0.379257 -3.721458,0 -3.736501,-0.0014 -4.184054,-0.449152 z"
       id="path85"
       inkscape:connector-curvature="0" />
    <path
       inkscape:connector-curvature="0"
       style="fill:#0288d1;fill-opacity:1;stroke-width:0.13486214"
       d="m 206.59901,17.136138 c -10.76455,0 -17.73679,4.410397 -23.21071,12.275961 -0.99299,1.426842 -0.68686,3.383152 0.69832,4.433458 l 5.81768,4.411208 c 1.39892,1.060687 3.38935,0.81268 4.48457,-0.559413 3.37816,-4.232109 5.88403,-6.668795 11.16078,-6.668795 4.1489,0 9.28068,2.670136 9.28068,6.693343 0,3.04141 -2.51073,4.603386 -6.6073,6.900086 -4.77723,2.678365 -11.09903,6.011616 -11.09903,14.350006 v 1.32003 c 0,1.787597 1.4491,3.236692 3.2367,3.236692 h 9.77359 c 1.7876,0 3.23669,-1.449095 3.23669,-3.236692 v -0.778559 c 0,-5.780191 16.89391,-6.020919 16.89391,-21.662503 1.4e-4,-11.779396 -12.21864,-20.714822 -23.66588,-20.714822 z m -1.35145,50.365479 c -5.15119,0 -9.34203,4.190843 -9.34203,9.342035 0,5.151059 4.19084,9.341901 9.34203,9.341901 5.1512,0 9.34204,-4.190842 9.34204,-9.342034 0,-5.151197 -4.19084,-9.341902 -9.34204,-9.341902 z"
       id="path151" />
    <text
       xml:space="preserve"
       style="font-style:normal;font-weight:normal;font-size:10.58333302px;line-height:1.25;font-family:sans-serif;letter-spacing:0px;word-spacing:0px;fill:#455a64;fill-opacity:1;stroke:none;stroke-width:0.26458332"
       x="205.14453"
       y="124.48974"
       id="text1218-3"><tspan
         sodipodi:role="line"
         id="tspan1216-6"
         x="205.14453"
         y="124.48974"
         style="font-style:normal;font-variant:normal;font-weight:bold;font-stretch:normal;font-size:17.63888931px;font-family:Lato;-inkscape-font-specification:'Lato Bold';text-align:center;text-anchor:middle;fill:#455a64;fill-opacity:1;stroke-width:0.26458332">Other</tspan><tspan
         sodipodi:role="line"
         x="205.14453"
         y="146.53835"
         style="font-style:normal;font-variant:normal;font-weight:bold;font-stretch:normal;font-size:17.63888931px;font-family:Lato;-inkscape-font-specification:'Lato Bold';text-align:center;text-anchor:middle;fill:#455a64;fill-opacity:1;stroke-width:0.26458332"
         id="tspan194">languages</tspan></text>
  </g>
</svg>
